<?xml version="1.0" encoding="iso-8859-1"?>
<!-- Generator: Adobe Illustrator 19.0.0, SVG Export Plug-In . SVG Version: 6.00 Build 0)  -->
<svg xmlns="http://www.w3.org/2000/svg" xmlns:xlink="http://www.w3.org/1999/xlink" version="1.1" id="Capa_1" x="0px" y="0px" viewBox="0 0 490.88 490.88" style="enable-background:new 0 0 490.88 490.88;" xml:space="preserve">
<g>
	<rect x="122.88" y="393.44" style="fill:#FFA64D;" width="160" height="72"/>
	<circle style="fill:#FFA64D;" cx="202.88" cy="185.44" r="112"/>
	<polygon style="fill:#FFA64D;" points="370.88,273.44 346.88,361.44 394.88,361.44  "/>
</g>
<g>
	<rect x="226.88" y="425.44" style="fill:#333333;" width="24" height="16"/>
	<path style="fill:#333333;" d="M202.88,121.44v-16c-37.568,0-69.624,25.584-77.96,62.224l15.608,3.544   C147.192,141.912,172.832,121.44,202.88,121.44z"/>
	<path style="fill:#333333;" d="M140.528,199.664c-1.096-4.8-1.648-9.584-1.648-14.224h-16c0,5.832,0.688,11.816,2.04,17.776   L140.528,199.664z"/>
	<path style="fill:#333333;" d="M346.88,209.44h48v-48h-48V209.44z M362.88,177.44h16v16h-16V177.44z"/>
	<path style="fill:#333333;" d="M486.44,336.36l-59.56-89.344V177.44c0-30.872-25.128-56-56-56   c-12.744,0-24.472,4.328-33.888,11.528c-13.288-34.16-38.544-61.056-70.112-76.616V33.44c0-13.232-10.768-24-24-24h-80   c-13.232,0-24,10.768-24,24v23.2c-47.336,23.616-80,72.408-80,128.8v164.368c-15.44,12.376-26.672,28.584-32.504,47.24L0,481.44   h370.88c23.136,0,43.104-9.688,51.616-24.312c1.456,0.208,2.912,0.312,4.384,0.312c17.648,0,32-14.352,32-32s-14.352-32-32-32v16   c8.824,0,16,7.176,16,16c0,1.28-0.184,2.52-0.48,3.72c-0.048,0.208-0.128,0.392-0.184,0.592c-0.32,1.08-0.712,2.128-1.24,3.096   c-0.016,0.04-0.04,0.072-0.056,0.104c-2.448,4.408-6.928,7.56-11.992,8.272c-0.064,0.008-0.128,0.008-0.184,0.016   c-1.12,0.144-2.272,0.136-3.44,0.024c-0.208-0.024-0.424-0.032-0.624-0.064c-1.248-0.168-2.496-0.464-3.744-0.96l-0.464-0.184   c-5.64-2.464-9.592-8.08-9.592-14.616h-16c0,10.32,4.992,19.416,12.592,25.272c-6.272,8.664-20.624,14.728-36.592,14.728   s-30.32-6.064-36.592-14.728c7.6-5.856,12.592-14.952,12.592-25.272h-16c0,6.536-3.952,12.152-9.584,14.632l-0.464,0.184   c-1.248,0.496-2.496,0.784-3.736,0.952c-0.208,0.032-0.416,0.04-0.632,0.064c-1.16,0.112-2.312,0.12-3.44-0.024   c-0.064-0.008-0.12-0.008-0.184-0.016c-5.072-0.712-9.552-3.872-12-8.28c-0.016-0.032-0.032-0.064-0.048-0.096   c-0.536-0.976-0.928-2.024-1.248-3.104c-0.056-0.2-0.136-0.392-0.184-0.592c-0.296-1.2-0.48-2.44-0.48-3.72c0-8.824,7.176-16,16-16   v-16c-17.648,0-32,14.352-32,32s14.352,32,32,32c1.472,0,2.928-0.104,4.384-0.312c1.752,3.016,4.104,5.76,6.76,8.312H208.072   c1.744-3.648,2.808-7.688,2.808-12c0-15.44-12.56-28-28-28s-28,12.56-28,28c0,4.312,1.064,8.352,2.808,12H99.944l6.872-55.008   l-15.872-1.984l-7.128,56.992H21.76l19.872-63.616c5.008-16,14.736-29.904,28.208-40.384h183.2c4.056,9.4,13.392,16,24.264,16   h37.576h8h8v32h80v-32h8h8h37.576c14.576,0,26.424-11.848,26.424-26.424C490.88,345.784,489.352,340.712,486.44,336.36z    M170.88,453.44c0-6.616,5.384-12,12-12s12,5.384,12,12s-5.384,12-12,12S170.88,460.056,170.88,453.44z M154.88,33.44   c0-4.416,3.584-8,8-8h80c4.416,0,8,3.584,8,8v16.184c-15.088-5.28-31.24-8.184-48-8.184c-16.848,0-32.96,3.064-48,8.4V33.44z    M202.88,57.44c55.936,0,104.576,35.504,121.728,88.512c-6.128,8.984-9.728,19.824-9.728,31.488v69.576L270.6,313.44H74.88v-128   C74.88,114.864,132.304,57.44,202.88,57.44z M251.544,345.44H106.88v-16h153.056l-4.616,6.92   C253.464,339.136,252.24,342.224,251.544,345.44z M90.88,345.44h-16v-16h16V345.44z M277.304,361.44   c-5.752,0-10.424-4.672-10.424-10.424c0-2.064,0.6-4.064,1.752-5.784l46.248-69.368v85.576H277.304z M394.88,393.44h-48v-16h48   V393.44z M464.456,361.44H426.88v-16h-16v16h-80v-184c0-22.056,17.944-40,40-40s40,17.944,40,40v152h16v-53.576l46.248,69.376   c1.152,1.712,1.752,3.712,1.752,5.776C474.88,356.768,470.208,361.44,464.456,361.44z"/>
	<path style="fill:#333333;" d="M360.512,435.76l-11.288,11.336c1.056,1.064,10.656,10.344,21.656,10.344s20.6-9.28,21.656-10.344   l-11.288-11.336c-2.328,2.288-7.232,5.68-10.368,5.68S362.84,438.048,360.512,435.76z"/>
</g>
<g>
</g>
<g>
</g>
<g>
</g>
<g>
</g>
<g>
</g>
<g>
</g>
<g>
</g>
<g>
</g>
<g>
</g>
<g>
</g>
<g>
</g>
<g>
</g>
<g>
</g>
<g>
</g>
<g>
</g>
</svg>
