<?xml version="1.0" encoding="iso-8859-1"?>
<!-- Generator: Adobe Illustrator 19.0.0, SVG Export Plug-In . SVG Version: 6.00 Build 0)  -->
<svg xmlns="http://www.w3.org/2000/svg" xmlns:xlink="http://www.w3.org/1999/xlink" version="1.1" id="Capa_1" x="0px" y="0px" viewBox="0 0 496 496" style="enable-background:new 0 0 496 496;" xml:space="preserve">
<path style="fill:#FFA64D;" d="M205.44,0c-79.4,0-144,64.6-144,144v72h8c0-17.672,14.328-32,32-32v-24h208v24  c17.672,0,32,14.328,32,32h8v-72C349.44,64.6,284.84,0,205.44,0z"/>
<path style="fill:#333333;" d="M317.44,264v82.664l0.296,0.392c-4.88-1.56-9.88-2.784-14.984-3.568l-41.312-6.352v-8.288  c26.92-15.624,46.784-42.072,53.488-73.4c19.44-2.712,34.512-19.272,34.512-39.448c0-19.312-13.768-35.472-32-39.192V120h-16v24  h-160v16h160v72c0,52.936-43.064,96-96,96s-96-43.064-96-96v-72h16v-16h-16v-24h-16v56.808c-18.232,3.72-32,19.88-32,39.192  c0,20.176,15.072,36.736,34.512,39.448c6.704,31.328,26.568,57.776,53.488,73.4v8.288l-41.312,6.352  c-36.952,5.688-68.04,32.424-79.192,68.112L2.56,496h394.88v-16H324.8l-6.528-78.32l44.112,18.384l3.608-8.656l1.048,1.392l12.8-9.6  l-46.4-61.864V296.96l72,100.808l57.432-80.408l-13.016-9.296L441.32,320h-71.768l-28.576-40h128.912L458.4,296.088l13.016,9.296  l6.024-8.424v44.368l-46.4,61.872l12.8,9.6l49.6-66.136V264H317.44z M333.44,216c0,10.536-6.872,19.416-16.336,22.632  c0.128-2.208,0.336-4.392,0.336-6.632v-38.528C326.728,196.784,333.44,205.584,333.44,216z M77.44,216  c0-10.416,6.712-19.216,16-22.528V232c0,2.24,0.208,4.424,0.336,6.632C84.312,235.416,77.44,226.536,77.44,216z M213.44,399.616  v-16.192c25.568-2.784,39.52-18.32,45.232-30.52l24.232,3.728C276.576,369.56,257.992,396.632,213.44,399.616z M129.656,386.24  c3.672,3.848,7.96,7.656,12.936,11.216l-34.776,14.32l1.416-17.032L129.656,386.24z M197.44,383.424v16.2  c-44.896-2.96-63.288-30.008-69.52-42.992l24.28-3.736C157.92,365.104,171.872,380.64,197.44,383.424z M106.32,429.704  l54.144-22.296c10.264,4.36,22.528,7.344,36.976,8.192V480h-95.312L106.32,429.704z M213.44,415.6c2.72-0.16,5.432-0.32,8-0.632V432  h-8V415.6z M245.44,336.488v6.344C244.064,347,235.656,368,205.44,368c-30.208,0-38.6-20.904-40-25.168v-6.344  c12.44,4.784,25.896,7.512,40,7.512S233,341.272,245.44,336.488z M110.568,359.304l1.056-0.16c1.472,3.464,3.904,8.424,7.648,14.096  l-68.728,28.632C62.744,379.44,84.88,363.256,110.568,359.304z M42.232,422.672l50.376-20.992L86.08,480H24.32L42.232,422.672z   M213.44,480v-32h24v-36.176c4.616-1.256,8.968-2.712,12.976-4.416l54.144,22.296L308.752,480H213.44z M303.064,411.784  l-34.776-14.32c4.976-3.56,9.264-7.368,12.936-11.216l20.424,8.512L303.064,411.784z M291.608,373.24  c3.744-5.672,6.176-10.632,7.648-14.096l1.056,0.16c14.816,2.28,28.68,8.568,40.2,18.136l17.648,23.536L291.608,373.24z   M429.896,336l-24.456,34.232L380.984,336H429.896z"/>
<circle style="fill:#FFA64D;" cx="405.44" cy="440" r="56"/>
<g>
	<path style="fill:#333333;" d="M153.44,208c11.032,0,20-8.976,20-20s-8.968-20-20-20s-20,8.976-20,20S142.408,208,153.44,208z    M153.44,184c2.2,0,4,1.792,4,4s-1.8,4-4,4s-4-1.792-4-4S151.24,184,153.44,184z"/>
	<path style="fill:#333333;" d="M257.44,208c11.032,0,20-8.976,20-20s-8.968-20-20-20s-20,8.976-20,20S246.408,208,257.44,208z    M257.44,184c2.2,0,4,1.792,4,4s-1.8,4-4,4s-4-1.792-4-4S255.24,184,257.44,184z"/>
	<path style="fill:#333333;" d="M157.44,232h-16c0,35.288,28.712,64,64,64s64-28.712,64-64h-16c0,26.472-21.528,48-48,48   S157.44,258.472,157.44,232z"/>
	<path style="fill:#333333;" d="M405.44,416c-13.232,0-24,10.768-24,24s10.768,24,24,24s24-10.768,24-24S418.672,416,405.44,416z    M405.44,448c-4.416,0-8-3.592-8-8s3.584-8,8-8s8,3.592,8,8S409.856,448,405.44,448z"/>
</g>
<g>
</g>
<g>
</g>
<g>
</g>
<g>
</g>
<g>
</g>
<g>
</g>
<g>
</g>
<g>
</g>
<g>
</g>
<g>
</g>
<g>
</g>
<g>
</g>
<g>
</g>
<g>
</g>
<g>
</g>
</svg>
