<?xml version="1.0" encoding="iso-8859-1"?>
<!-- Generator: Adobe Illustrator 19.0.0, SVG Export Plug-In . SVG Version: 6.00 Build 0)  -->
<svg xmlns="http://www.w3.org/2000/svg" xmlns:xlink="http://www.w3.org/1999/xlink" version="1.1" id="Capa_1" x="0px" y="0px" viewBox="0 0 496 496" style="enable-background:new 0 0 496 496;" xml:space="preserve">
<g>
	<circle style="fill:#FFA64D;" cx="397.44" cy="352" r="80"/>
	<path style="fill:#FFA64D;" d="M205.44,0c-79.4,0-144,64.6-144,144v64h8c0-17.672,14.328-32,32-32v-16h9.208   c51.952,0,103.32-10.904,150.792-32l1.688,3.376C271.896,148.92,289.832,160,309.44,160v16c17.672,0,32,14.328,32,32h8v-64   C349.44,64.6,284.84,0,205.44,0z"/>
	<path style="fill:#FFA64D;" d="M69.44,208h-8l16,56h24v-24C83.768,240,69.44,225.672,69.44,208z"/>
</g>
<g>
	<path style="fill:#333333;" d="M373.44,384h8c13.232,0,24-10.768,24-24v-16c0-4.416,3.592-8,8-8h8c4.416,0,8,3.584,8,8v16   c0,4.416-3.592,8-8,8v16c13.232,0,24-10.768,24-24h16v-16h-16c0-13.232-10.768-24-24-24h-8c-13.232,0-24,10.768-24,24v16   c0,4.416-3.592,8-8,8h-8c-4.416,0-8-3.584-8-8v-16c0-4.416,3.592-8,8-8v-16c-13.232,0-24,10.768-24,24h-16v16h16   C349.44,373.232,360.208,384,373.44,384z"/>
	<path style="fill:#333333;" d="M348.544,216c0.536-2.624,0.896-5.296,0.896-8c0-19.312-13.768-35.472-32-39.192V152h-8   c-16.688,0-31.688-9.272-39.16-24.2l-5.104-10.208l-6.992,3.104C211.448,141.472,161.808,152,110.648,152H93.44v16.808   c-18.232,3.72-32,19.88-32,39.192c0,19.72,14.376,36.048,33.168,39.312c0.4,2.928,0.856,5.84,1.48,8.688h-21.32l-15.104,11.328   c-13.912,10.44-22.224,27.064-22.224,44.464c0,20.608,11.216,39.024,28.968,48.68c-17.464,12.336-30.928,30.168-37.48,51.136   L2.56,496h298.88h8h184V216H348.544z M333.44,208c0,2.768-0.64,5.432-1.552,8H317.44v-30.528   C326.728,188.784,333.44,197.584,333.44,208z M109.44,168h1.208c50.896,0,100.352-9.984,147.128-29.696   c9.344,16.096,25.4,26.744,43.664,29.176V216v16c0,52.936-43.064,96-96,96s-96-43.064-96-96V168z M301.44,343.288l-40-6.152v-8.288   c16.456-9.552,30.216-23.152,40-39.456V343.288z M205.44,380.688l-40-40v-4.2c12.44,4.784,25.896,7.512,40,7.512   s27.56-2.728,40-7.512v4.2L205.44,380.688z M154.648,352.52l39.088,39.088l-46.768,40.92l-12.808-76.856L154.648,352.52z    M77.44,208c0-10.416,6.712-19.216,16-22.528v45.048C84.152,227.216,77.44,218.416,77.44,208z M78.32,348.528   c-15.112-6.04-24.88-20.464-24.88-36.736c0-12.392,5.92-24.224,15.832-31.664L80.104,272h20.848   c9.232,24.032,26.472,44.064,48.488,56.848v8.288l-41.304,6.352c-8.528,1.312-16.712,3.792-24.44,7.192L78.32,348.528z    M102.504,480l6.872-55.008l-15.872-1.984L86.376,480H24.32l19.88-63.624c9.336-29.896,35.392-52.304,66.36-57.072l7.784-1.2   l17.56,105.36l69.536-60.832l69.528,60.84l9.024-54.16l-15.784-2.624l-4.312,25.84l-46.768-40.92l39.088-39.088l20.488,3.152   l-5.84,35.024l15.784,2.624l5.872-35.216l7.784,1.2c0.384,0.056,0.744,0.16,1.128,0.224V480H102.504z M477.44,480h-160V232h160V480   z"/>
	<polygon style="fill:#333333;" points="349.44,264 365.44,264 365.44,248 333.44,248 333.44,280 349.44,280  "/>
	<polygon style="fill:#333333;" points="445.44,280 461.44,280 461.44,248 429.44,248 429.44,264 445.44,264  "/>
	<polygon style="fill:#333333;" points="365.44,448 349.44,448 349.44,432 333.44,432 333.44,464 365.44,464  "/>
	<polygon style="fill:#333333;" points="445.44,448 429.44,448 429.44,464 461.44,464 461.44,432 445.44,432  "/>
	<path style="fill:#333333;" d="M153.44,208c11.024,0,20-8.968,20-20s-8.976-20-20-20s-20,8.968-20,20S142.416,208,153.44,208z    M153.44,184c2.208,0,4,1.8,4,4s-1.792,4-4,4s-4-1.8-4-4S151.232,184,153.44,184z"/>
	<path style="fill:#333333;" d="M257.44,208c11.024,0,20-8.968,20-20s-8.976-20-20-20s-20,8.968-20,20S246.416,208,257.44,208z    M257.44,184c2.208,0,4,1.8,4,4s-1.792,4-4,4s-4-1.8-4-4S255.232,184,257.44,184z"/>
	<path style="fill:#333333;" d="M157.44,248c0,26.472,21.528,48,48,48s48-21.528,48-48h-16c0,17.648-14.352,32-32,32   s-32-14.352-32-32H157.44z"/>
</g>
<g>
</g>
<g>
</g>
<g>
</g>
<g>
</g>
<g>
</g>
<g>
</g>
<g>
</g>
<g>
</g>
<g>
</g>
<g>
</g>
<g>
</g>
<g>
</g>
<g>
</g>
<g>
</g>
<g>
</g>
</svg>
