<?xml version="1.0" encoding="iso-8859-1"?>
<!-- Generator: Adobe Illustrator 19.0.0, SVG Export Plug-In . SVG Version: 6.00 Build 0)  -->
<svg xmlns="http://www.w3.org/2000/svg" xmlns:xlink="http://www.w3.org/1999/xlink" version="1.1" id="Capa_1" x="0px" y="0px" viewBox="0 0 496 496" style="enable-background:new 0 0 496 496;" xml:space="preserve">
<path style="fill:#FFA64D;" d="M313.44,248h-1.264c-5.144,33.216-25.992,61.208-54.736,76.208V344l40,6.152l0.968,1.52  c10.808-23.28,30.632-41.456,55.032-50.096V144c0-79.4-64.6-144-144-144s-144,64.6-144,144v224l8.608-0.24  c11.456-8.304,24.776-14.128,39.304-16.36l48.088-7.4v-19.792c-28.744-14.992-49.592-42.992-54.736-76.208h-1.264  c-17.672,0-32-14.328-32-32s14.328-32,32-32v-24h40c25.184,0,48.888-11.856,64-32c15.112,20.144,38.816,32,64,32h40v24  c17.672,0,32,14.328,32,32S331.112,248,313.44,248z"/>
<g>
	<path style="fill:#333333;" d="M177.44,188c0-11.032-8.968-20-20-20s-20,8.968-20,20s8.968,20,20,20S177.44,199.032,177.44,188z    M157.44,192c-2.2,0-4-1.8-4-4s1.8-4,4-4s4,1.8,4,4S159.64,192,157.44,192z"/>
	<path style="fill:#333333;" d="M241.44,188c0,11.032,8.968,20,20,20s20-8.968,20-20s-8.968-20-20-20S241.44,176.968,241.44,188z    M265.44,188c0,2.2-1.8,4-4,4s-4-1.8-4-4s1.8-4,4-4S265.44,185.8,265.44,188z"/>
	<path style="fill:#333333;" d="M209.44,296c35.288,0,64-28.712,64-64h-16c0,26.472-21.528,48-48,48s-48-21.528-48-48h-16   C145.44,267.288,174.152,296,209.44,296z"/>
	<path style="fill:#333333;" d="M427.128,362.208l-23.8,11.896l11.896-23.8c1.448-2.88,2.216-6.128,2.216-9.36   c0-11.544-9.4-20.944-20.944-20.944h-22.112c-11.544,0-20.944,9.4-20.944,20.944c0,3.232,0.768,6.48,2.208,9.368l11.896,23.8   l-23.8-11.896c-2.88-1.448-6.128-2.216-9.36-2.216c-11.544,0-20.944,9.4-20.944,20.944v22.112c0,11.544,9.4,20.944,20.944,20.944   c3.232,0,6.48-0.768,9.368-2.208l23.8-11.896l-11.896,23.8c-1.448,2.88-2.216,6.128-2.216,9.36c0,11.544,9.4,20.944,20.944,20.944   h22.112c11.544,0,20.944-9.4,20.944-20.944c0-3.232-0.768-6.48-2.208-9.368l-11.896-23.8l23.8,11.896   c2.88,1.448,6.128,2.216,9.36,2.216c11.544,0,20.944-9.4,20.944-20.944V400h-16v3.056c0,3.496-4.064,5.976-7.16,4.424   l-25.136-12.568c0.12-0.968,0.296-1.92,0.296-2.912s-0.176-1.944-0.296-2.904l25.136-12.568c3.12-1.56,7.16,0.928,7.16,4.416V384   h16v-3.056c0-11.544-9.4-20.944-20.944-20.944C433.264,360,430.016,360.768,427.128,362.208z M385.44,400c-4.416,0-8-3.584-8-8   s3.584-8,8-8s8,3.584,8,8S389.856,400,385.44,400z M374.384,336h22.112c2.728,0,4.944,2.216,4.944,4.944   c0,0.768-0.176,1.528-0.52,2.208l-12.568,25.136c-0.968-0.112-1.92-0.288-2.912-0.288s-1.944,0.176-2.904,0.296l-12.568-25.136   c-0.352-0.68-0.528-1.448-0.528-2.216C369.44,338.216,371.656,336,374.384,336z M336.6,407.48c-3.096,1.576-7.16-0.928-7.16-4.424   v-22.112c0-3.504,4.048-5.992,7.16-4.424l25.136,12.568c-0.12,0.968-0.296,1.92-0.296,2.912s0.176,1.944,0.296,2.904L336.6,407.48z    M396.496,448h-22.112c-2.728,0-4.944-2.216-4.944-4.944c0-0.768,0.176-1.528,0.52-2.208l12.568-25.136   c0.968,0.112,1.92,0.288,2.912,0.288s1.944-0.176,2.904-0.296l12.568,25.136c0.352,0.68,0.528,1.448,0.528,2.216   C401.44,445.784,399.224,448,396.496,448z"/>
	<path style="fill:#333333;" d="M369.44,0v289.36c-32.232,5.008-59.616,24.776-74.912,52.256l-29.088-4.48v-8.288   c26.92-15.624,46.784-42.072,53.488-73.4c19.44-2.712,34.512-19.272,34.512-39.448c0-19.312-13.768-35.472-32-39.192V128h-16v24   h-16v16h16v64c0,52.936-43.064,96-96,96s-96-43.064-96-96v-64h32c24.224,0,47.496-10.168,64-27.616   c16.504,17.448,39.776,27.616,64,27.616v-16c-22.536,0-44.072-10.768-57.6-28.808l-6.4-8.52l-6.4,8.52   C189.512,141.232,167.976,152,145.44,152h-32v-24h-16v48.808c-18.232,3.72-32,19.872-32,39.192   c0,20.176,15.072,36.736,34.512,39.448c6.704,31.328,26.568,57.776,53.488,73.4v8.288l-41.312,6.36   c-36.952,5.688-68.048,32.424-79.192,68.12L6.56,496h378.88c57.344,0,104-46.656,104-104V0H369.44z M337.44,216   c0,10.536-6.872,19.416-16.336,22.632c0.128-2.208,0.336-4.392,0.336-6.632v-38.528C330.728,196.784,337.44,205.584,337.44,216z    M81.44,216c0-10.416,6.712-19.216,16-22.528V232c0,2.24,0.208,4.424,0.336,6.632C88.312,235.416,81.44,226.536,81.44,216z    M249.44,336.488V344c0,1.632-0.456,40-40,40c-38.592,0-39.968-35.928-40-40v-7.512c12.44,4.784,25.896,7.512,40,7.512   S237,341.272,249.44,336.488z M114.568,359.304l39.656-6.104c3.232,19.896,17.256,46.8,55.216,46.8s51.984-26.904,55.216-46.8   l23.064,3.552c-3.992,11.032-6.28,22.864-6.28,35.248c0,28.248,11.36,53.872,29.704,72.632c-1.152,4.816-2.976,9.408-5.752,13.568   l-1.2,1.8H114.688l-1.208-1.816c-13.064-19.592-7.376-47.68,12.952-63.936l5.728-4.584l-31.256-46.88   C105.336,361.28,109.864,360.024,114.568,359.304z M48.2,416.376c6.28-20.08,20.184-36.624,37.96-46.872l24.768,37.152   C90.832,426.504,84.944,456.328,96.24,480H28.32L48.2,416.376z M322.656,480c0.632-1.304,1.24-2.616,1.768-3.96   c1.904,1.384,3.848,2.704,5.84,3.96H322.656z M385.44,480c-48.52,0-88-39.48-88-88s39.48-88,88-88s88,39.48,88,88   S433.96,480,385.44,480z M425.376,296h32.064v-16h-56v9.36c-5.232-0.808-10.544-1.36-16-1.36V16h88v320.832   C462.048,318.728,445.312,304.328,425.376,296z"/>
	<rect x="401.44" y="56" style="fill:#333333;" width="56" height="16"/>
	<rect x="401.44" y="112" style="fill:#333333;" width="56" height="16"/>
	<rect x="401.44" y="168" style="fill:#333333;" width="56" height="16"/>
	<rect x="401.44" y="224" style="fill:#333333;" width="56" height="16"/>
</g>
<g>
</g>
<g>
</g>
<g>
</g>
<g>
</g>
<g>
</g>
<g>
</g>
<g>
</g>
<g>
</g>
<g>
</g>
<g>
</g>
<g>
</g>
<g>
</g>
<g>
</g>
<g>
</g>
<g>
</g>
</svg>
