<?xml version="1.0" encoding="iso-8859-1"?>
<!-- Generator: Adobe Illustrator 19.0.0, SVG Export Plug-In . SVG Version: 6.00 Build 0)  -->
<svg xmlns="http://www.w3.org/2000/svg" xmlns:xlink="http://www.w3.org/1999/xlink" version="1.1" id="Capa_1" x="0px" y="0px" viewBox="0 0 496 496" style="enable-background:new 0 0 496 496;" xml:space="preserve">
<g>
	<path style="fill:#FFA64D;" d="M341.44,358.528c-9.304-3.304-16-12.096-16-22.528c0-13.256,10.744-24,24-24   c6.152,0,11.76,2.312,16,6.112L364.72,320h1.848c2.912-11.16,11.632-19.936,22.808-22.848c0.016-0.384,0.064-0.768,0.064-1.152   c0-23.744-17.328-43.512-40-47.336V208h-9.128c0.664,2.568,1.128,5.224,1.128,8c0,17.672-14.328,32-32,32h-1.352   c-5.136,33.192-25.968,61.144-54.648,76.152V344l48.088,7.4c8.392,1.288,16.424,3.728,23.92,7.152l-0.184,1.464   c0.064,0,0.12-0.016,0.176-0.016h16V358.528z"/>
	<path style="fill:#FFA64D;" d="M157.44,324.152c-28.672-15.008-49.504-42.96-54.648-76.152h-1.352c-17.672,0-32-14.328-32-32   c0-2.776,0.464-5.432,1.128-8H61.44v40.664c-22.672,3.824-40,23.592-40,47.336c0,14.528,6.48,27.936,17.608,37   c-1.072,3.608-1.608,7.288-1.608,11c0,14.224,7.656,27.504,19.976,34.632l0.096,0.056c13.584-14.288,31.608-24.176,51.84-27.288   l48.088-7.4V324.152z"/>
</g>
<g>
	<path style="fill:#333333;" d="M472.808,352.336c2.872-4.792,4.632-10.344,4.632-16.336c0-17.648-14.352-32-32-32   c-4.888,0-9.608,1.232-13.928,3.336c-3.72-6.112-9.008-11.064-15.336-14.456c4.456-5.632,10.12-10.368,16.84-13.728l-7.16-14.312   c-10.904,5.448-19.744,13.608-26.016,23.4c-0.808-0.048-1.576-0.24-2.4-0.24c-14.464,0-27.048,7.792-34.072,19.336   c-4.32-2.104-9.04-3.336-13.928-3.336c-17.648,0-32,14.352-32,32c0,4.152,0.856,8.088,2.296,11.736   c-5.528-1.896-11.2-3.352-16.992-4.24l-41.304-6.36v-8.288c26.92-15.624,46.784-42.072,53.488-73.4   c19.44-2.712,34.512-19.272,34.512-39.448v-98.84c10.336-12.808,16-28.72,16-45.16c0-39.704-32.304-72-72-72   c-16.04,0-31.416,5.304-44,15.072C236.856,5.304,221.48,0,205.44,0s-31.416,5.304-44,15.072C148.856,5.304,133.48,0,117.44,0   c-39.696,0-72,32.296-72,72c0,16.44,5.664,32.352,16,45.16V216c0,20.176,15.072,36.736,34.512,39.448   c6.704,31.328,26.568,57.776,53.488,73.4v8.288l-41.304,6.352c-36.968,5.688-68.048,32.424-79.2,68.12L2.56,496h298.88h8h184v-72   v-24v-24C493.44,363.92,484.44,353.992,472.808,352.336z M445.44,320c8.824,0,16,7.176,16,16s-7.176,16-16,16h-16.208   c5.08-6.704,8.208-14.96,8.208-24c0-1.88-0.304-3.68-0.552-5.488C439.432,320.888,442.376,320,445.44,320z M392.32,304.576   c-1.848,6.12-2.88,12.56-2.88,19.2V328h16v-4.224c0-5.92,1.128-11.6,3.056-16.952c7.656,4.016,12.944,11.952,12.944,21.176   c0,13.232-10.768,24-24,24s-24-10.768-24-24C373.44,316.528,381.544,306.936,392.32,304.576z M349.44,320   c3.064,0,6.008,0.888,8.552,2.512c-0.248,1.808-0.552,3.608-0.552,5.488c0,9.04,3.128,17.296,8.208,24H349.44   c-8.824,0-16-7.176-16-16S340.616,320,349.44,320z M165.44,342.824v-6.336c12.44,4.784,25.896,7.512,40,7.512s27.56-2.728,40-7.512   v6.336c-1.368,4.16-9.768,25.176-40,25.176C175.216,368,166.832,347.08,165.44,342.824z M261.44,188c0,2.2-1.792,4-4,4s-4-1.8-4-4   s1.792-4,4-4S261.44,185.8,261.44,188z M93.44,160v16.808c-5.944,1.216-11.328,3.856-16,7.392V136h256v48.208   c-4.672-3.536-10.056-6.184-16-7.392V160H93.44z M157.44,188c0,2.2-1.792,4-4,4s-4-1.8-4-4s1.792-4,4-4S157.44,185.8,157.44,188z    M317.104,238.632c0.128-2.208,0.336-4.392,0.336-6.632v-38.528c9.288,3.312,16,12.112,16,22.528   C333.44,226.536,326.568,235.416,317.104,238.632z M117.44,16c14.352,0,28.016,5.472,38.496,15.408l5.504,5.216l5.504-5.216   C177.424,21.472,191.088,16,205.44,16s28.016,5.472,38.496,15.408l5.504,5.216l5.504-5.216C265.424,21.472,279.088,16,293.44,16   c30.88,0,56,25.128,56,56c0,13.568-4.976,26.696-14,36.944l-2,2.264V120h-256v-8.792l-2-2.264c-9.024-10.248-14-23.376-14-36.944   C61.44,41.128,86.56,16,117.44,16z M77.44,216c0-10.416,6.712-19.216,16-22.528V232c0,2.24,0.208,4.424,0.336,6.632   C84.312,235.416,77.44,226.536,77.44,216z M109.44,232v-56h28.104c-2.544,3.352-4.104,7.48-4.104,12c0,11.032,8.976,20,20,20   s20-8.968,20-20c0-4.52-1.56-8.648-4.104-12h72.2c-2.536,3.352-4.096,7.48-4.096,12c0,11.032,8.976,20,20,20s20-8.968,20-20   c0-4.52-1.56-8.648-4.104-12h28.104v56c0,52.936-43.064,96-96,96S109.44,284.936,109.44,232z M149.44,480v-16h-16v16h-30.936   l6.872-55.008l-15.872-1.984L86.376,480H24.32l19.88-63.624c9.336-29.896,35.392-52.304,66.36-57.072l41.64-6.408   c3.68,7.864,10.864,17.096,22.264,23.472L133.44,403.72V448h16v-35.72l43.992-29.328c3.744,0.632,7.696,1.048,12.008,1.048   c30.816,0,46.944-17.664,53.232-31.104l16.912,2.6C269.832,368.712,251.36,400,205.44,400v16c59.24,0,81.12-44.688,86.328-58.008   l8.552,1.312c2.272,0.344,4.472,0.976,6.696,1.504c-3.432,4.152-5.576,9.4-5.576,15.192v8v12v84H149.44z M477.44,424   c0,4.416-3.592,8-8,8s-8-3.584-8-8v-20c0-11.032-8.976-20-20-20s-20,8.968-20,20v12c0,4.416-3.592,8-8,8s-8-3.584-8-8   c0-13.232-10.768-24-24-24s-24,10.768-24,24v8h16v-8c0-4.416,3.592-8,8-8s8,3.584,8,8c0,13.232,10.768,24,24,24s24-10.768,24-24   v-12c0-2.2,1.792-4,4-4s4,1.8,4,4v20c0,13.232,10.768,24,24,24c2.816,0,5.488-0.576,8-1.472V480h-160v-64.408   c1.296,0.264,2.632,0.408,4,0.408c2.208,0,4,1.8,4,4v28c0,13.232,10.768,24,24,24s24-10.768,24-24v-8h-16v8c0,4.416-3.592,8-8,8   s-8-3.584-8-8v-28c0-11.032-8.976-20-20-20c-2.208,0-4-1.8-4-4v-12v-8c0-4.416,3.592-8,8-8h144c4.408,0,8,3.584,8,8v24V424z"/>
	<path style="fill:#333333;" d="M269.44,232h-16c0,26.472-21.528,48-48,48s-48-21.528-48-48h-16c0,35.288,28.712,64,64,64   S269.44,267.288,269.44,232z"/>
	<rect x="165.44" y="416" style="fill:#333333;" width="16" height="16"/>
	<rect x="165.44" y="448" style="fill:#333333;" width="16" height="16"/>
</g>
<g>
</g>
<g>
</g>
<g>
</g>
<g>
</g>
<g>
</g>
<g>
</g>
<g>
</g>
<g>
</g>
<g>
</g>
<g>
</g>
<g>
</g>
<g>
</g>
<g>
</g>
<g>
</g>
<g>
</g>
</svg>
