<?xml version="1.0" encoding="iso-8859-1"?>
<!-- Generator: Adobe Illustrator 19.0.0, SVG Export Plug-In . SVG Version: 6.00 Build 0)  -->
<svg xmlns="http://www.w3.org/2000/svg" xmlns:xlink="http://www.w3.org/1999/xlink" version="1.1" id="Capa_1" x="0px" y="0px" viewBox="0 0 496 496" style="enable-background:new 0 0 496 496;" xml:space="preserve">
<g>
	<path style="fill:#FFA64D;" d="M309.44,248h-1.352c-5.136,33.192-25.968,61.144-54.648,76.152V344l57.368,9.56   c2.48-5.624,8.088-9.56,14.632-9.56h24V144c0-79.4-64.6-144-144-144s-144,64.6-144,144v224l9.328-0.776   c11.296-8.016,24.368-13.64,38.584-15.824l48.088-7.4v-19.848c-28.672-15.008-49.504-42.96-54.648-76.152h-1.352   c-17.672,0-32-14.328-32-32s14.328-32,32-32v-32h26.744c28.976,0,56.768-11.512,77.256-32c20.488,20.488,48.28,32,77.256,32h26.744   v32c17.672,0,32,14.328,32,32S327.112,248,309.44,248z"/>
	<circle style="fill:#FFA64D;" cx="389.44" cy="416" r="24"/>
</g>
<g>
	<path style="fill:#333333;" d="M469.44,336h-144c-6.928,0-13.128,2.992-17.512,7.704l-46.488-6.648v-8.216   c26.92-15.624,46.784-42.072,53.488-73.4c19.44-2.704,34.512-19.264,34.512-39.44c0-19.312-13.768-35.472-32-39.192V128h-16v16   h-18.744c-27.048,0-52.472-10.528-71.6-29.656l-5.656-5.656l-5.656,5.656C180.656,133.472,155.232,144,128.184,144H109.44v-16h-16   v48.808c-18.232,3.72-32,19.88-32,39.192c0,20.176,15.072,36.736,34.512,39.448c6.704,31.328,26.568,57.776,53.488,73.4v8.288   l-41.304,6.352c-36.968,5.688-68.048,32.424-79.2,68.12L2.56,496h162.88h80h80h144c13.232,0,24-10.768,24-24v-17.056V360   C493.44,346.768,482.672,336,469.44,336z M477.44,360v65.056l-16-10.672l-16,10.672V352h24C473.848,352,477.44,355.584,477.44,360z    M302.912,480H285.44v-25.472c9.288-3.312,16-12.112,16-22.528s-6.712-19.216-16-22.528v-52.816l16.104,2.304   c-0.016,0.352-0.104,0.68-0.104,1.04v72v40C301.44,474.816,302.016,477.488,302.912,480z M277.44,424c4.408,0,8,3.584,8,8   s-3.592,8-8,8s-8-3.584-8-8S273.032,424,277.44,424z M333.44,216c0,10.536-6.872,19.416-16.336,22.632   c0.128-2.208,0.336-4.392,0.336-6.632v-38.528C326.728,196.784,333.44,205.584,333.44,216z M77.44,216   c0-10.416,6.712-19.216,16-22.528V232c0,2.24,0.208,4.424,0.336,6.632C84.312,235.416,77.44,226.536,77.44,216z M109.44,232v-72   h18.744c28.72,0,55.864-10.256,77.256-29.04c21.384,18.784,48.528,29.04,77.256,29.04h18.744v72c0,52.936-43.064,96-96,96   S109.44,284.936,109.44,232z M205.44,344c14.104,0,27.56-2.728,40-7.512v3.76l-40,33.336l-40-33.336v-3.76   C177.88,341.272,191.336,344,205.44,344z M133.44,440c-4.408,0-8-3.584-8-8s3.592-8,8-8s8,3.584,8,8S137.848,440,133.44,440z    M110.568,359.304l14.872-2.288v52.456c-9.288,3.312-16,12.112-16,22.528s6.712,19.216,16,22.528V480h-24V361.392   C104.44,360.568,107.456,359.784,110.568,359.304z M44.208,416.376c6.656-21.304,21.872-38.664,41.232-48.688V480H24.32   L44.208,416.376z M181.44,480v-16h-16v16h-24v-25.472c9.288-3.312,16-12.112,16-22.528s-6.712-19.216-16-22.528v-54.92   l13.648-2.096l10.352,8.624V448h16v-73.584l24,20l24-20V480H181.44z M245.44,361.08l10.392-8.656l13.608,1.944v55.104   c-9.288,3.312-16,12.112-16,22.528s6.712,19.216,16,22.528V480h-24V361.08z M477.44,472c0,4.416-3.592,8-8,8h-144   c-4.408,0-8-3.584-8-8V360c0-4.416,3.592-8,8-8h104v102.944l32-21.328l16,10.664V472z"/>
	<path style="fill:#333333;" d="M173.44,188c0-11.024-8.976-20-20-20s-20,8.976-20,20s8.976,20,20,20S173.44,199.024,173.44,188z    M149.44,188c0-2.208,1.792-4,4-4s4,1.792,4,4s-1.792,4-4,4S149.44,190.208,149.44,188z"/>
	<path style="fill:#333333;" d="M257.44,208c11.024,0,20-8.976,20-20s-8.976-20-20-20s-20,8.976-20,20S246.416,208,257.44,208z    M257.44,184c2.208,0,4,1.792,4,4s-1.792,4-4,4s-4-1.792-4-4S255.232,184,257.44,184z"/>
	<path style="fill:#333333;" d="M269.44,232h-16c0,26.472-21.528,48-48,48s-48-21.528-48-48h-16c0,35.288,28.712,64,64,64   S269.44,267.288,269.44,232z"/>
	<rect x="197.44" y="408" style="fill:#333333;" width="16" height="16"/>
	<rect x="197.44" y="448" style="fill:#333333;" width="16" height="16"/>
</g>
<g>
</g>
<g>
</g>
<g>
</g>
<g>
</g>
<g>
</g>
<g>
</g>
<g>
</g>
<g>
</g>
<g>
</g>
<g>
</g>
<g>
</g>
<g>
</g>
<g>
</g>
<g>
</g>
<g>
</g>
</svg>
