<?xml version="1.0" encoding="iso-8859-1"?>
<!-- Generator: Adobe Illustrator 19.0.0, SVG Export Plug-In . SVG Version: 6.00 Build 0)  -->
<svg xmlns="http://www.w3.org/2000/svg" xmlns:xlink="http://www.w3.org/1999/xlink" version="1.1" id="Capa_1" x="0px" y="0px" viewBox="0 0 496 496" style="enable-background:new 0 0 496 496;" xml:space="preserve">
<g>
	<path style="fill:#FFA64D;" d="M205.44,0c-79.4,0-144,64.6-144,144v72h8c0-17.672,14.328-32,32-32v-24c0-17.672,14.328-32,32-32   h144c17.672,0,32,14.328,32,32v24c17.672,0,32,14.328,32,32h8v-72C349.44,64.6,284.84,0,205.44,0z"/>
	<path style="fill:#FFA64D;" d="M453.44,336h-192c-8.84,0-16,7.16-16,16v40c0,26.512,21.488,48,48,48h24.808   c3.704-18.256,19.84-32,39.192-32s35.488,13.744,39.192,32h24.808c26.512,0,48-21.488,48-48v-40   C469.44,343.16,462.28,336,453.44,336z"/>
</g>
<g>
	<path style="fill:#333333;" d="M173.44,188c0-11.032-8.968-20-20-20s-20,8.968-20,20s8.968,20,20,20S173.44,199.032,173.44,188z    M149.44,188c0-2.2,1.8-4,4-4s4,1.8,4,4s-1.8,4-4,4S149.44,190.2,149.44,188z"/>
	<path style="fill:#333333;" d="M257.44,208c11.032,0,20-8.968,20-20s-8.968-20-20-20s-20,8.968-20,20S246.408,208,257.44,208z    M257.44,184c2.2,0,4,1.8,4,4s-1.8,4-4,4s-4-1.8-4-4S255.24,184,257.44,184z"/>
	<path style="fill:#333333;" d="M269.44,232h-16c0,26.472-21.528,48-48,48s-48-21.528-48-48h-16c0,35.288,28.712,64,64,64   S269.44,267.288,269.44,232z"/>
	<path style="fill:#333333;" d="M357.44,424c-13.232,0-24,10.768-24,24s10.768,24,24,24s24-10.768,24-24S370.672,424,357.44,424z    M357.44,456c-4.416,0-8-3.584-8-8s3.584-8,8-8s8,3.584,8,8S361.856,456,357.44,456z"/>
	<path style="fill:#333333;" d="M493.44,176h-80v48h16v104H262.832c26.2-15.728,45.512-41.768,52.096-72.552   c19.44-2.712,34.512-19.272,34.512-39.448c0-19.312-13.768-35.472-32-39.192V160c0-22.056-17.944-40-40-40h-144   c-22.056,0-40,17.944-40,40v16.808c-18.232,3.72-32,19.88-32,39.192c0,20.176,15.072,36.736,34.512,39.448   c6.704,31.328,26.568,57.776,53.488,73.4v8.288l-41.312,6.352c-36.952,5.688-68.048,32.424-79.192,68.12L2.56,496h354.88   c26.472,0,48-21.528,48-48h16c30.872,0,56-25.128,56-56v-32v-8V224h16V176z M333.44,216c0,10.536-6.872,19.416-16.336,22.632   c0.128-2.208,0.336-4.392,0.336-6.632v-38.528C326.728,196.784,333.44,205.584,333.44,216z M77.44,216   c0-10.416,6.712-19.216,16-22.528V232c0,2.24,0.208,4.424,0.336,6.632C84.312,235.416,77.44,226.536,77.44,216z M237.44,392h-8v-24   h8V392z M213.44,352v15.432c-2.56,0.352-5.216,0.568-8,0.568c-30.208,0-38.6-20.904-40-25.168v-6.344   c12.44,4.784,25.896,7.512,40,7.512c12.944,0,25.328-2.32,36.904-6.376c-3.04,4.016-4.904,8.96-4.904,14.376H213.44z M109.44,232   v-72c0-13.232,10.768-24,24-24h144c13.232,0,24,10.768,24,24v72c0,52.936-43.064,96-96,96S109.44,284.936,109.44,232z    M44.2,416.376c9.352-29.896,35.4-52.304,66.368-57.072l41.64-6.408C158.496,366.336,174.624,384,205.44,384   c2.744,0,5.392-0.208,8-0.48V408h26.36c6.904,23.096,28.328,40,53.64,40h16c0,12.304,4.688,23.496,12.32,32H102.504l6.872-55.008   l-15.872-1.984L86.376,480H24.32L44.2,416.376z M357.44,480c-17.648,0-32-14.352-32-32s14.352-32,32-32s32,14.352,32,32   S375.088,480,357.44,480z M421.44,432h-18.8c-6.608-18.616-24.344-32-45.2-32s-38.592,13.384-45.2,32h-18.8   c-22.056,0-40-17.944-40-40v-16h176v-16h-176v-8c0-4.416,3.584-8,8-8h192c4.416,0,8,3.584,8,8v8h-16v16h16v16   C461.44,414.056,443.496,432,421.44,432z M461.44,329.472c-2.512-0.896-5.184-1.472-8-1.472h-8V224h16V329.472z M477.44,208h-48   v-16h48V208z"/>
</g>
<g>
</g>
<g>
</g>
<g>
</g>
<g>
</g>
<g>
</g>
<g>
</g>
<g>
</g>
<g>
</g>
<g>
</g>
<g>
</g>
<g>
</g>
<g>
</g>
<g>
</g>
<g>
</g>
<g>
</g>
</svg>
