<?xml version="1.0" encoding="iso-8859-1"?>
<!-- Generator: Adobe Illustrator 19.0.0, SVG Export Plug-In . SVG Version: 6.00 Build 0)  -->
<svg xmlns="http://www.w3.org/2000/svg" xmlns:xlink="http://www.w3.org/1999/xlink" version="1.1" id="Capa_1" x="0px" y="0px" viewBox="0 0 496 496" style="enable-background:new 0 0 496 496;" xml:space="preserve">
<path style="fill:#FFA64D;" d="M442.776,320c-13.432,0-26.072,6.32-34.136,17.064L397.44,352l-11.2-14.936  c-0.376-0.504-0.816-0.952-1.216-1.432l-0.856-6.304l-9.832-11.056c-16.056-18.072-24.896-41.336-24.896-65.496V122.592  c0-32.392-19.832-61.176-49.752-72.84C288.024,19.832,259.24,0,226.848,0H205.44c-79.4,0-144,64.6-144,144v108.776  c0,30.112-13.488,58.168-37,76.976l-4.008,3.208l1.248,4.976c2.968,11.864,14.856,33.2,39.312,37.312  c13.136-12.408,29.8-20.992,48.36-23.848l48.088-7.4v-19.848c-28.672-15.008-49.504-42.96-54.648-76.152h-1.352  c-17.672,0-32-14.328-32-32s14.328-32,32-32v-16v-8c0-22.088,17.912-40,40-40h83.152c18.808,0,37.192-5.568,52.848-16  c19.608,9.808,32,29.848,32,51.776V168v16c17.672,0,32,14.328,32,32s-14.328,32-32,32h-1.352  c-5.136,33.192-25.968,61.144-54.648,76.152V344l56.88,10.04c-0.576,2.784-0.88,5.672-0.88,8.624c0,24.696,4.32,49.208,12.76,72.416  l15.416,42.4c2.296,6.32,8.296,10.52,15.008,10.52c7.488,0,13.968-5.2,15.592-12.504l9.752-43.872  C380,422.496,388.088,416,397.44,416s17.44,6.496,19.472,15.616l9.752,43.872C428.288,482.8,434.768,488,442.256,488  c6.72,0,12.712-4.2,15.008-10.512l15.416-42.4c8.44-23.216,12.76-47.72,12.76-72.424C485.44,339.104,466.336,320,442.776,320z"/>
<g>
	<path style="fill:#333333;" d="M442.776,312c-15.864,0-31.024,7.576-40.528,20.264l-4.808,6.408l-4.808-6.4   C383.128,319.576,367.968,312,352.104,312c-21.328,0-39.576,13.256-47.04,31.952c-0.776-0.136-1.528-0.344-2.312-0.464   l-41.312-6.352v-8.288c26.92-15.624,46.784-42.072,53.488-73.4c19.44-2.712,34.512-19.272,34.512-39.448   c0-19.312-13.768-35.472-32-39.192v-21.032c0-25.12-13.952-47.696-36.424-58.928l-4.152-2.08L273,97.344   C258.616,106.928,241.88,112,224.6,112h-83.16c-26.472,0-48,21.528-48,48v16.808c-18.232,3.72-32,19.88-32,39.192   c0,20.176,15.072,36.736,34.512,39.448c6.704,31.328,26.568,57.776,53.488,73.4v8.288l-41.312,6.352   c-36.952,5.688-68.048,32.424-79.192,68.12L2.56,496h346.88v-0.248c1.048,0.144,2.112,0.248,3.184,0.248   c11.32,0,20.944-7.72,23.408-18.776l9.752-43.872C387,427.84,391.8,424,397.44,424s10.44,3.84,11.656,9.352l9.752,43.872   C421.304,488.28,430.936,496,442.256,496c10.048,0,19.104-6.344,22.52-15.784l15.424-42.4c8.784-24.16,13.24-49.448,13.24-75.152   C493.44,334.728,470.712,312,442.776,312z M137.6,355.144l14.776-2.272l37.864,94.656L141.968,429.6l29.792-22.344l-44.36-26.608   L137.6,355.144z M213.44,469.416l26.968-10.784l-5.936-14.856L219.8,449.64l38.704-96.768l14.776,2.272l10.2,25.504l-44.36,26.608   l30.136,22.6l-18.784,7.504l5.936,14.856l45.216-18.088l-33.864-25.4l35.264-21.168c1.4,12.288,3.808,24.416,7.264,36.32   l-8.792,1.096l6.88,55.024H213.44V469.416z M321.608,456.872L330.016,480h-5.52L321.608,456.872z M301.6,359.56   c-0.064,1.032-0.16,2.056-0.16,3.104c0,7.776,0.544,15.496,1.36,23.176l-11.152-27.872l8.664,1.336   C300.744,359.376,301.168,359.488,301.6,359.56z M333.44,216c0,10.536-6.872,19.416-16.336,22.632   c0.128-2.208,0.336-4.392,0.336-6.632v-38.528C326.728,196.784,333.44,205.584,333.44,216z M141.44,128h83.16   c18.808,0,37.064-5.072,53.12-14.712c14.736,9.04,23.72,24.944,23.72,42.488v74.64l-62.832-11.432   c-21.864-3.952-44.456-3.96-66.336,0.008l-62.832,11.424V160C109.44,142.352,123.792,128,141.44,128z M77.44,216   c0-10.416,6.712-19.216,16-22.528V232c0,2.24,0.208,4.424,0.336,6.632C84.312,235.416,77.44,226.536,77.44,216z M110.648,246.456   l64.488-11.72c19.992-3.624,40.64-3.616,60.616-0.008l64.48,11.728C293.224,292.536,253.456,328,205.44,328   S117.656,292.536,110.648,246.456z M205.44,344c14.104,0,27.56-2.728,40-7.512v5.968l-40,100l-40-100v-5.968   C177.88,341.272,191.336,344,205.44,344z M44.2,416.376c9.352-29.896,35.4-52.304,66.368-57.072l8.664-1.336l-11.752,29.384   l35.64,21.392L108.912,434.4l88.528,32.88V480h-94.936l6.872-55.008l-15.872-1.984L86.376,480H24.32L44.2,416.376z    M465.168,432.352l-15.432,42.408c-1.128,3.128-4.136,5.24-7.48,5.24c-3.704,0-6.976-2.624-7.784-6.24l-9.752-43.872   C421.864,417,410.64,408,397.44,408s-24.424,9-27.28,21.88l-9.752,43.872c-0.808,3.616-4.08,6.24-7.784,6.24   c-3.344,0-6.352-2.112-7.496-5.248l-15.424-42.4c-8.128-22.4-12.264-45.848-12.264-69.68c0-19.12,15.544-34.664,34.664-34.664   c10.856,0,21.224,5.184,27.736,13.872l17.6,23.456l17.6-23.464c6.512-8.68,16.88-13.864,27.736-13.864   c19.12,0,34.664,15.544,34.664,34.664C477.44,386.496,473.304,409.944,465.168,432.352z"/>
	<path style="fill:#333333;" d="M153.44,200c11.032,0,20-8.968,20-20s-8.968-20-20-20s-20,8.968-20,20S142.408,200,153.44,200z    M153.44,176c2.2,0,4,1.8,4,4s-1.8,4-4,4s-4-1.8-4-4S151.24,176,153.44,176z"/>
	<path style="fill:#333333;" d="M257.44,200c11.032,0,20-8.968,20-20s-8.968-20-20-20s-20,8.968-20,20S246.408,200,257.44,200z    M257.44,176c2.2,0,4,1.8,4,4s-1.8,4-4,4s-4-1.8-4-4S255.24,176,257.44,176z"/>
</g>
<g>
</g>
<g>
</g>
<g>
</g>
<g>
</g>
<g>
</g>
<g>
</g>
<g>
</g>
<g>
</g>
<g>
</g>
<g>
</g>
<g>
</g>
<g>
</g>
<g>
</g>
<g>
</g>
<g>
</g>
</svg>
