<?xml version="1.0" encoding="iso-8859-1"?>
<!-- Generator: Adobe Illustrator 19.0.0, SVG Export Plug-In . SVG Version: 6.00 Build 0)  -->
<svg xmlns="http://www.w3.org/2000/svg" xmlns:xlink="http://www.w3.org/1999/xlink" version="1.1" id="Capa_1" x="0px" y="0px" viewBox="0 0 496 496" style="enable-background:new 0 0 496 496;" xml:space="preserve">
<g>
	<path style="fill:#FFA64D;" d="M381.44,336v128c0,13.256,10.744,24,24,24s24-10.744,24-24V336H381.44z"/>
	<path style="fill:#FFA64D;" d="M341.44,128v-24c0-53.016-42.984-96-96-96h-80c-53.016,0-96,42.984-96,96v24H341.44z"/>
</g>
<g>
	<path style="fill:#333333;" d="M405.44,320c30.88,0,56-25.12,56-56s-25.12-56-56-56s-56,25.12-56,56S374.56,320,405.44,320z    M405.44,224c22.056,0,40,17.944,40,40s-17.944,40-40,40s-40-17.944-40-40S383.384,224,405.44,224z"/>
	<path style="fill:#333333;" d="M493.44,264c0-48.52-39.48-88-88-88c-21.256,0-40.776,7.576-56,20.168V136v-8v-24   c0-57.344-46.656-104-104-104h-80c-57.344,0-104,46.656-104,104v24v8v80c0,20.176,15.072,36.736,34.512,39.448   c6.704,31.328,26.568,57.776,53.488,73.4v8.288l-41.304,6.352c-36.96,5.688-68.048,32.424-79.2,68.112L2.56,496h394.88v-1.136   c2.568,0.664,5.224,1.136,8,1.136c17.648,0,32-14.352,32-32v-88h16v-16h-16v-14.112C470.168,333.048,493.44,301.224,493.44,264z    M405.44,192c39.696,0,72,32.304,72,72s-32.304,72-72,72s-72-32.304-72-72c0-6.192,0.872-12.176,2.352-17.92   c0.04-0.032,0.08-0.056,0.12-0.088l-0.072-0.08C343.888,214.952,372,192,405.44,192z M114.12,451.624l83.32,11.36V480h-92.664   l4.304-12.12L114.12,451.624z M213.44,446.832V404.88l12.192,20.32l18.424-4.608c14.4-3.6,26.856-12.384,35.088-24.736   c3.792-5.688,6.56-11.944,8.216-18.576l4.808-19.232l8.144,1.256c30.968,4.768,57.016,27.168,66.36,57.072l2.864,9.168   L213.44,446.832z M271.84,373.4c-1.216,4.856-3.232,9.432-6.008,13.592c-6.016,9.024-15.136,15.448-25.664,18.08l-6.928,1.728   l-14.488-24.144c22.192-4.224,34.608-18.432,39.912-29.76l17.616,2.712L271.84,373.4z M245.44,342.824   c-1.368,4.16-9.768,25.176-40,25.176c-30.224,0-38.608-20.92-40-25.176v-6.336c12.44,4.784,25.896,7.512,40,7.512   s27.56-2.728,40-7.512V342.824z M192.12,382.656L177.632,406.8l-6.928-1.728c-10.528-2.632-19.64-9.056-25.664-18.08   c-2.776-4.168-4.792-8.736-6.008-13.592l-4.448-17.792l17.616-2.712C157.504,364.224,169.928,378.432,192.12,382.656z    M213.44,462.984l83.32-11.36l5.144,16.568l4.2,11.808H213.44V462.984z M317.08,463.144l-4.248-13.712l60.608-8.264V464   c0,5.856,1.696,11.272,4.448,16H323.08L317.08,463.144z M373.44,392.192c-3.328-5.792-7.216-11.216-11.6-16.192h11.6V392.192z    M357.44,360v11.336c-14.624-14.592-33.704-24.616-54.696-27.848l-41.304-6.352v-8.288c26.904-15.616,46.76-42.04,53.472-73.344   c1.008-0.136,2-0.288,2.984-0.504c-0.304,2.96-0.456,5.96-0.456,9c0,37.224,23.272,69.048,56,81.888V360H357.44z M213.44,184v16   h-16v-16h-80v16h-8v-38.816c22.04,8.104,53.072,14.816,96,14.816s73.96-6.712,96-14.816V200h-8v-16H213.44z M277.44,200v8   c0,13.232-10.768,24-24,24s-24-10.768-24-24v-8H277.44z M181.44,200v8c0,13.232-10.768,24-24,24s-24-10.768-24-24v-8H181.44z    M317.808,136c-18.472,10.672-53.264,24-112.368,24s-93.896-13.328-112.368-24H317.808z M317.44,232v-38.528   c8.632,3.08,14.928,10.92,15.784,20.376c-4.808,6.896-8.632,14.512-11.32,22.648c-1.512,0.92-3.128,1.616-4.8,2.176   C317.232,236.456,317.44,234.256,317.44,232z M333.44,184.208c-4.672-3.536-10.056-6.184-16-7.392v-22.384   c6.496-3.192,11.76-6.352,16-9.256V184.208z M93.44,154.424v22.384c-5.944,1.216-11.328,3.856-16,7.392v-39.032   C81.68,148.08,86.944,151.24,93.44,154.424z M333.44,104v16h-48.312c-0.288-5.784-0.768-11.56-1.656-17.248l-15.808,2.488   c0.768,4.872,1.192,9.816,1.464,14.76H141.832c1.936-36.112,16.752-69.824,42.52-95.6l8.4-8.4h25.376l8.4,8.4   c18.152,18.152,31.264,40.856,37.912,65.664l15.456-4.152C272.864,59.696,259.256,35.64,240.568,16h4.872   C293.96,16,333.44,55.48,333.44,104z M77.44,104c0-48.52,39.48-88,88-88h4.96c-27.096,28.408-42.68,64.92-44.568,104H77.44V104z    M77.44,216c0-10.416,6.712-19.216,16-22.528V232c0,2.24,0.208,4.424,0.336,6.632C84.312,235.416,77.44,226.536,77.44,216z    M109.44,232v-16h8.808c3.72,18.232,19.872,32,39.192,32s35.472-13.768,39.192-32h17.616c3.72,18.232,19.872,32,39.192,32   s35.472-13.768,39.192-32h8.808v16c0,52.936-43.064,96-96,96S109.44,284.936,109.44,232z M110.568,359.304l8.144-1.256   l4.808,19.232c1.664,6.64,4.424,12.888,8.216,18.584c8.232,12.344,20.688,21.128,35.088,24.728l18.424,4.608l12.192-20.32v41.952   l-156.104-21.28l2.864-9.168C53.552,386.472,79.6,364.072,110.568,359.304z M36.496,441.04l61.552,8.392l-4.152,13.4L87.792,480   H24.32L36.496,441.04z M421.44,464c0,8.824-7.176,16-16,16s-16-7.176-16-16v-88h32V464z M421.44,360h-32v-9.528   c5.2,0.96,10.528,1.528,16,1.528s10.8-0.568,16-1.528V360z"/>
	<path style="fill:#333333;" d="M253.032,274.528l-15.176-5.064c-0.072,0.192-6.48,18.536-32.416,18.536   c-25.504,0-32.168-17.848-32.44-18.608l-15.152,5.136C158.256,275.736,168.104,304,205.44,304S252.624,275.736,253.032,274.528z"/>
</g>
<g>
</g>
<g>
</g>
<g>
</g>
<g>
</g>
<g>
</g>
<g>
</g>
<g>
</g>
<g>
</g>
<g>
</g>
<g>
</g>
<g>
</g>
<g>
</g>
<g>
</g>
<g>
</g>
<g>
</g>
</svg>
