<?xml version="1.0" encoding="iso-8859-1"?>
<!-- Generator: Adobe Illustrator 19.0.0, SVG Export Plug-In . SVG Version: 6.00 Build 0)  -->
<svg xmlns="http://www.w3.org/2000/svg" xmlns:xlink="http://www.w3.org/1999/xlink" version="1.1" id="Capa_1" x="0px" y="0px" viewBox="0 0 496 496" style="enable-background:new 0 0 496 496;" xml:space="preserve">
<g>
	<path style="fill:#FFA64D;" d="M381.44,176c0-12.064-4.624-23.6-12.856-32.448c4.216-11.336,4.08-23.76-0.536-34.904   s-13.304-20.04-24.296-25.064c-0.44-12.08-5.32-23.504-13.848-32.04c-8.536-8.528-19.96-13.416-32.048-13.848   c-5.024-10.992-13.904-19.68-25.056-24.296c-11.144-4.616-23.56-4.768-34.904-0.536C229.04,4.624,217.504,0,205.44,0   s-23.6,4.624-32.448,12.856c-11.344-4.224-23.76-4.08-34.904,0.536C126.936,18,118.056,26.696,113.032,37.688   c-12.08,0.44-23.504,5.32-32.048,13.848c-8.528,8.536-13.416,19.96-13.848,32.04C56.144,88.6,47.456,97.488,42.84,108.64   c-4.616,11.144-4.76,23.568-0.536,34.904C34.064,152.4,29.44,163.936,29.44,176s4.624,23.6,12.856,32.448   c-4.216,11.336-4.08,23.76,0.536,34.904c4.616,11.144,13.304,20.04,24.296,25.064c0.44,12.08,5.32,23.504,13.848,32.04   c9.032,9.024,21.256,14.048,33.944,14.048c1.008,0,2.008-0.032,3.016-0.096h1.368c-1.12-3.28-1.864-6.744-1.864-10.408   c0-5.856,1.616-11.296,4.368-15.992h-4.016c-7.616-11.896-12.856-25.456-15.104-40.008h-1.248c-17.672,0-32-14.328-32-32   s14.328-32,32-32v-16v-1.128c2.568,0.664,5.224,1.128,8,1.128c13.968,0,25.72-9.008,30.088-21.48   c5.112,3.456,11.272,5.48,17.912,5.48c11.696,0,21.816-6.336,27.4-15.704c5.576,4.736,12.712,7.704,20.6,7.704   s15.024-2.968,20.6-7.704c5.584,9.368,15.704,15.704,27.4,15.704c6.64,0,12.8-2.024,17.912-5.48   c4.368,12.472,16.12,21.48,30.088,21.48c2.776,0,5.432-0.464,8-1.128V168v16c17.672,0,32,14.328,32,32s-14.328,32-32,32h-1.248   c-2.248,14.544-7.48,28.104-15.096,40h-4.024c2.744,4.696,4.368,10.144,4.368,16c0,3.664-0.744,7.128-1.88,10.408h1.368   c13.704,0.864,27.216-4.208,36.96-13.952c8.528-8.536,13.416-19.96,13.848-32.04c10.992-5.024,19.68-13.912,24.296-25.064   c4.616-11.144,4.76-23.568,0.536-34.904C376.816,199.6,381.44,188.064,381.44,176z"/>
	<rect x="317.44" y="424" style="fill:#FFA64D;" width="144" height="40"/>
</g>
<g>
	<path style="fill:#333333;" d="M153.44,208c11.024,0,20-8.968,20-20s-8.976-20-20-20s-20,8.968-20,20S142.416,208,153.44,208z    M153.44,184c2.208,0,4,1.8,4,4s-1.792,4-4,4s-4-1.8-4-4S151.232,184,153.44,184z"/>
	<path style="fill:#333333;" d="M257.44,208c11.024,0,20-8.968,20-20s-8.976-20-20-20s-20,8.968-20,20S246.416,208,257.44,208z    M257.44,184c2.208,0,4,1.8,4,4s-1.792,4-4,4s-4-1.8-4-4S255.232,184,257.44,184z"/>
	<rect x="117.44" y="440" style="fill:#333333;" width="64" height="16"/>
	<path style="fill:#333333;" d="M493.44,253.752l-25.992,6.496l-0.384-0.216l-0.208,0.368l-165.584,41.392   c-0.184-3.304-0.68-6.536-1.632-9.6l0.192,0.12c7.264-11.336,12.352-23.824,15.136-36.872c19.424-2.72,34.472-19.28,34.472-39.44   c0-19.312-13.768-35.472-32-39.192v-20.272l-10,2.584c-2.32,0.6-4.224,0.88-6,0.88c-10.104,0-19.16-6.488-22.536-16.128   l-3.432-9.808l-8.6,5.824c-3.976,2.688-8.616,4.112-13.432,4.112c-8.448,0-16.128-4.416-20.528-11.8l-4.832-8.12l-7.208,6.12   c-3.128,2.64-8.336,5.8-15.432,5.8s-12.304-3.16-15.424-5.808l-7.216-6.112l-4.832,8.128c-4.4,7.376-12.08,11.792-20.528,11.792   c-4.816,0-9.456-1.424-13.432-4.112l-8.6-5.824l-3.432,9.808C128.6,153.512,119.544,160,109.44,160c-1.776,0-3.68-0.28-6-0.872   l-10-2.592v20.272c-18.232,3.72-32,19.88-32,39.192c0,20.16,15.048,36.72,34.472,39.44c2.784,13.048,7.872,25.536,15.136,36.88   l0.176-0.112c-1.152,3.744-1.784,7.712-1.784,11.792c0,15.768,9.256,29.312,22.552,35.824l-23.856,3.672   c-36.968,5.688-68.048,32.424-79.2,68.12L2.56,496h282.88h8h200V352h-135l135-33.752V253.752z M333.44,216   c0,10.504-6.824,19.352-16.232,22.6c0.128-2.192,0.232-4.392,0.232-6.6v-38.528C326.728,196.784,333.44,205.584,333.44,216z    M77.44,216c0-10.416,6.712-19.216,16-22.528V232c0,2.208,0.104,4.408,0.232,6.6C84.264,235.352,77.44,226.504,77.44,216z    M332.352,342.024l21-36.752l19.832-4.96l-21,36.752L332.352,342.024z M372.792,368l-19.2,24h-19.504l19.2-24H372.792z    M414.088,392l19.2-24h19.504l-19.2,24H414.088z M393.592,392h-19.504l19.2-24h19.504L393.592,392z M313.592,392H301.44v-24h31.352   L313.592,392z M285.44,340.832l-6.552-1.008c2.32-1.136,4.504-2.48,6.552-4.024V340.832z M301.44,349.752v-31.504l30.416-7.608   l-21,36.752L301.44,349.752z M394.688,294.936l19.832-4.96l-21,36.752l-19.832,4.96L394.688,294.936z M436.024,284.608l19.832-4.96   l-21,36.752l-19.84,4.96L436.024,284.608z M109.44,232v-56c13.824,0,26.464-7.224,33.672-18.64c4.544,1.744,9.384,2.64,14.328,2.64   c11.296,0,21.744-4.68,29.216-12.816c11.576,6.264,25.984,6.264,37.56,0C231.696,155.32,242.144,160,253.44,160   c4.944,0,9.784-0.896,14.328-2.64c7.208,11.416,19.848,18.64,33.672,18.64v56c0,15.648-3.808,30.904-11.016,44.608   c-3.712-3.912-8.192-7.136-13.312-9.312C274.312,247.456,254,232,229.44,232c-8.456,0-16.664,1.872-24,5.448   c-7.336-3.576-15.544-5.448-24-5.448c-24.56,0-44.872,15.456-47.672,35.296c-5.12,2.176-9.6,5.4-13.312,9.312   C113.248,262.904,109.44,247.648,109.44,232z M143.552,280.832l6.296-1.6l-0.28-6.496c-0.016-0.4-0.056-0.792-0.128-1.192   C149.776,258.52,164,248,181.44,248c7.16,0,14.024,1.864,19.856,5.392l4.144,2.504l4.144-2.504   c5.832-3.528,12.696-5.392,19.856-5.392c17.448,0,31.68,10.528,32,23.56l-0.4,7.672l6.296,1.6   c10.656,2.72,18.104,12.248,18.104,23.168c0,13.232-10.768,24-24,24c-7.76,0-14.848-3.664-19.448-10.064l-8.936-12.424   l-5.104,14.432c-3.392,9.6-12.44,16.056-22.512,16.056s-19.12-6.456-22.512-16.056l-5.104-14.432l-8.936,12.424   c-4.6,6.4-11.688,10.064-19.448,10.064c-13.232,0-24-10.768-24-24C125.44,293.08,132.888,283.552,143.552,280.832z M102.504,480   l6.872-55.008l-15.872-1.984L86.376,480H24.32l19.88-63.624c9.336-29.896,35.392-52.304,66.36-57.072l43.696-6.72l51.184,59.704   l33.504-39.088l-12.152-10.408l-21.352,24.92l-40-46.672v-0.568c2.832-1.256,5.568-2.72,8.048-4.6   c7.416,9.96,19.184,16.128,31.952,16.128s24.536-6.168,31.952-16.128c2.48,1.88,5.216,3.344,8.048,4.6v0.568l-11.792,13.76   l12.152,10.408l10.824-12.616l28.816,4.424v13.232V480H102.504z M301.44,480v-72h176v72H301.44z M477.44,392h-23.352l19.2-24h4.152   V392z M477.44,305.752l-21.08,5.272l21-36.752l0.08-0.024V305.752z"/>
	<rect x="445.44" y="424" style="fill:#333333;" width="16" height="16"/>
	<rect x="317.44" y="424" style="fill:#333333;" width="112" height="16"/>
</g>
<g>
</g>
<g>
</g>
<g>
</g>
<g>
</g>
<g>
</g>
<g>
</g>
<g>
</g>
<g>
</g>
<g>
</g>
<g>
</g>
<g>
</g>
<g>
</g>
<g>
</g>
<g>
</g>
<g>
</g>
</svg>
