<?xml version="1.0" encoding="iso-8859-1"?>
<!-- Generator: Adobe Illustrator 19.0.0, SVG Export Plug-In . SVG Version: 6.00 Build 0)  -->
<svg xmlns="http://www.w3.org/2000/svg" xmlns:xlink="http://www.w3.org/1999/xlink" version="1.1" id="Capa_1" x="0px" y="0px" viewBox="0 0 496.008 496.008" style="enable-background:new 0 0 496.008 496.008;" xml:space="preserve">
<g>
	<path style="fill:#FFA64D;" d="M397.502,400L397.502,400c-5.008,0-9.704-2.448-12.576-6.552l-25.616-36.624   c-16.76-23.968-25.744-52.512-25.744-81.76l0,0c0-37.816,15.008-74.08,41.72-100.816l8.576-8.584   c3.616-3.632,8.52-5.664,13.64-5.664l0,0c5.12,0,10.024,2.032,13.64,5.656l8.576,8.584c26.712,26.736,41.72,63,41.72,100.816l0,0   c0,29.256-8.992,57.8-25.744,81.76l-25.616,36.624C407.206,397.552,402.51,400,397.502,400z"/>
	<path style="fill:#FFA64D;" d="M341.438,112L312.91,19.296C310.846,12.584,304.646,8,297.622,8H113.254   c-7.024,0-13.224,4.584-15.296,11.296L69.438,112l-24,48h320L341.438,112z"/>
</g>
<g>
	<path style="fill:#333333;" d="M373.822,288c0,13.232,10.768,24,24,24h0.168c13.232,0,24-10.768,24-24v-24h-48.168V288z    M389.822,280h16.168v8c0,4.416-3.592,8-8,8h-0.168c-4.408,0-8-3.584-8-8V280z"/>
	<path style="fill:#333333;" d="M450.174,382.688c3.208,0,6.44-0.376,9.632-1.128c12-2.832,22.048-10.76,27.576-21.744l1.664-3.304   c9-17.912,3.856-39.632-12.248-51.648l-9.104-6.792c1.152-7.56,1.744-15.248,1.744-23.016c0-40.216-15.648-78.032-44.056-106.472   l-8.568-8.576c-10.304-10.32-28.296-10.328-38.616-0.008l-2.544,2.544L348.878,109l-28.32-92.056C317.438,6.816,308.23,0,297.622,0   H113.254c-10.608,0-19.816,6.816-22.936,16.944L61.998,109l-29.504,59h28.944v48c0,20.176,15.072,36.744,34.52,39.448   c4.816,22.584,16.608,43.12,33.888,58.968c1.072,8.664,4.168,16.976,9.184,24.32l-30.896,4.752   c-36.968,5.688-68.048,32.424-79.2,68.12L2.558,496h405.76l-8.32-26.64l13.92,13.848c8.296,8.248,19.32,12.8,31.04,12.8   c12.784,0,24.904-5.52,33.256-15.168c8.296-9.568,12.024-22.24,10.144-35.328c-1.64-11.4-7.888-21.896-17.144-28.808l-44.456-33.16   l3.992-5.704C436.758,381.016,443.414,382.688,450.174,382.688z M467.23,317.696c9.872,7.36,13.032,20.664,7.512,31.632   l-1.664,3.304c-3.392,6.744-9.568,11.608-16.952,13.36c-5.44,1.28-11.056,0.728-16.08-1.44l2.2-3.144   c9.928-14.2,17.136-29.8,21.664-46.184L467.23,317.696z M389.518,171.312c2.128-2.144,4.968-3.312,7.984-3.312   s5.856,1.168,7.984,3.312l8.576,8.584c25.392,25.416,39.376,59.216,39.376,95.16c0,27.752-8.4,54.448-24.304,77.176l-25.624,36.632   c-2.744,3.92-9.288,3.928-12.032-0.008l-25.616-36.624c-15.896-22.736-24.304-49.432-24.304-77.176   c0-35.952,13.984-69.744,39.376-95.16L389.518,171.312z M317.454,423.608L317.382,423l-15.872,1.984L308.374,480h-94.936v-73.048   l70.752,47.168l8.728-95.952l7.4,1.136c2.456,0.376,4.88,0.864,7.264,1.448l0.136-0.552c5.56,10.784,15.496,18.568,27.36,21.368   c3.192,0.752,6.416,1.128,9.632,1.128c0.48,0,0.952-0.096,1.432-0.112c3.432,3.416,6.464,7.2,9.24,11.176l-30.776,22.952   C321.926,418.696,319.59,421.064,317.454,423.608z M152.382,352.872l15.672,13.064l24.824,24.824l-52.696,35.128l-6.376-70.152   L152.382,352.872z M281.022,314.424c17.288-15.856,29.08-36.392,33.896-58.976c4.512-0.624,8.752-1.992,12.656-3.992   c-1.216,7.752-2,15.608-2,23.608c0,7.736,0.584,15.4,1.736,22.936l-9.224,6.88c-12.296,9.176-18.144,24.008-16.232,38.488   l-30-4.616C276.854,331.392,279.95,323.088,281.022,314.424z M141.438,131.312L162.126,152H120.75L141.438,131.312z    M109.438,140.688L88.75,120h41.376L109.438,140.688z M152.75,120h41.376l-20.688,20.688L152.75,120z M205.438,131.312L226.126,152   H184.75L205.438,131.312z M216.75,120h41.376l-20.688,20.688L216.75,120z M269.438,131.312L290.126,152H248.75L269.438,131.312z    M333.438,168v16.208c-4.672-3.536-10.056-6.184-16-7.392V168H333.438z M338.75,365.992c-7.384-1.752-13.56-6.616-16.952-13.36   l-1.664-3.304c-5.512-10.968-2.352-24.272,7.512-31.632l3.424-2.552c4.528,16.416,11.744,32.048,21.688,46.264l2.176,3.104   C349.886,366.712,344.222,367.272,338.75,365.992z M317.438,232v-38.528c9.288,3.312,16,12.112,16,22.528   c0,10.552-6.888,19.432-16.368,22.64C317.206,236.424,317.438,234.232,317.438,232z M205.438,380.688l-22.024-22.024l22.024-38.536   l22.024,38.544L205.438,380.688z M242.822,365.928l15.672-13.064l18.576,2.856l-6.376,70.152l-52.696-35.128L242.822,365.928z    M251.302,338.032l-11.656,9.712l-34.208-59.872l-34.208,59.864l-11.656-9.712c-14.216-11.84-18.368-31.68-10.088-48.232   c3.816-7.632,10.12-13.928,17.752-17.752c8.4-4.2,18.488-3.568,26.312,1.64l11.888,7.928l11.896-7.92   c7.816-5.216,17.896-5.856,26.312-1.64c7.632,3.824,13.936,10.12,17.752,17.752C269.67,306.352,265.518,326.184,251.302,338.032z    M368.174,384.192c-1.464-2.08-2.936-4.136-4.56-6.088c0.2-0.104,0.392-0.216,0.592-0.32l4.304,6.16L368.174,384.192z    M369.622,168.584c-7.72,7.728-14.408,16.2-20.184,25.168V168h20.768L369.622,168.584z M312.75,152l26.496-26.496L352.494,152   H312.75z M105.606,21.648c1.04-3.376,4.112-5.648,7.648-5.648h184.368c3.536,0,6.608,2.272,7.648,5.648L330.606,104h-21.168v16   h12.688l-20.688,20.688L280.75,120h12.688v-16H80.27L105.606,21.648z M71.63,125.504L98.126,152H58.382L71.63,125.504z M93.438,168   v8.808c-5.944,1.216-11.328,3.856-16,7.392V168H93.438z M77.438,216c0-10.416,6.712-19.216,16-22.528V232   c0,2.232,0.232,4.424,0.368,6.64C84.326,235.432,77.438,226.552,77.438,216z M109.438,232v-64h44h104h44v64   c0,22.472-7.888,43.832-21.904,60.872c-0.96-3.472-2.168-6.904-3.832-10.232c-5.352-10.704-14.2-19.544-24.904-24.904   c-13.52-6.768-29.752-5.76-42.336,2.64l-3.024,2.016l-3.016-2.016c-12.592-8.4-28.816-9.408-42.336-2.64   c-10.704,5.36-19.552,14.2-24.904,24.904c-1.664,3.328-2.872,6.76-3.832,10.232C117.326,275.832,109.438,254.48,109.438,232z    M44.206,416.376c9.336-29.896,35.392-52.304,66.36-57.072l7.4-1.136l8.728,95.952l70.744-47.168V480h-94.936l6.872-55.008   l-15.872-1.984L86.374,480H24.318L44.206,416.376z M385.118,480l1.096-1.096l0.344,1.096H385.118z M461.646,429.528   c5.872,4.384,9.832,11.032,10.96,18.816c1.136,7.928-1.224,15.952-6.488,22.016c-5.312,6.128-13.024,9.64-21.16,9.64   c-7.464,0-14.488-2.888-19.76-8.144l-27.288-27.144l-27.288,27.144c-5.28,5.256-12.304,8.144-19.768,8.144   c-8.144,0-15.848-3.512-21.16-9.64c-5.256-6.064-7.616-14.088-6.4-22.568c1.04-7.224,5-13.872,10.872-18.256l43.528-32.472   l0.672,0.96c2.504,3.584,5.976,6.216,9.88,7.912l-44.464,44.4l11.304,11.328l42.4-42.352l21.912,21.944l11.32-11.312   l-23.976-24.008c3.904-1.696,7.376-4.32,9.88-7.904l0.96-1.368L461.646,429.528z"/>
	<polygon style="fill:#333333;" points="357.438,240 365.438,240 365.438,248 381.438,248 381.438,240 389.438,240 389.438,224    381.438,224 381.438,216 365.438,216 365.438,224 357.438,224  "/>
	<rect x="373.438" y="320" style="fill:#333333;" width="16" height="16"/>
	<rect x="405.438" y="320" style="fill:#333333;" width="16" height="16"/>
	<rect x="421.438" y="240" style="fill:#333333;" width="16" height="16"/>
	<rect x="389.438" y="352" style="fill:#333333;" width="16" height="16"/>
	
		<rect x="432.229" y="443.323" transform="matrix(-0.7074 0.7069 -0.7069 -0.7074 1070.2568 458.4416)" style="fill:#333333;" width="16.001" height="14.889"/>
	<path style="fill:#333333;" d="M133.438,188c0,11.032,8.976,20,20,20s20-8.968,20-20s-8.976-20-20-20S133.438,176.968,133.438,188z    M153.438,184c2.208,0,4,1.8,4,4s-1.792,4-4,4s-4-1.8-4-4S151.23,184,153.438,184z"/>
	<path style="fill:#333333;" d="M237.438,188c0,11.032,8.976,20,20,20s20-8.968,20-20s-8.976-20-20-20S237.438,176.968,237.438,188z    M257.438,184c2.208,0,4,1.8,4,4s-1.792,4-4,4s-4-1.8-4-4S255.23,184,257.438,184z"/>
</g>
<g>
</g>
<g>
</g>
<g>
</g>
<g>
</g>
<g>
</g>
<g>
</g>
<g>
</g>
<g>
</g>
<g>
</g>
<g>
</g>
<g>
</g>
<g>
</g>
<g>
</g>
<g>
</g>
<g>
</g>
</svg>
