<?xml version="1.0" encoding="iso-8859-1"?>
<!-- Generator: Adobe Illustrator 19.0.0, SVG Export Plug-In . SVG Version: 6.00 Build 0)  -->
<svg xmlns="http://www.w3.org/2000/svg" xmlns:xlink="http://www.w3.org/1999/xlink" version="1.1" id="Capa_1" x="0px" y="0px" viewBox="0 0 496 496" style="enable-background:new 0 0 496 496;" xml:space="preserve">
<g>
	<path style="fill:#FFA64D;" d="M205.44,0c-79.4,0-144,64.6-144,144v72h8c0-17.672,14.328-32,32-32v-32h208v32   c17.672,0,32,14.328,32,32h8v-72C349.44,64.6,284.84,0,205.44,0z"/>
	<polygon style="fill:#FFA64D;" points="261.44,384 261.44,496 469.44,496 469.44,458 469.44,422 469.44,384  "/>
</g>
<g>
	<path style="fill:#333333;" d="M493.44,336c0-19.312-13.768-35.472-32-39.192V216h-48v16h32v16h-32v16h32v32.808   c-18.232,3.72-32,19.872-32,39.192c0,22.056,17.944,40,40,40S493.44,358.056,493.44,336z M429.44,336c0-13.232,10.768-24,24-24   s24,10.768,24,24s-10.768,24-24,24S429.44,349.232,429.44,336z"/>
	<rect x="293.44" y="448" style="fill:#333333;" width="96" height="16"/>
	<rect x="405.44" y="448" style="fill:#333333;" width="16" height="16"/>
	<path style="fill:#333333;" d="M461.44,408c-17.648,0-32,14.352-32,32s14.352,32,32,32s32-14.352,32-32S479.088,408,461.44,408z    M461.44,456c-8.824,0-16-7.176-16-16s7.176-16,16-16s16,7.176,16,16S470.264,456,461.44,456z"/>
	<rect x="293.44" y="416" style="fill:#333333;" width="128" height="16"/>
	<rect x="445.44" y="328" style="fill:#333333;" width="16" height="16"/>
	<path style="fill:#333333;" d="M153.44,208c11.032,0,20-8.976,20-20s-8.968-20-20-20s-20,8.976-20,20S142.408,208,153.44,208z    M153.44,184c2.2,0,4,1.792,4,4s-1.8,4-4,4s-4-1.792-4-4S151.24,184,153.44,184z"/>
	<path style="fill:#333333;" d="M257.44,208c11.032,0,20-8.976,20-20s-8.968-20-20-20s-20,8.976-20,20S246.408,208,257.44,208z    M257.44,184c2.2,0,4,1.792,4,4s-1.8,4-4,4s-4-1.792-4-4S255.24,184,257.44,184z"/>
	<path style="fill:#333333;" d="M157.44,232h-16c0,35.288,28.712,64,64,64s64-28.712,64-64h-16c0,26.472-21.528,48-48,48   S157.44,258.472,157.44,232z"/>
	<path style="fill:#333333;" d="M366.344,391.984c8.08,0,16.168-0.552,24.184-1.656l11.208-1.552l-5.192-10.048   c-10.04-19.408-26.368-34.248-45.928-42.72c19.56-8.48,35.88-23.312,45.928-42.72l5.192-10.048l-11.208-1.552   c-30.952-4.272-62.728-0.08-91.456,11.592c7.456-11.352,12.912-24.12,15.848-37.824c19.448-2.72,34.52-19.28,34.52-39.456   c0-19.312-13.768-35.472-32-39.192V128h-16v16h-192v-16h-16v48.808c-18.232,3.72-32,19.88-32,39.192   c0,7.928,2.384,15.28,6.384,21.504l-5.6,22.408l-15.52,15.528c-11.136,11.12-17.264,25.912-17.264,41.648   c0,20.904,10.856,39.704,28.264,50.272c-13.208,11.72-23.352,26.912-28.768,44.248L2.56,496h258.88v-16h-48v-16h-16v16h-90.112   l-1.384-1.664c-17.984-21.576-16.568-52.816,3.288-72.68L97.92,394.344C74.696,417.576,71,452.792,87.6,480H24.32l19.872-63.624   c9.352-29.904,35.4-52.312,66.368-57.072l14.288-2.2c1.072,3.704,2.672,7.28,4.896,10.568C136.664,377.896,148.176,384,160.52,384   h36.92v64h16v-64h36.92c11.536,0,22.296-5.384,29.312-14.432l0.784,0.432C306.592,384.44,336.392,391.984,366.344,391.984z    M375.872,375.696c-30.424,1.792-61.144-5.048-87.68-19.704l-1.624-0.896c0.832-3.632,1.104-7.376,0.816-11.096h24.4   C337.624,344,361.224,355.896,375.872,375.696z M375.872,296.304C361.224,316.104,337.624,328,311.776,328H285.44h-0.352   c1.416-3.72,2.168-7.632,2.336-11.576l0.76-0.416C314.728,301.344,345.464,294.52,375.872,296.304z M333.44,216   c0,10.536-6.872,19.416-16.336,22.632c0.128-2.208,0.336-4.392,0.336-6.632v-38.528C326.728,196.784,333.44,205.584,333.44,216z    M301.44,160v72c0,52.936-43.064,96-96,96s-96-43.064-96-96v-72H301.44z M269.36,323.84c-0.464,0.96-0.856,1.944-1.472,2.856   c-4,5.912-10.392,9.304-17.52,9.304h-3.592C254.792,332.8,262.368,328.72,269.36,323.84z M164.112,336h-3.592   c-7.136,0-13.52-3.392-17.52-9.304c-0.616-0.912-1.008-1.896-1.472-2.856C148.512,328.72,156.088,332.8,164.112,336z    M81.12,250.264c4.472,2.664,9.464,4.44,14.832,5.184c1.048,4.896,2.496,9.632,4.16,14.264c-7.592-1.904-14.888-4.912-21.544-9.248   L81.12,250.264z M93.44,193.472V232c0,2.24,0.208,4.424,0.336,6.632C84.312,235.416,77.44,226.536,77.44,216   C77.44,205.584,84.152,196.784,93.44,193.472z M108.128,343.496c-12.96,1.992-25.168,6.624-36.072,13.272   c-16.176-6.648-26.616-22.16-26.616-39.68c0-11.464,4.464-22.24,12.568-30.344l12.496-12.496   c11.464,7.32,24.336,11.808,37.76,13.216c4.392,7.656,9.664,14.728,15.672,21.12c-1.12,6.536-0.496,13.232,1.856,19.416h-0.352   v6.552c-0.752,2.136-1.232,4.32-1.576,6.52L108.128,343.496z M267.888,358.696c-4,5.912-10.392,9.304-17.52,9.304h-89.84   c-7.136,0-13.52-3.392-17.52-9.304c-2.712-4.008-3.816-8.616-3.496-13.232C145.6,349.656,152.896,352,160.52,352h89.84   c7.624,0,14.92-2.344,21.024-6.528C271.704,350.08,270.6,354.688,267.888,358.696z"/>
	<rect x="117.44" y="416" style="fill:#333333;" width="48" height="16"/>
</g>
<g>
</g>
<g>
</g>
<g>
</g>
<g>
</g>
<g>
</g>
<g>
</g>
<g>
</g>
<g>
</g>
<g>
</g>
<g>
</g>
<g>
</g>
<g>
</g>
<g>
</g>
<g>
</g>
<g>
</g>
</svg>
