<?xml version="1.0" encoding="iso-8859-1"?>
<!-- Generator: Adobe Illustrator 19.0.0, SVG Export Plug-In . SVG Version: 6.00 Build 0)  -->
<svg xmlns="http://www.w3.org/2000/svg" xmlns:xlink="http://www.w3.org/1999/xlink" version="1.1" id="Capa_1" x="0px" y="0px" viewBox="0 0 495.972 495.972" style="enable-background:new 0 0 495.972 495.972;" xml:space="preserve">
<g>
	<path style="fill:#FFA64D;" d="M411.986,183.972c0-23.776-17.304-43.464-40-47.28v-0.72v-8v-17.328   c0-40.264-22.648-76.808-57.928-93.472l0,0c-19.52-9.216-41.392-11.592-62.328-6.76l-39.744,9.184l-39.752-9.176   c-20.928-4.832-42.808-2.464-62.328,6.76c-35.272,16.656-57.92,53.2-57.92,93.464v17.328v8v0.72c-22.696,3.816-40,23.504-40,47.28   c0,12.312,4.672,23.504,12.296,32c-7.624,8.496-12.296,19.688-12.296,32c0,17.008,8.872,31.912,22.208,40.44   c-3.936,6.96-6.208,14.992-6.208,23.56c0,26.512,21.488,48,48,48s48-21.488,48-48c0-5.624-1.048-10.984-2.832-16h8.968   c-13.824-17.656-22.136-39.84-22.136-64v-56c0-35.344,28.656-64,64-64h64h16c35.344,0,64,28.656,64,64v56   c0,12.52-2.272,24.488-6.344,35.584l16.744,20.088c2.808-4.584,7.824-7.672,13.6-7.672c8.84,0,16,7.16,16,16h32l2.832-8.32   c12.736-8.632,21.168-23.136,21.168-39.68c0-12.312-4.672-23.504-12.296-32C407.314,207.476,411.986,196.284,411.986,183.972z"/>
	<polygon style="fill:#FFA64D;" points="251.986,431.972 235.986,455.972 243.986,487.972 179.986,487.972 187.986,455.972    171.986,431.972 211.986,399.972  "/>
	<path style="fill:#FFA64D;" d="M393.234,295.996l-2.416-8.344c-0.36,0.24-0.68,0.528-1.04,0.76   C391.138,290.82,392.298,293.348,393.234,295.996z"/>
</g>
<g>
	<path style="fill:#333333;" d="M467.986,271.972c-10.968,0-20.136,7.44-22.992,17.504l-19.104,4.776   c-3.032-6.792-9.112-11.904-16.504-13.616c6.776-9.376,10.6-20.704,10.6-32.664c0-2.616-0.24-5.176-0.592-7.696   c-0.072-0.544-0.152-1.08-0.248-1.616c-0.88-5.216-2.48-10.176-4.696-14.8c-0.152-0.32-0.304-0.64-0.464-0.952   c-1.2-2.384-2.544-4.68-4.056-6.856c-0.016-0.024-0.024-0.048-0.04-0.072c6.552-9.376,10.096-20.512,10.096-32.008   c0-25.32-16.896-46.736-40-53.64v-19.68c0-43.24-24.536-82.776-62.504-100.704c-21.008-9.928-45-12.528-67.544-7.32l-37.952,8.76   L174.034,2.62c-22.552-5.2-46.528-2.608-67.544,7.32C68.522,27.876,43.986,67.404,43.986,110.644v19.68   c-23.104,6.912-40,28.328-40,53.648c0,11.496,3.544,22.632,10.096,32c-0.016,0.024-0.024,0.048-0.04,0.072   c-1.52,2.176-2.856,4.472-4.056,6.856c-0.16,0.32-0.304,0.64-0.464,0.952c-2.216,4.624-3.816,9.584-4.696,14.8   c-0.088,0.536-0.168,1.072-0.248,1.616c-0.352,2.528-0.592,5.088-0.592,7.704c0,16.776,7.408,32.376,20.128,42.96   c-2.712,6.672-4.128,13.832-4.128,21.04c0,27.04,19.264,49.664,44.792,54.872c-13.472,11.784-23.808,27.168-29.304,44.736   L9.106,495.972h282.88h24h88c13.232,0,24-10.768,24-24v-112V346.22l17.008,4.248c2.856,10.064,12.024,17.504,22.992,17.504   c13.232,0,24-10.768,24-24v-48C491.986,282.74,481.218,271.972,467.986,271.972z M427.986,310.22l16-4v27.504l-16-4V310.22z    M411.986,303.972v40h-16v-40c0-4.408,3.592-8,8-8S411.986,299.564,411.986,303.972z M70.154,383.972   c12.408-12.904,28.776-21.896,46.952-24.696l22.88-3.52v28.216H70.154z M331.986,343.972v-48c0-4.408,3.592-8,8-8s8,3.592,8,8v48   c0,4.408-3.592,8-8,8S331.986,348.38,331.986,343.972z M363.986,306.22l16,4v19.504l-16,4V306.22z M211.986,380.66l-40-40v-4.2   c12.44,4.784,25.896,7.512,40,7.512s27.56-2.728,40-7.512v4.2L211.986,380.66z M161.194,352.492l39.088,39.088l-44.296,38.76   v-77.048L161.194,352.492z M262.778,352.492l5.208,0.8v77.048l-44.296-38.76L262.778,352.492z M283.986,355.756l22.872,3.52   c18.176,2.8,34.704,11.608,47.2,24.696h-62.072c-2.816,0-5.488,0.576-8,1.472V355.756z M315.986,295.972V335.9   c-5.088-6.816-8-15.184-8-23.928c0-10.448,4.056-20.24,11.12-27.592C317.178,287.828,315.986,291.748,315.986,295.972z    M301.002,342.188l-33.016-5.08v-8.288c8.872-5.152,17-11.44,24.12-18.744c-0.024,0.632-0.12,1.256-0.12,1.896   C291.986,322.86,295.282,333.284,301.002,342.188z M307.986,231.972c0,52.936-43.064,96-96,96s-96-43.064-96-96v-56   c0-30.88,25.12-56,56-56h80c30.88,0,56,25.12,56,56V231.972z M155.986,328.82v8.288l-32.912,5.064   c5.616-8.72,8.912-19.072,8.912-30.2c0-0.64-0.096-1.264-0.12-1.896C138.986,317.38,147.114,323.668,155.986,328.82z    M155.986,451.604l56-49l56,49v28.368h-112V451.604z M283.986,439.972c0-4.408,3.592-8,8-8h56v-16h-56c-4.408,0-8-3.592-8-8   s3.592-8,8-8h88v16h-16v16h16v16h-88C287.578,447.972,283.986,444.38,283.986,439.972z M379.986,383.972h-5.32   c-5.704-8.032-12.48-15.104-20.152-21.024c4.048-3.104,7.04-7.44,8.464-12.472l17.008-4.256v13.752V383.972z M35.986,311.972   c0-6.848,1.792-13.64,5.168-19.632l3.728-6.592l-6.384-4.08c-11.592-7.408-18.512-20.008-18.512-33.696   c0-2.608,0.288-5.144,0.768-7.616c0.216-1.104,0.608-2.152,0.912-3.232c0.376-1.32,0.712-2.664,1.224-3.928   c0.496-1.24,1.152-2.408,1.776-3.6c0.528-1.008,1.016-2.032,1.624-2.992c0.768-1.2,1.664-2.312,2.56-3.44   c7.336-9.176,18.496-15.192,31.136-15.192v-16c-13.024,0-25,4.504-34.52,11.992c-3.528-6.056-5.48-12.92-5.48-19.992   c0-22.056,17.944-40,40-40c4.552,0,9.112,0.816,13.544,2.408l5.424-15.056c-6.184-2.224-12.56-3.352-18.968-3.352v-17.328   c0-37.088,20.936-70.936,53.344-86.24c17.784-8.4,38.064-10.6,57.104-6.2l41.552,9.6l41.552-9.592   c19.04-4.4,39.336-2.192,57.104,6.192c32.408,15.304,53.344,49.16,53.344,86.24v17.328c-6.408,0-12.784,1.128-18.968,3.352   l5.424,15.056c4.432-1.592,8.992-2.408,13.544-2.408c22.056,0,40,17.944,40,40c0,7.072-1.952,13.936-5.48,19.992   c-9.52-7.488-21.496-11.992-34.52-11.992v16c12.64,0,23.8,6.016,31.136,15.2c0.896,1.12,1.792,2.232,2.56,3.432   c0.608,0.96,1.104,1.992,1.632,3c0.624,1.184,1.272,2.352,1.768,3.592c0.504,1.264,0.848,2.608,1.224,3.936   c0.304,1.072,0.696,2.12,0.912,3.216c0.48,2.472,0.768,5.016,0.768,7.624c0,13.688-6.92,26.288-18.512,33.696l-6.384,4.08   l3.728,6.592c0.056,0.096,0.088,0.208,0.144,0.312c-0.288,0.536-0.624,1.04-0.872,1.6l-19.104-4.776   c-2.864-10.064-12.032-17.504-23-17.504c-5.416,0-10.36,1.872-14.376,4.904l-6.944-10.872c3.432-10.736,5.32-22.168,5.32-34.032   v-56c0-39.696-32.304-72-72-72h-80c-39.696,0-72,32.304-72,72v56c0,11.864,1.888,23.296,5.328,34.032l-7.84,12.272   c11.592,7.408,18.512,20.008,18.512,33.696c0,22.056-17.944,40-40,40S35.986,334.028,35.986,311.972z M50.754,416.348   c1.808-5.8,4.424-11.208,7.408-16.376h25.824v48h16v-48h40v80h-40v-16h-16v16h-53.12L50.754,416.348z M291.986,479.972   c-4.408,0-8-3.592-8-8s3.592-8,8-8h88v8c0,2.816,0.576,5.488,1.472,8h-65.472H291.986z M411.986,471.972c0,4.408-3.592,8-8,8   s-8-3.592-8-8v-112h16V471.972z M475.986,343.972c0,4.408-3.592,8-8,8s-8-3.592-8-8v-48c0-4.408,3.592-8,8-8s8,3.592,8,8V343.972z"/>
	<path style="fill:#333333;" d="M179.986,187.972c0-11.024-8.976-20-20-20s-20,8.976-20,20s8.976,20,20,20   S179.986,198.996,179.986,187.972z M159.986,191.972c-2.208,0-4-1.792-4-4s1.792-4,4-4s4,1.792,4,4   S162.194,191.972,159.986,191.972z"/>
	<path style="fill:#333333;" d="M263.986,167.972c-11.024,0-20,8.976-20,20s8.976,20,20,20s20-8.976,20-20   S275.01,167.972,263.986,167.972z M263.986,191.972c-2.208,0-4-1.792-4-4s1.792-4,4-4s4,1.792,4,4S266.194,191.972,263.986,191.972   z"/>
	<path style="fill:#333333;" d="M235.986,263.948c0,4.424-3.6,8.024-8.024,8.024h-31.944c-4.432,0-8.032-3.6-8.032-8.024v-7.976h-16   v7.976c0,13.248,10.776,24.024,24.024,24.024h31.944c13.256,0,24.032-10.776,24.032-24.024v-7.976h-16V263.948z"/>
</g>
<g>
</g>
<g>
</g>
<g>
</g>
<g>
</g>
<g>
</g>
<g>
</g>
<g>
</g>
<g>
</g>
<g>
</g>
<g>
</g>
<g>
</g>
<g>
</g>
<g>
</g>
<g>
</g>
<g>
</g>
</svg>
