<?xml version="1.0" encoding="iso-8859-1"?>
<!-- Generator: Adobe Illustrator 19.0.0, SVG Export Plug-In . SVG Version: 6.00 Build 0)  -->
<svg xmlns="http://www.w3.org/2000/svg" xmlns:xlink="http://www.w3.org/1999/xlink" version="1.1" id="Capa_1" x="0px" y="0px" viewBox="0 0 496 496" style="enable-background:new 0 0 496 496;" xml:space="preserve">
<g>
	<path style="fill:#FFA64D;" d="M296.312,27.392C291.272,15.632,279.704,8,266.896,8H149.104c-12.8,0-24.368,7.632-29.416,19.392   L80,120h256L296.312,27.392z"/>
	<path style="fill:#FFA64D;" d="M479.992,391.6L463.608,64H368v296h40.056c8.808,0,15.944,7.136,15.944,15.944l0,0   c0,8.848,7.208,16.008,16.056,15.944L479.992,391.6z"/>
</g>
<g>
	<path style="fill:#333333;" d="M176,188c0-11.024-8.976-20-20-20s-20,8.976-20,20s8.976,20,20,20S176,199.024,176,188z M156,192   c-2.208,0-4-1.792-4-4s1.792-4,4-4s4,1.792,4,4S158.208,192,156,192z"/>
	<path style="fill:#333333;" d="M280,188c0-11.024-8.976-20-20-20s-20,8.976-20,20s8.976,20,20,20S280,199.024,280,188z M260,192   c-2.208,0-4-1.792-4-4s1.792-4,4-4s4,1.792,4,4S262.208,192,260,192z"/>
	<rect x="200" y="240" style="fill:#333333;" width="16" height="16"/>
	<rect x="200" y="288" style="fill:#333333;" width="16" height="16"/>
	<rect x="200" y="336" style="fill:#333333;" width="16" height="16"/>
	<path style="fill:#333333;" d="M472,384h-32c-4.408,0-8-3.592-8-8c0-13.232-10.768-24-24-24h-32   c-9.648,0-17.928,5.752-21.744,13.984c-11.448-9.728-25.048-16.856-39.648-20.568l3.752-90.056C337.384,252.28,352,235.872,352,216   c0-19.312-13.768-35.472-32-39.192V160h48v-16H24c-4.408,0-8-3.592-8-8s3.592-8,8-8h344v-16h-26.728L309.48,37.824l0.168-0.168   l-0.424-0.424l-5.56-12.992C297.352,9.512,282.92,0,266.896,0H149.104c-16.024,0-30.456,9.512-36.768,24.24L74.728,112H24   c-13.232,0-24,10.768-24,24s10.768,24,24,24h72.008l0.016,16.808C77.776,180.52,64,196.68,64,216   c0,19.872,14.616,36.28,33.632,39.36l3.752,90.072c-32.976,8.392-59.728,33.656-69.896,66.176L5.12,496H376h8h88   c13.232,0,24-10.768,24-24v-64C496,394.768,485.232,384,472,384z M212,23.312L228.688,40L212,56.688L195.312,40L212,23.312z    M184,28.688L171.312,16h25.376L184,28.688z M227.312,16h25.376L240,28.688L227.312,16z M240,51.312L256.688,68L240,84.688   L223.312,68L240,51.312z M228.688,96l-16,16h-1.376l-16-16L212,79.312L228.688,96z M240,107.312l4.688,4.688h-9.376L240,107.312z    M188.688,112h-9.376l4.688-4.688L188.688,112z M156.688,112h-1.376l-16-16L156,79.312L172.688,96L156.688,112z M132.688,112   h-9.376l4.688-4.688L132.688,112z M291.312,112l4.688-4.688l4.688,4.688H291.312z M323.312,112l-16-16l6.792-6.792L323.872,112   H323.312z M307.312,73.376L296,84.688l-3.872-3.872l-11.312,11.312L284.688,96l-16,16h-1.376l-16-16L268,79.312l4.824,4.824   l11.312-11.312L279.312,68l17.992-17.992L307.312,73.376z M288.96,30.544l1.552,3.624L268,56.688L251.312,40l22.856-22.856   C280.704,19.224,286.16,24.024,288.96,30.544z M148.712,16.032L172.688,40l-3.472,3.472l11.312,11.312L184,51.312L200.688,68   L184,84.688L167.312,68l3.832-3.832l-11.312-11.312L156,56.688l-28-28C132.096,21.056,139.96,16.168,148.712,16.032z    M121.096,44.408L144.688,68L128,84.688l-16.912-16.912L121.096,44.408z M104.296,83.608L116.688,96l-16,16h-8.56L104.296,83.608z    M352,386.08V472c0,2.816,0.576,5.488,1.472,8h-26.416l-7.128-56.992l-15.872,1.984l0.88,7.008H296v-16h15.672l2.256-54.136   C328.552,366.24,341.824,374.68,352,386.08z M109.064,448h197.88l4,32h-205.88L109.064,448z M232,224v144h16V224h55.664l-7.336,176   H248v-16h-16v16H119.672l-7.336-176H232z M264,432v-16h16v16H264z M248,416v16h-80v-16H248z M152,416v16h-16v-16H152z M336,216   c0,10.76-7.168,19.784-16.944,22.816l1.28-30.816h-1.12l0.784-8v-6.528C329.288,196.784,336,205.584,336,216z M304.008,160   l0.032,39.2l-0.88,8.8H260H156h-43.176L112,200v-40H304.008z M80,216c0-10.424,6.728-19.232,16.032-22.536l0.008,7.336l0.72,7.2   h-1.104l1.288,30.816C87.168,235.784,80,226.76,80,216z M46.768,416.376c8.168-26.152,29.2-46.592,55.312-54.416l2.248,54.04H120   v16h-8.936l0.872-7.008l-15.872-1.984L88.936,480H26.88L46.768,416.376z M480,472c0,4.408-3.592,8-8,8h-88h-8c-4.408,0-8-3.592-8-8   v-96c0-4.408,3.592-8,8-8h32c4.408,0,8,3.592,8,8c0,13.232,10.768,24,24,24h32c4.408,0,8,3.592,8,8V472z"/>
	<rect x="416" y="96" style="fill:#333333;" width="40" height="16"/>
	<rect x="416" y="128" style="fill:#333333;" width="40" height="16"/>
	<rect x="416" y="160" style="fill:#333333;" width="40" height="16"/>
	<rect x="416" y="192" style="fill:#333333;" width="48" height="16"/>
	<rect x="416" y="224" style="fill:#333333;" width="48" height="16"/>
	<rect x="416" y="256" style="fill:#333333;" width="48" height="16"/>
	<rect x="416" y="288" style="fill:#333333;" width="48" height="16"/>
	<rect x="416" y="320" style="fill:#333333;" width="48" height="16"/>
	<path style="fill:#333333;" d="M384,464h80v-48h-80V464z M400,432h48v16h-48V432z"/>
</g>
<g>
</g>
<g>
</g>
<g>
</g>
<g>
</g>
<g>
</g>
<g>
</g>
<g>
</g>
<g>
</g>
<g>
</g>
<g>
</g>
<g>
</g>
<g>
</g>
<g>
</g>
<g>
</g>
<g>
</g>
</svg>
