<?xml version="1.0" encoding="iso-8859-1"?>
<!-- Generator: Adobe Illustrator 19.0.0, SVG Export Plug-In . SVG Version: 6.00 Build 0)  -->
<svg xmlns="http://www.w3.org/2000/svg" xmlns:xlink="http://www.w3.org/1999/xlink" version="1.1" id="Capa_1" x="0px" y="0px" viewBox="0 0 496 496" style="enable-background:new 0 0 496 496;" xml:space="preserve">
<g>
	<path style="fill:#FFA64D;" d="M261.44,0h-112c-39.704,0-72,32.296-72,72v88h256V72C333.44,32.296,301.144,0,261.44,0z"/>
	<path style="fill:#FFA64D;" d="M197.44,400c0,0-16-16-40-16s-24,24-24,32s0,32,24,32s40-16,40-16h16c0,0,16,16,40,16s24-24,24-32   s0-32-24-32s-40,16-40,16H197.44z"/>
</g>
<g>
	<path style="fill:#333333;" d="M493.44,352h-48.032c-0.784-1.392-1.584-2.784-2.472-4.12c6.584-7.872,10.504-17.48,10.504-27.88   c0-12.24-5.416-23.392-14.256-31.88l11.72-16.408c17.272-24.176,20.992-55.088,9.96-82.68l-3.496-8.72l-8.056,4.832   c-27.056,16.24-43.872,45.944-43.872,77.504v9.896c-2.624-0.32-5.28-0.544-8-0.544c-0.8,0-1.576,0.072-2.368,0.104v-9.456   c0-31.568-16.816-61.272-43.88-77.504l-8.056-4.832l-3.496,8.72c-0.096,0.248-0.152,0.496-0.248,0.744   c-5.656-6.456-13.232-11.184-21.96-12.968V176h48v-16H45.44v16h48v0.808c-18.232,3.72-32,19.88-32,39.192   c0,19.416,13.92,35.616,32.296,39.224c2.208,35.888,24.44,66.4,55.704,80.448v1.464l-41.312,6.352   c-36.952,5.688-68.04,32.424-79.192,68.112L2.56,496h314.88h8h152v-96h16V352z M437.44,382.632V416c0,4.408-3.584,8-8,8   s-8-3.592-8-8v-16c0-13.232-10.768-24-24-24s-24,10.768-24,24v16c0,4.408-3.584,8-8,8s-8-3.592-8-8v-33.368   c0-8.64,2.384-16.896,6.752-24.096c9.312,5.92,20.792,9.464,33.248,9.464s23.936-3.544,33.248-9.464   C435.056,365.736,437.44,373.992,437.44,382.632z M341.44,382.632V384h-24v-16h25.784   C342.088,372.744,341.44,377.632,341.44,382.632z M197.44,432v48h-94.936l6.784-54.224l23.28-69.856l19.64-3.024   c5.712,12.2,19.672,27.744,45.232,30.52V400h16v-16.576c25.568-2.784,39.52-18.32,45.232-30.52l19.64,3.024l23.28,69.856   L308.376,480H213.44v-48H197.44z M317.144,255.224c7.56-1.48,14.312-5.136,19.696-10.232c2.688,9.416,6.88,18.472,12.768,26.72   l9.544,13.36c-10.872,8.76-17.712,21.16-17.712,34.928c0,10.4,3.92,20.008,10.504,27.88c-0.896,1.336-1.688,2.728-2.472,4.12   h-19.296c-8.68-4.144-17.88-7.04-27.424-8.504l-41.312-6.36v-1.464C292.704,321.624,314.936,291.112,317.144,255.224z    M296.064,358.648l4.248,0.656c0.376,0.056,0.744,0.152,1.128,0.216v15.352L296.064,358.648z M245.44,342.832   C244.064,347,235.656,368,205.44,368c-30.208,0-38.6-20.904-40-25.168v-1.68c7.264,1.792,14.816,2.848,22.624,2.848h34.752   c7.808,0,15.36-1.056,22.624-2.848V342.832z M317.376,423.008L309.76,400h7.68v23.504L317.376,423.008z M421.44,262.648   c0-22.528,10.408-43.896,27.696-57.896c4.784,19.808,0.832,40.744-11.24,57.656l-11.752,16.456c-1.52-0.784-3.088-1.504-4.696-2.16   v-14.056H421.44z M437.44,320c0,17.648-17.944,32-40,32s-40-14.352-40-32s17.944-32,40-32S437.44,302.352,437.44,320z    M351.376,204.752c17.288,14,27.696,35.368,27.696,57.896v12.056c-2.096,0.624-4.128,1.36-6.104,2.184L362.624,262.4   C350.552,245.504,346.6,224.56,351.376,204.752z M333.44,216c0,10.416-6.712,19.216-16,22.528V193.48   C326.728,196.784,333.44,205.584,333.44,216z M261.44,188c0,2.208-1.8,4-4,4s-4-1.792-4-4s1.8-4,4-4S261.44,185.792,261.44,188z    M157.44,188c0,2.208-1.8,4-4,4s-4-1.792-4-4s1.8-4,4-4S157.44,185.792,157.44,188z M77.44,216c0-10.416,6.712-19.216,16-22.528   v45.048C84.152,235.216,77.44,226.416,77.44,216z M109.44,249.376V176h28.104c-2.544,3.352-4.104,7.48-4.104,12   c0,11.024,8.968,20,20,20s20-8.976,20-20c0-4.52-1.56-8.648-4.104-12h72.2c-2.536,3.352-4.096,7.48-4.096,12   c0,11.024,8.968,20,20,20s20-8.976,20-20c0-4.52-1.56-8.648-4.104-12h28.104v73.376c0,43.352-35.272,78.624-78.624,78.624h-34.752   C144.712,328,109.44,292.728,109.44,249.376z M44.2,416.376c9.352-29.904,35.4-52.312,66.368-57.072l4.224-0.648l-20.936,62.816   L86.392,480H24.32L44.2,416.376z M461.44,480h-128v-80h8v16c0,13.232,10.768,24,24,24s24-10.768,24-24v-16c0-4.408,3.584-8,8-8   s8,3.592,8,8v16c0,13.232,10.768,24,24,24s24-10.768,24-24v-16h8V480z M477.44,384h-24v-1.368c0-5-0.648-9.888-1.784-14.632h25.784   V384z"/>
	<rect x="413.44" y="312" style="fill:#333333;" width="16" height="16"/>
	<rect x="365.44" y="312" style="fill:#333333;" width="16" height="16"/>
	<path style="fill:#333333;" d="M269.44,232h-16c0,26.472-21.528,48-48,48s-48-21.528-48-48h-16c0,35.288,28.712,64,64,64   S269.44,267.288,269.44,232z"/>
	<rect x="301.44" y="128" style="fill:#333333;" width="32" height="16"/>
	<rect x="77.44" y="128" style="fill:#333333;" width="208" height="16"/>
	<rect x="77.44" y="96" style="fill:#333333;" width="256" height="16"/>
</g>
<g>
</g>
<g>
</g>
<g>
</g>
<g>
</g>
<g>
</g>
<g>
</g>
<g>
</g>
<g>
</g>
<g>
</g>
<g>
</g>
<g>
</g>
<g>
</g>
<g>
</g>
<g>
</g>
<g>
</g>
</svg>
