<?xml version="1.0" encoding="iso-8859-1"?>
<!-- Generator: Adobe Illustrator 19.0.0, SVG Export Plug-In . SVG Version: 6.00 Build 0)  -->
<svg xmlns="http://www.w3.org/2000/svg" xmlns:xlink="http://www.w3.org/1999/xlink" version="1.1" id="Capa_1" x="0px" y="0px" viewBox="0 0 496 496" style="enable-background:new 0 0 496 496;" xml:space="preserve">
<path style="fill:#FFA64D;" d="M292.12,56.344C284.384,23.8,254.848,0,220.872,0H205.44c-79.4,0-144,64.6-144,144v113.544  c0,21.992-9.848,42.488-27.016,56.224l-15.032,12.016l2.888,5.792C22.696,332.416,32.824,352,61.44,352  c3.84,0,7.208-0.456,10.296-1.08c-2.408,4.528-5.064,8.536-7.96,11.424l5.776,5.776c11.56-8.496,25.056-14.456,39.784-16.728  L157.44,344v-19.848c-28.672-15.008-49.504-42.96-54.648-76.152h-1.352c-17.672,0-32-14.328-32-32s14.328-32,32-32h2.152  c4.896-13.944,18.032-24,33.648-24h27.704c42.264,0,83.8-11.032,120.496-32c13.256,0,24,10.744,24,24v32c17.672,0,32,14.328,32,32  c0,2.776-0.464,5.432-1.128,8h9.128V120C349.44,86.968,324.28,59.696,292.12,56.344z"/>
<g>
	<path style="fill:#333333;" d="M257.44,208c11.032,0,20-8.976,20-20s-8.968-20-20-20s-20,8.976-20,20S246.408,208,257.44,208z    M257.44,184c2.2,0,4,1.792,4,4s-1.8,4-4,4s-4-1.792-4-4S255.24,184,257.44,184z"/>
	<path style="fill:#333333;" d="M133.44,188c0,11.024,8.968,20,20,20s20-8.976,20-20s-8.968-20-20-20S133.44,176.976,133.44,188z    M153.44,184c2.2,0,4,1.792,4,4s-1.8,4-4,4s-4-1.792-4-4S151.24,184,153.44,184z"/>
	<path style="fill:#333333;" d="M269.44,232h-16c0,26.472-21.528,48-48,48s-48-21.528-48-48h-16c0,35.288,28.712,64,64,64   S269.44,267.288,269.44,232z"/>
	<rect x="317.44" y="328" style="fill:#333333;" width="16" height="16"/>
	<rect x="381.44" y="328" style="fill:#333333;" width="16" height="16"/>
	<path style="fill:#333333;" d="M365.44,368h-16c-4.416,0-8-3.592-8-8h-16c0,13.232,10.768,24,24,24h16c13.232,0,24-10.768,24-24   h-16C373.44,364.408,369.856,368,365.44,368z"/>
	<path style="fill:#333333;" d="M487.008,431.84l6.432-1.28v-13.896c0-27.464-16.84-51.24-41.52-60.88   c0.952-3.776,1.52-7.712,1.52-11.784v-8v-24c0-52.936-43.064-96-96-96c-2.712,0-5.376,0.184-8.024,0.408   c0-0.136,0.024-0.272,0.024-0.408c0-19.312-13.768-35.472-32-39.192V152c0-17.648-14.352-32-32-32h-2.128l-1.84,1.056   C246.04,141.304,205.744,152,164.944,152H137.24c-17.16,0-32,9.944-39.184,24.344C77.608,178.096,61.44,195.104,61.44,216   c0,20.176,15.072,36.736,34.512,39.448c6.704,31.328,26.568,57.776,53.488,73.4v8.288l-41.312,6.352   c-36.952,5.688-68.04,32.424-79.192,68.112L2.56,496h219.976h14.904h251.696l-16.168-41.552   c-3.368-8.648-8.384-16.392-14.56-22.984c4.88,1.088,9.88,1.736,14.96,1.736C477.888,433.2,482.456,432.752,487.008,431.84z    M77.44,216c0-10.456,6.768-19.28,16.12-22.56c-0.04,0.784-0.12,1.56-0.12,2.352V232c0,2.24,0.208,4.424,0.336,6.632   C84.312,235.416,77.44,226.536,77.44,216z M437.44,312v24v8c0,10.224-4.904,19.232-12.384,25.096   c2.96-7.88,4.656-16.376,4.656-25.288l-0.32-47.848l-31.984,0.16l0.08,16l16.016-0.08l0.208,31.832   c0,30.952-25.176,56.136-56.136,56.136s-56.136-25.184-56.136-56.144v-31.288l80.04-0.384l-0.08-16l-95.96,0.464v47.208   c0,9,1.728,17.584,4.752,25.536c-7.696-5.848-12.752-15.008-12.752-25.4v-8v-24c0-44.112,35.888-80,80-80   S437.44,267.888,437.44,312z M355.84,425.064c-16.08,0-21.112-10.016-22.328-13.28c7.536,2.68,15.616,4.216,24.064,4.216   c6.944,0,13.64-1.04,20-2.88C375.624,417.232,370.096,425.064,355.84,425.064z M221.36,385.448c-0.016-0.024-0.04-0.04-0.056-0.072   l-1.912-2.872c1.456-0.296,2.896-0.6,4.272-0.976C222.856,382.816,222.088,384.12,221.36,385.448z M258.672,352.896l3.392,0.52   c-1.504,0.4-2.968,0.872-4.424,1.36C257.976,354.16,258.392,353.504,258.672,352.896z M245.44,342.832   C244.064,347,235.656,368,205.44,368c-30.208,0-38.6-20.904-40-25.168v-6.344c12.44,4.784,25.896,7.512,40,7.512   c13.912,0,27.368-2.584,40-7.416V342.832z M191.488,382.512l-1.912,2.872c-3.4,5.096-8.464,8.96-14.272,10.896   c-6.192,2.056-12.944,1.864-19.016-0.56C141.36,389.752,130.56,376.768,127.4,361l-0.832-4.16l25.64-3.944   C157.456,364.112,169.704,378.136,191.488,382.512z M229.44,416.664c0-23.392,16.216-43.144,38.824-48.12   c3.824,6.392,9.064,11.816,15.312,15.832l-6.168,9.248c-10.72,16.088-28.92,24.888-47.968,23.424L229.44,416.664L229.44,416.664z    M290.72,402.496l7.856-11.784c1.664,0.384,3.352,0.696,5.072,0.904c4.072,4.592,8.672,8.712,13.784,12.152v2.168l-22.576,3.472   c-4.352,0.672-8.528,1.864-12.616,3.288C285.328,409.584,288.224,406.24,290.72,402.496z M394.24,405.872   c5.832-3.464,11.128-7.712,15.76-12.616l6.16,9.24c1.968,2.96,4.2,5.656,6.536,8.224c-1.952-0.472-3.88-1.008-5.88-1.312   l-22.576-3.472V405.872z M333.44,216c0,1.104-0.264,2.176-0.408,3.264c-5.4,1.424-10.608,3.28-15.592,5.576v-31.368   C326.728,196.784,333.44,205.584,333.44,216z M109.44,232v-36.208c0-15.32,12.472-27.792,27.8-27.792h16.2h11.504   c42.8,0,85.064-11.016,122.408-31.888c7.92,0.944,14.088,7.712,14.088,15.888v80c0,0.76-0.072,1.496-0.088,2.248   c-23.568,17.048-39.096,44.472-39.8,75.552c-16.4,11.872-35.696,18.2-56.112,18.2C152.504,328,109.44,284.936,109.44,232z    M228.768,480H102.424c-5.72-6.728-8.984-15.08-8.984-24c0-9.952,3.872-19.304,10.912-26.344L93.04,418.344   C82.976,428.4,77.44,441.776,77.44,456c0,8.48,2.008,16.648,5.736,24H24.32l19.872-63.624c9.352-29.904,35.4-52.312,66.368-57.072   l0.168-0.024l0.968,4.856c4.224,21.096,18.672,38.456,38.64,46.44c5.184,2.08,10.696,3.12,16.208,3.12   c4.656,0,9.32-0.744,13.808-2.232c9.168-3.056,17.168-9.168,22.52-17.2l2.568-3.84l2.552,3.832   c2.008,3.008,4.448,5.616,7.088,8.008c-1.032,4.648-1.64,9.456-1.64,14.4v13.896l6.432,1.288c4.56,0.912,9.128,1.352,13.64,1.352   c7.448,0,14.72-1.32,21.648-3.624c-7.04,6.984-12.736,15.368-16.432,24.872L228.768,480z M253.624,460.256   c7.232-18.576,23.96-32,43.672-35.032l23.192-3.568c4.368,7.896,13.44,16.976,28.944,18.976V480h-52.184l11.608-29.024L294,445.032   L280.024,480h-34.08L253.624,460.256z M434.856,480l-13.992-34.976l-14.856,5.944L417.624,480H365.44v-39.976   c13.52-2.768,21.696-11.04,25.752-18.368l23.184,3.568c19.704,3.032,36.44,16.456,43.68,35.032L465.744,480H434.856z    M429.472,393.624l-4.032-6.048c8.152-3.76,15.096-9.704,20.016-17.128c18.976,7.128,31.984,25.24,31.984,46.216v0.384   C458.44,418.504,440.2,409.704,429.472,393.624z"/>
</g>
<g>
</g>
<g>
</g>
<g>
</g>
<g>
</g>
<g>
</g>
<g>
</g>
<g>
</g>
<g>
</g>
<g>
</g>
<g>
</g>
<g>
</g>
<g>
</g>
<g>
</g>
<g>
</g>
<g>
</g>
</svg>
