<?xml version="1.0" encoding="iso-8859-1"?>
<!-- Generator: Adobe Illustrator 19.0.0, SVG Export Plug-In . SVG Version: 6.00 Build 0)  -->
<svg xmlns="http://www.w3.org/2000/svg" xmlns:xlink="http://www.w3.org/1999/xlink" version="1.1" id="Capa_1" x="0px" y="0px" viewBox="0 0 496 496" style="enable-background:new 0 0 496 496;" xml:space="preserve">
<path style="fill:#FFA64D;" d="M209.348,400c-92.704,0-110.856-51.288-111.584-53.472l37.984-15.328  c0.88,1.144,22.68,28.8,73.6,28.8c51.408,0,73.384-28.512,73.6-28.8l37.984,15.328C320.204,348.712,302.052,400,209.348,400z"/>
<g>
	<path style="fill:#333333;" d="M321.284,423.008l-15.872,1.984L312.284,480h-94.936v-32h16v-16h-16v-5.336l21.496-28.672   c-6.536,0.912-13.704,1.448-21.28,1.712l-8.216,10.96l-8.216-10.952c-7.576-0.264-14.744-0.8-21.28-1.712l21.496,28.664V432h-16v16   h16v32h-94.936l6.872-55.008l-15.872-1.984L90.284,480h-62.24L48.9,409.072c9.112-30.992,34.4-54.456,65.992-61.216l53.92-11.56   C181.404,341.2,195.044,344,209.348,344c14.304,0,27.944-2.8,40.528-7.704l53.928,11.56c31.584,6.768,56.872,30.224,65.984,61.232   l0.36,1.208l15.344-4.544l-0.36-1.192c-5.736-19.528-16.952-36.48-31.792-49.304V336h-16v7.872   c-9.264-5.344-19.4-9.352-30.184-11.656l-35.04-7.512c23.48-15.952,40.584-40.592,46.72-69.256c6.904-0.96,13.2-3.632,18.512-7.648   V288h16V144c0-79.4-64.6-144-144-144s-144,64.6-144,144v211.248c-14.84,12.824-26.048,29.776-31.792,49.304L6.652,496h370.696v-16   h-48.936L321.284,423.008z M209.348,328c-52.936,0-96-43.064-96-96v-76.328c8.232-6.608,38.928-27.672,96-27.672   c20.048,0,38.776,2.576,55.672,7.656l4.608-15.328c-18.392-5.52-38.672-8.328-60.28-8.328c-44.48,0-74.344,11.736-91.568,21.504   C125.852,109.592,148.188,72,209.348,72c61.12,0,83.552,37.92,91.624,61.568c-4.64-2.632-10.104-5.4-16.632-8.048l-6.032,14.816   c14.296,5.824,23.152,12.184,27.04,15.328V232C305.348,284.936,262.284,328,209.348,328z M97.684,238.632   C88.22,235.416,81.348,226.536,81.348,216c0-10.424,6.712-19.224,16.016-22.528L97.348,232   C97.348,234.24,97.556,236.424,97.684,238.632z M321.012,238.632c0.128-2.208,0.336-4.392,0.336-6.632l-0.016-38.528   c9.304,3.304,16.016,12.104,16.016,22.528C337.348,226.536,330.476,235.416,321.012,238.632z M209.348,16   c70.576,0,128,57.424,128,128v40.208c-4.68-3.544-10.064-6.184-16.024-7.4l-0.008-25.536C321.228,150.32,311.476,56,209.348,56   S97.468,150.32,97.38,151.272l-0.008,25.536c-5.952,1.208-11.344,3.856-16.024,7.4V144C81.348,73.424,138.772,16,209.348,16z    M81.348,247.792c5.312,4.024,11.608,6.688,18.512,7.648c6.136,28.664,23.232,53.304,46.72,69.256l-35.032,7.512   c-10.792,2.312-20.928,6.312-30.192,11.664v-96.08H81.348z"/>
	<path style="fill:#333333;" d="M177.348,188c0-11.032-8.968-20-20-20c-11.032,0-20,8.968-20,20s8.968,20,20,20   C168.38,208,177.348,199.032,177.348,188z M153.348,188c0-2.2,1.8-4,4-4c2.2,0,4,1.8,4,4s-1.8,4-4,4   C155.148,192,153.348,190.2,153.348,188z"/>
</g>
<path style="fill:#FFA64D;" d="M433.348,496h-64V344h-56v-64h56v-56h64v56h56v64h-56V496z"/>
<g>
	<path style="fill:#333333;" d="M261.348,168c-11.032,0-20,8.968-20,20s8.968,20,20,20s20-8.968,20-20S272.38,168,261.348,168z    M261.348,192c-2.2,0-4-1.8-4-4s1.8-4,4-4s4,1.8,4,4S263.548,192,261.348,192z"/>
	<path style="fill:#333333;" d="M209.348,280c-26.472,0-48-21.528-48-48h-16c0,35.288,28.712,64,64,64s64-28.712,64-64h-16   C257.348,258.472,235.82,280,209.348,280z"/>
</g>
<g>
</g>
<g>
</g>
<g>
</g>
<g>
</g>
<g>
</g>
<g>
</g>
<g>
</g>
<g>
</g>
<g>
</g>
<g>
</g>
<g>
</g>
<g>
</g>
<g>
</g>
<g>
</g>
<g>
</g>
</svg>
