<?xml version="1.0" encoding="iso-8859-1"?>
<!-- Generator: Adobe Illustrator 19.0.0, SVG Export Plug-In . SVG Version: 6.00 Build 0)  -->
<svg xmlns="http://www.w3.org/2000/svg" xmlns:xlink="http://www.w3.org/1999/xlink" version="1.1" id="Capa_1" x="0px" y="0px" viewBox="0 0 496 496" style="enable-background:new 0 0 496 496;" xml:space="preserve">
<g>
	<polygon style="fill:#FFA64D;" points="325.44,200 325.44,296 325.44,488 405.44,488 405.44,296 485.44,296 485.44,200  "/>
	<path style="fill:#FFA64D;" d="M341.44,128h-1.024C332.488,60.44,275.128,8,205.44,8S78.392,60.44,70.464,128H69.44   c-8.84,0-16,7.16-16,16s7.16,16,16,16h272c8.84,0,16-7.16,16-16S350.28,128,341.44,128z"/>
</g>
<g>
	<path style="fill:#333333;" d="M133.44,188c0,11.024,8.968,20,20,20s20-8.976,20-20s-8.968-20-20-20S133.44,176.976,133.44,188z    M153.44,184c2.2,0,4,1.792,4,4s-1.8,4-4,4s-4-1.792-4-4S151.24,184,153.44,184z"/>
	<path style="fill:#333333;" d="M237.44,188c0,11.024,8.968,20,20,20s20-8.976,20-20s-8.968-20-20-20S237.44,176.976,237.44,188z    M257.44,184c2.2,0,4,1.792,4,4s-1.8,4-4,4s-4-1.792-4-4S255.24,184,257.44,184z"/>
	<path style="fill:#333333;" d="M269.44,232h-16c0,26.472-21.528,48-48,48s-48-21.528-48-48h-16c0,35.288,28.712,64,64,64   S269.44,267.288,269.44,232z"/>
	<path style="fill:#333333;" d="M493.44,304V192h-80h-10.216H349.44v-25.472c9.288-3.312,16-12.112,16-22.528   c0-11.176-7.704-20.504-18.056-23.168c-8.88-54.52-48.816-99.544-101.944-114.936V0h-80v5.896   C112.312,21.288,72.376,66.312,63.496,120.832C53.144,123.496,45.44,132.824,45.44,144c0,10.416,6.712,19.216,16,22.528V216   c0,20.176,15.072,36.736,34.512,39.448c6.704,31.328,26.568,57.776,53.488,73.4v8.288l-41.312,6.352   c-36.952,5.688-68.04,32.424-79.192,68.112L2.56,496h314.88h8h88v-56v-8v-40v-8v-40v-8v-32h48v25.472   c-9.288,3.312-16,12.112-16,22.528s6.712,19.216,16,22.528V412c0,6.616-5.384,12-12,12s-12-5.384-12-12h-16c0,15.44,12.56,28,28,28   s28-12.56,28-28v-37.472c9.288-3.312,16-12.112,16-22.528s-6.712-19.216-16-22.528V304H493.44z M469.44,360c-4.416,0-8-3.592-8-8   s3.584-8,8-8s8,3.592,8,8S473.856,360,469.44,360z M333.44,448h43.12l-43.12,25.872V448z M154.264,352.584l43.232,50.44   L163.4,420.072l-12.184-67.024L154.264,352.584z M213.384,403.024l43.232-50.44l3.048,0.472L247.48,420.08L213.384,403.024z    M261.44,337.136v-8.288c33.416-19.4,56-55.496,56-96.848v8v8v40v8v40v8v2.96c-4.8-1.512-9.696-2.696-14.688-3.464L261.44,337.136z    M463.056,256h14.384v17.584L463.056,256z M453.44,240v-20.688L474.128,240H453.44z M437.44,224.696L423.784,208h13.656V224.696z    M413.44,240v-19.36L429.28,240H413.44z M333.44,256h43.12l-43.12,25.872V256z M397.44,262.128V288h-43.12L397.44,262.128z    M397.44,240h-43.12l43.12-25.872V240z M333.44,352h43.12l-43.12,25.872V352z M333.44,304h43.12l-43.12,25.872V304z M437.44,256   v18.664l-14-18.664H437.44z M453.44,269.528L468.552,288H453.44V269.528z M477.44,220.688L464.752,208h12.688V220.688z    M333.44,233.872V208h43.112L333.44,233.872z M317.44,192v-24h16v24H317.44z M229.44,16v104h-48V16H229.44z M165.44,22.544V120   H79.816C88.48,74.576,121.504,37.024,165.44,22.544z M69.44,136h216v-16h-40V22.544c43.936,14.48,76.96,52.032,85.624,97.456   H301.44v16h40c4.416,0,8,3.592,8,8s-3.584,8-8,8h-272c-4.416,0-8-3.592-8-8S65.024,136,69.44,136z M93.44,168v8.808   c-5.944,1.216-11.328,3.856-16,7.392V168H93.44z M77.44,216c0-10.416,6.712-19.216,16-22.528V232c0,2.24,0.208,4.424,0.336,6.632   C84.312,235.416,77.44,226.536,77.44,216z M109.44,232v-64h44h104h44v64c0,52.936-43.064,96-96,96S109.44,284.936,109.44,232z    M205.44,344c14.104,0,27.56-2.728,40-7.512v4.56l-40,46.664l-40-46.664v-4.56C177.88,341.272,191.336,344,205.44,344z    M110.568,359.304l24.832-3.824l16.08,88.44l45.96-22.976V480h-94.936l6.872-55.008l-15.872-1.984l-1.672,13.36l-48.8-16.264   l1.16-3.72C53.552,386.472,79.6,364.072,110.568,359.304z M38.264,435.376l51.544,17.184L86.376,480H24.32L38.264,435.376z    M213.44,480v-59.056l45.96,22.984l16.08-88.44l24.832,3.824c5.896,0.904,11.584,2.624,17.128,4.76V384v8v40v8v40H213.44z    M354.32,480l43.12-25.872V480H354.32z M354.32,432l7.288-4.368l-8.232-13.72l-19.936,11.96V400h43.112l-7.912,4.744l8.232,13.72   l20.568-12.336V432H354.32z M354.32,384l43.12-25.872V384H354.32z M354.32,336l43.12-25.872V336H354.32z M413.44,269.336l14,18.664   h-14V269.336z"/>
</g>
<g>
</g>
<g>
</g>
<g>
</g>
<g>
</g>
<g>
</g>
<g>
</g>
<g>
</g>
<g>
</g>
<g>
</g>
<g>
</g>
<g>
</g>
<g>
</g>
<g>
</g>
<g>
</g>
<g>
</g>
</svg>
