<?xml version="1.0" encoding="iso-8859-1"?>
<!-- Generator: Adobe Illustrator 19.0.0, SVG Export Plug-In . SVG Version: 6.00 Build 0)  -->
<svg xmlns="http://www.w3.org/2000/svg" xmlns:xlink="http://www.w3.org/1999/xlink" version="1.1" id="Capa_1" x="0px" y="0px" viewBox="0 0 496 496" style="enable-background:new 0 0 496 496;" xml:space="preserve">
<g>
	<path style="fill:#FFA64D;" d="M298.608,41.664l-4.496-5.64C275.792,13.136,248.464,0,219.144,0H205.44c-79.4,0-144,64.6-144,144   v224l10.176-1.416c11.104-7.688,23.88-13.056,37.728-15.184l48.096-7.4v-19.848c-28.672-15.008-49.504-42.96-54.648-76.152h-1.352   c-17.672,0-32-14.328-32-32s14.328-32,32-32l11.76-8.232C157.616,144.68,210.52,128,264.736,128h4.704l2.688,4.032   c8.32,12.472,22.32,19.968,37.312,19.968v32c17.672,0,32,14.328,32,32h8v-90.336C349.44,90.12,330.016,58.096,298.608,41.664z"/>
	<rect x="285.44" y="392" style="fill:#FFA64D;" width="192" height="40"/>
</g>
<g>
	<path style="fill:#333333;" d="M173.44,188c0-11.032-8.976-20-20-20s-20,8.968-20,20s8.976,20,20,20S173.44,199.032,173.44,188z    M153.44,192c-2.208,0-4-1.8-4-4s1.792-4,4-4s4,1.8,4,4S155.648,192,153.44,192z"/>
	<path style="fill:#333333;" d="M257.44,208c11.024,0,20-8.968,20-20s-8.976-20-20-20s-20,8.968-20,20S246.416,208,257.44,208z    M257.44,184c2.208,0,4,1.8,4,4s-1.792,4-4,4s-4-1.8-4-4S255.232,184,257.44,184z"/>
	<path style="fill:#333333;" d="M253.44,248h-16c0,17.648-14.352,32-32,32s-32-14.352-32-32h-16c0,26.472,21.528,48,48,48   S253.44,274.472,253.44,248z"/>
	<path style="fill:#333333;" d="M469.44,296v-88H348.632c-3.192-15.648-15.544-28-31.192-31.192V144h-8   c-12.344,0-23.808-6.136-30.656-16.408L273.72,120h-8.984c-56.136,0-110.128,17.016-156.128,49.208l-10.12,7.088   C77.832,177.84,61.44,194.952,61.44,216c0,20.176,15.072,36.736,34.512,39.448c6.704,31.328,26.568,57.776,53.488,73.4v8.288   l-41.304,6.352c-36.968,5.688-68.048,32.424-79.2,68.12L2.56,496h266.88h8h216V296H469.44z M77.44,216   c0-10.416,6.712-19.216,16-22.528V232c0,2.24,0.208,4.424,0.336,6.632C84.312,235.416,77.44,226.536,77.44,216z M453.44,296   h-44.944l-24,48H309.44v-70.672c0.176-0.44,0.32-0.888,0.488-1.328h47.512v-48h96V296z M127.6,380.136l10-24.984l14.384-2.216   l37.512,112.536l-45.968-35.752l16.648-33.288L127.6,380.136z M177.168,377.888c4.36,2.12,9.392,3.712,14.952,4.768l-8.584,14.312   L177.168,377.888z M205.44,391.552l15.248,25.408l-15.248,45.736l-15.248-45.736L205.44,391.552z M227.352,396.968l-8.584-14.312   c5.56-1.056,10.584-2.648,14.952-4.768L227.352,396.968z M245.44,342.696l-0.472,1.424C242.576,350.216,233.24,368,205.44,368   c-27.816,0-37.128-17.72-39.52-23.864l-0.48-1.44v-6.208c12.44,4.784,25.896,7.512,40,7.512s27.56-2.728,40-7.512V342.696z    M258.896,352.936l10.544,1.616v32.504l-18.736,9.368l16.648,33.296l-45.968,35.752L258.896,352.936z M261.44,337.136v-8.288   c12.36-7.176,23.208-16.616,32-27.792V344h-7.232l0.456-2.984L261.44,337.136z M341.44,235.312V256h-20.688L341.44,235.312z    M333.44,216c0,1.816-0.272,3.608-0.68,5.368l-15.576,15.576c0.08-1.656,0.256-3.28,0.256-4.944v-38.528   C326.728,196.784,333.44,205.584,333.44,216z M109.44,232v-43.832l8.344-5.84C161.088,152.016,211.896,136,264.736,136l0.736,0.472   c8.328,12.488,21.392,20.712,35.968,22.928V232c0,8.224-1.152,16.168-3.104,23.792l-4.896,4.896v9.568   c-14.816,33.936-48.664,57.744-88,57.744C152.504,328,109.44,284.936,109.44,232z M44.208,416.376   c9.336-29.896,35.392-52.304,66.36-57.072l8.672-1.336l-11.96,29.896l31.424,15.712l-15.352,30.712L182.128,480h-79.624   l6.872-55.008l-15.872-1.984L86.376,480H24.32L44.208,416.376z M228.752,480l40.688-31.64V480H228.752z M285.44,480v-72h160v-16   h-160v-32h108.944l24-48h59.056v80h-16v16h16v72H285.44z"/>
	<rect x="421.44" y="328" style="fill:#333333;" width="40" height="16"/>
</g>
<g>
</g>
<g>
</g>
<g>
</g>
<g>
</g>
<g>
</g>
<g>
</g>
<g>
</g>
<g>
</g>
<g>
</g>
<g>
</g>
<g>
</g>
<g>
</g>
<g>
</g>
<g>
</g>
<g>
</g>
</svg>
