<?xml version="1.0" encoding="iso-8859-1"?>
<!-- Generator: Adobe Illustrator 19.0.0, SVG Export Plug-In . SVG Version: 6.00 Build 0)  -->
<svg xmlns="http://www.w3.org/2000/svg" xmlns:xlink="http://www.w3.org/1999/xlink" version="1.1" id="Capa_1" x="0px" y="0px" viewBox="0 0 496 496" style="enable-background:new 0 0 496 496;" xml:space="preserve">
<g>
	<path style="fill:#FFA64D;" d="M349.44,122.592c0-32.392-19.832-61.176-49.752-72.84C288.024,19.832,259.24,0,226.848,0H205.44   c-79.4,0-144,64.6-144,144v224h8.288c11.528-8.432,24.96-14.344,39.624-16.6l48.088-7.4v-19.848   c-28.672-15.008-49.504-42.96-54.648-76.152h-1.352c-17.672,0-32-14.328-32-32s14.328-32,32-32v-16v-8c0-22.088,17.912-40,40-40   h83.152c18.808,0,37.192-5.568,52.848-16c19.608,9.808,32,29.848,32,51.776V168v16c17.672,0,32,14.328,32,32s-14.328,32-32,32   h-1.352c-5.136,33.192-25.968,61.144-54.648,76.152V344l48.088,7.4c14.28,2.2,27.48,7.768,38.808,15.84l9.104,0.76V122.592z"/>
	<path style="fill:#FFA64D;" d="M373.44,488L373.44,488c-17.672,0-32-14.328-32-32v-40h64v40C405.44,473.672,391.112,488,373.44,488   z"/>
</g>
<g>
	<path style="fill:#333333;" d="M261.024,266.528l-15.168-5.064C245.792,261.656,238.744,280,205.44,280   c-33.152,0-40.168-17.888-40.456-18.648l-15.136,5.176C150.256,267.736,160.2,296,205.44,296S260.624,267.736,261.024,266.528z"/>
	<path style="fill:#333333;" d="M461.44,304.808V281.76c4.872-4.392,8-10.696,8-17.76c0-13.232-10.768-24-24-24h-32   c-13.232,0-24,10.768-24,24c0,7.064,3.128,13.36,8,17.76v23.048c-15.896,3.24-28.376,15.936-31.328,31.936   c-11.856,2.208-21.76,9.704-27.464,19.904c-10.992-6.616-23.2-11.2-35.904-13.152l-41.304-6.36v-8.288   c26.92-15.624,46.784-42.072,53.488-73.4c19.44-2.712,34.512-19.272,34.512-39.448c0-19.312-13.768-35.472-32-39.192v-21.032   c0-25.12-13.952-47.696-36.424-58.936l-4.16-2.072L273,97.344C258.616,106.936,241.888,112,224.6,112h-83.16   c-26.472,0-48,21.528-48,48v16.808c-18.232,3.72-32,19.88-32,39.192c0,20.176,15.072,36.736,34.512,39.448   c6.704,31.328,26.568,57.776,53.488,73.4v8.288l-41.312,6.352c-36.952,5.688-68.048,32.424-79.192,68.12L2.56,496h370.88   c14.312,0,26.8-7.624,33.872-18.96c8.776,11.496,22.576,18.96,38.128,18.96c26.472,0,48-21.528,48-48V344   C493.44,324.68,479.672,308.52,461.44,304.808z M413.44,256h32c4.416,0,8,3.584,8,8s-3.584,8-8,8h-32c-4.416,0-8-3.584-8-8   S409.024,256,413.44,256z M405.44,320h8v-32h32v32h8c10.416,0,19.216,6.712,22.528,16H461.44v16h16v60.32   c-8.504-7.632-19.696-12.32-32-12.32s-23.496,4.688-32,12.32V376c0-9.04-3.128-17.296-8.208-24h40.208v-16h-62.528   C386.224,326.712,395.024,320,405.44,320z M476.304,440h-61.728c3.576-13.768,15.992-24,30.864-24S472.728,426.232,476.304,440z    M373.44,352c13.232,0,24,10.768,24,24v32h-48v-32C349.44,362.768,360.208,352,373.44,352z M333.792,372.52   c-0.104,1.168-0.352,2.288-0.352,3.48v80c0,9.04,3.128,17.296,8.208,24h-17.144l-7.128-56.992l-15.872,1.984L308.376,480H213.44   v-10.584l88.184-35.28l-33.864-25.4l35.64-21.392l-11.752-29.384l8.664,1.336C312.296,361.144,323.744,365.776,333.792,372.52z    M137.6,355.144l14.776-2.272l37.864,94.656L141.968,429.6l29.792-22.344l-44.36-26.608L137.6,355.144z M258.504,352.872   l14.776,2.272l10.2,25.504l-44.36,26.608l30.136,22.6l-49.448,19.776L258.504,352.872z M333.44,216   c0,10.536-6.872,19.416-16.336,22.632c0.128-2.208,0.336-4.392,0.336-6.632v-38.528C326.728,196.784,333.44,205.584,333.44,216z    M141.44,128h83.16c18.808,0,37.072-5.072,53.12-14.704c14.736,9.04,23.72,24.944,23.72,42.48v8.672   c-4.728-2.752-10.144-4.448-16-4.448h-32c-13.216,0-24.576,8.056-29.456,19.504C219.28,177.584,213.16,176,205.44,176   s-13.84,1.584-18.544,3.504C182.016,168.056,170.656,160,157.44,160h-32c-5.856,0-11.272,1.696-16,4.448V160   C109.44,142.352,123.792,128,141.44,128z M301.44,192c0,8.824-7.176,16-16,16h-32c-8.824,0-16-7.176-16-16s7.176-16,16-16h32   C294.264,176,301.44,183.176,301.44,192z M173.44,192c0,8.824-7.176,16-16,16h-32c-8.824,0-16-7.176-16-16s7.176-16,16-16h32   C166.264,176,173.44,183.176,173.44,192z M77.44,216c0-10.416,6.712-19.216,16-22.528V232c0,2.24,0.208,4.424,0.336,6.632   C84.312,235.416,77.44,226.536,77.44,216z M109.44,232v-12.448c4.728,2.752,10.144,4.448,16,4.448h32   c16.176,0,29.448-12.104,31.568-27.712c2.68-1.704,8.072-4.288,16.432-4.288c8.392,0,13.792,2.608,16.432,4.28   c2.12,15.608,15.384,27.72,31.568,27.72h32c5.856,0,11.272-1.696,16-4.448V232c0,52.936-43.064,96-96,96S109.44,284.936,109.44,232   z M205.44,344c14.104,0,27.56-2.728,40-7.512v5.968l-40,100l-40-100v-5.968C177.88,341.272,191.336,344,205.44,344z M44.2,416.376   c9.352-29.896,35.4-52.304,66.368-57.072l8.664-1.336l-11.752,29.384l35.64,21.392L108.912,434.4l88.528,32.88V480h-94.936   l6.872-55.008l-15.872-1.984L86.376,480H24.32L44.2,416.376z M397.44,456c0,13.232-10.768,24-24,24s-24-10.768-24-24v-32h48V456z    M445.44,480c-14.872,0-27.288-10.232-30.864-24h61.728C472.728,469.768,460.312,480,445.44,480z"/>
</g>
<g>
</g>
<g>
</g>
<g>
</g>
<g>
</g>
<g>
</g>
<g>
</g>
<g>
</g>
<g>
</g>
<g>
</g>
<g>
</g>
<g>
</g>
<g>
</g>
<g>
</g>
<g>
</g>
<g>
</g>
</svg>
