<?xml version="1.0" encoding="iso-8859-1"?>
<!-- Generator: Adobe Illustrator 19.0.0, SVG Export Plug-In . SVG Version: 6.00 Build 0)  -->
<svg xmlns="http://www.w3.org/2000/svg" xmlns:xlink="http://www.w3.org/1999/xlink" version="1.1" id="Capa_1" x="0px" y="0px" viewBox="0 0 496 496" style="enable-background:new 0 0 496 496;" xml:space="preserve">
<path style="fill:#FFA64D;" d="M336,128c0-27.6-9.496-54.672-26.736-76.232l-31.928-39.896C271.304,4.328,262.296,0,252.64,0  c-10.6,0-20.44,5.264-26.312,14.088l-1.968,2.952c-2.904,4.36-7.768,6.96-13,6.96h-6.72c-5.232,0-10.096-2.6-13-6.96l-1.968-2.952  C183.8,5.264,173.96,0,163.36,0c-9.656,0-18.664,4.328-24.704,11.864l-31.92,39.896C89.496,73.328,80,100.4,80,128  c40,0,64,40,128,40S296,128,336,128z"/>
<g>
	<path style="fill:#333333;" d="M319.936,423.008l-15.872,1.984L306.936,448H277.76l-9.416-28.256   c7.064-2.976,13.944-6.432,20.544-10.448c4.72-2.872,9.384-5.888,14.096-9.056C318.656,389.712,328,372.096,328,353.104   c0-22.128-12.648-41.736-32.376-51.168c38.096-13,79.368-12.128,116.872,2.88l7.2,2.88l9.96,9.96l16.576-16.576l-27.8-11.12   c-35.304-14.128-73.656-16.752-110.232-8.224c4.112-8.256,7.304-17.04,9.288-26.288c6.904-0.96,13.2-3.632,18.512-7.648v0.2   c58.984,0,80-33.056,80-64c0-35.888-35.144-64-80-64c-12.304,0-23.096,3.32-33.552,8H256v16h15.208   c-16.816,8.416-36.384,16-63.208,16s-46.392-7.584-63.208-16H240v-16H113.552c-10.456-4.68-21.248-8-33.552-8   c-44.856,0-80,28.112-80,64c0,30.944,21.016,64,80,64v-0.208c5.312,4.024,11.608,6.688,18.512,7.648   c3.696,17.28,11.4,33.064,22.072,46.392c-18.888,8.936-31.192,27.2-32.344,48.08c-26.952,11.104-48.008,33.712-56.744,61.688   L5.12,496h221.936h73.888H400v-16h-72.936L319.936,423.008z M319.664,238.632C319.792,236.424,320,234.24,320,232v-38.528   c9.288,3.312,16,12.112,16,22.528C336,226.536,329.128,235.416,319.664,238.632z M400,184c0,26.656-18.848,43.752-51.064,47.288   c1.96-4.712,3.064-9.872,3.064-15.288c0-19.312-13.768-35.472-32-39.192V138.48c5.184-1.544,10.456-2.48,16-2.48   C371.888,136,400,157.088,400,184z M16,184c0-26.912,28.112-48,64-48c5.544,0,10.816,0.936,16,2.48v38.328   c-18.232,3.72-32,19.88-32,39.192c0,5.416,1.104,10.576,3.064,15.288C34.848,227.752,16,210.656,16,184z M80,216   c0-10.416,6.712-19.216,16-22.528V232c0,2.24,0.208,4.424,0.336,6.632C86.872,235.416,80,226.536,80,216z M112,144.976   c4.12,2.024,8.304,4.248,12.664,6.584C146.032,163.016,170.248,176,208,176s61.968-12.984,83.336-24.44   c4.36-2.336,8.544-4.56,12.664-6.584V232c0,21.088-6.92,40.544-18.488,56.408c-0.104,0.04-0.216,0.064-0.32,0.104l0.08,0.216   C267.784,312.488,239.704,328,208,328c-52.936,0-96-43.064-96-96V144.976z M245.936,337.24C238.88,344.904,227.216,352,208,352   c-18.928,0-30.56-7.032-37.672-14.656c11.8,4.232,24.44,6.656,37.672,6.656C221.336,344,234.072,341.536,245.936,337.24z    M129.704,315.136l2.432-0.976c4,3.696,8.208,7.168,12.712,10.256C149.424,340.96,167.272,368,208,368s58.576-27.04,63.152-43.584   c4.504-3.088,8.712-6.56,12.712-10.256l2.432,0.976C301.912,321.384,312,336.288,312,353.104c0,13.656-6.704,26.312-17.928,33.856   c-4.504,3.032-8.976,5.92-13.496,8.664C258.672,408.96,233.536,416,207.88,416c-24.736,0-48.504-6.28-68.736-18.152   c-5.36-3.152-11-6.712-17.216-10.896C110.704,379.416,104,366.76,104,353.104C104,336.288,114.088,321.384,129.704,315.136z    M105.064,480l6.872-55.008l-15.872-1.984L88.936,480H26.88l19.88-63.624c6.816-21.824,22.52-39.856,42.872-49.752   c3.304,13.608,11.52,25.648,23.368,33.608c6.496,4.36,12.392,8.096,18.04,11.408c22.688,13.328,49.264,20.36,76.84,20.36   c17.272,0,34.32-2.912,50.512-8.456L250.232,448h-37.544l25.576,25.576L235.056,480H105.064z M252.944,480l4.792-9.576L251.312,464   h10.456l2.232-6.704l2.232,6.704h10.456l-6.424,6.424l4.792,9.576H252.944z M292.944,480l-3.208-6.424l18.136-18.136l3.064,24.56   H292.944z"/>
	<path style="fill:#333333;" d="M144,270.328V296h128v-25.672C272,249.192,254.808,232,233.672,232H182.32   C161.192,232,144,249.192,144,270.328z M160,270.328C160,258.016,170.016,248,182.328,248h51.352   c12.304,0,22.32,10.016,22.32,22.328V280h-96V270.328z"/>
</g>
<circle style="fill:#FFA64D;" cx="400" cy="400" r="96"/>
<g>
	<path style="fill:#333333;" d="M451.208,423.304L432.864,400l18.344-23.304l1.288,2.24l13.856-8l-8-13.856l-13.856,8l1.296,2.24   l-29.352,4.232L405.416,344H408v-16h-16v16h2.584l-11.016,27.536l-29.352-4.232l1.296-2.24l-13.856-8l-8,13.856l13.856,8   l1.288-2.24L367.136,400l-18.344,23.304l-1.288-2.24l-13.856,8l8,13.856l13.856-8l-1.296-2.24l29.352-4.232L394.584,456H392v16h16   v-16h-2.584l11.016-27.536l29.352,4.232l-1.296,2.24l13.856,8l8-13.856l-13.856-8L451.208,423.304z M422.912,413.232l-16.664-2.4   L400,426.464l-6.256-15.632l-16.664,2.4L387.496,400l-10.408-13.232l16.664,2.4L400,373.536l6.256,15.632l16.664-2.4L412.504,400   L422.912,413.232z"/>
	<path style="fill:#333333;" d="M156,216c11.024,0,20-8.976,20-20s-8.976-20-20-20s-20,8.976-20,20S144.976,216,156,216z M156,192   c2.208,0,4,1.792,4,4s-1.792,4-4,4s-4-1.792-4-4S153.792,192,156,192z"/>
	<path style="fill:#333333;" d="M260,216c11.024,0,20-8.976,20-20s-8.976-20-20-20s-20,8.976-20,20S248.976,216,260,216z M260,192   c2.208,0,4,1.792,4,4s-1.792,4-4,4s-4-1.792-4-4S257.792,192,260,192z"/>
</g>
<g>
</g>
<g>
</g>
<g>
</g>
<g>
</g>
<g>
</g>
<g>
</g>
<g>
</g>
<g>
</g>
<g>
</g>
<g>
</g>
<g>
</g>
<g>
</g>
<g>
</g>
<g>
</g>
<g>
</g>
</svg>
