<?xml version="1.0" encoding="iso-8859-1"?>
<!-- Generator: Adobe Illustrator 19.0.0, SVG Export Plug-In . SVG Version: 6.00 Build 0)  -->
<svg xmlns="http://www.w3.org/2000/svg" xmlns:xlink="http://www.w3.org/1999/xlink" version="1.1" id="Capa_1" x="0px" y="0px" viewBox="0 0 496.144 496.144" style="enable-background:new 0 0 496.144 496.144;" xml:space="preserve">
<g>
	<path style="fill:#FFA64D;" d="M240.632,6.592L205.512,0l-35.12,6.584c-46.064,8.64-83.904,43.392-96.4,88.536l263.224,0.648   C324.88,50.288,286.968,15.28,240.632,6.592z"/>
	<path style="fill:#FFA64D;" d="M309.512,152.144h-208l-4.44,70.656l8.824,5.872c11.248,7.504,24.344,11.472,37.864,11.472h20.768   c13.672,0,25.536-9.264,28.856-22.536c1.4-5.576,6.384-9.464,12.128-9.464s10.728,3.888,12.128,9.472   c3.32,13.264,15.184,22.528,28.856,22.528h20.768c13.52,0,26.616-3.968,37.864-11.472l8.824-5.872L309.512,152.144z"/>
	<rect x="357.512" y="208.144" style="fill:#FFA64D;" width="48" height="32"/>
</g>
<g>
	<path style="fill:#333333;" d="M261.104,266.672l-15.176-5.064c-0.072,0.192-7.112,18.536-40.416,18.536   c-33.144,0-40.168-17.888-40.456-18.648l-15.136,5.176c0.408,1.208,10.344,29.472,55.592,29.472S260.696,267.88,261.104,266.672z"/>
	<rect x="373.512" y="144.144" style="fill:#333333;" width="16" height="16"/>
	<path style="fill:#333333;" d="M493.512,160.144v-48h-16v-64h-48v64h-16v16.248c-7.296-9.8-18.872-16.248-32-16.248   c-9.208,0-17.584,3.248-24.352,8.496c-1.792-18.192-17-32.496-35.648-32.496h-45.368c-6.968,0-13.624,2-19.32,5.736   c-5.688-3.736-12.344-5.736-19.312-5.736h-65.368c-6.968,0-13.624,2-19.32,5.736c-5.688-3.736-12.344-5.736-19.312-5.736h-44   c-19.848,0-36,16.152-36,36c0,9.928,4.04,18.928,10.56,25.448c-1.592,9.208-2.56,18.536-2.56,27.848v38.704   c0,19.312,13.768,35.472,32,39.192v4.12c0,35.352,21.792,65.68,52.632,78.344l-37.936,5.84c-36.968,5.688-68.048,32.424-79.2,68.12   L2.632,496.144h378.88c22.056,0,40-17.944,40-40v-152v-56v-88h24v264h-16v16h16v48h16v-48h16v-16h-16v-264H493.512z    M445.512,64.144h16v48h-16V64.144z M317.512,423.648v-59.616c8.728,3.352,16.816,8.16,24,14.304v77.808   c0,9.04,3.128,17.296,8.208,24h-25.144L317.512,423.648z M341.512,304.144v54.296c-11.64-7.576-24.728-12.656-38.696-14.808   l-37.936-5.84c30.84-12.656,52.632-42.984,52.632-78.336v-4.12c9.808-2,18.224-7.68,24-15.44v8.248V304.144z M165.512,343.088   c4.152,0.624,8.368,1.056,12.688,1.056h3.312v14.224c-7.232-1.136-12.616-2.584-16-3.696V343.088z M197.512,344.144h16v15.808   c-2.544,0.112-5.192,0.192-8,0.192s-5.456-0.08-8-0.192V344.144z M229.512,344.144h3.312c4.32,0,8.536-0.432,12.688-1.056v11.576   c-3.392,1.12-8.776,2.576-16,3.704V344.144z M317.512,160.144h4c3.72,0,7.232-0.728,10.608-1.776   c0.824,6.328,1.392,12.696,1.392,19.072v6.904c-4.672-3.536-10.056-6.184-16-7.392V160.144z M317.512,193.616   c9.288,3.312,16,12.112,16,22.528s-6.712,19.216-16,22.528V193.616z M89.512,160.144h4v16.808c-5.944,1.216-11.328,3.856-16,7.392   v-6.904c0-6.368,0.568-12.736,1.392-19.072C82.28,159.416,85.792,160.144,89.512,160.144z M77.512,216.144   c0-10.416,6.712-19.216,16-22.528v45.048C84.224,235.36,77.512,226.56,77.512,216.144z M93.512,144.144h-4   c-11.024,0-20-8.968-20-20s8.976-20,20-20h44c5.16,0,10.008,2.008,13.656,5.656l5.656,5.656l5.664-5.656   c3.64-3.648,8.496-5.656,13.656-5.656h65.368c5.16,0,10.008,2.008,13.656,5.656l5.656,5.656l5.664-5.656   c3.64-3.648,8.496-5.656,13.656-5.656h45.368c11.024,0,20,8.968,20,20s-8.976,20-20,20h-4h-8h-208H93.512z M109.512,259.456   v-99.312h192v99.312c0,37.872-30.816,68.688-68.688,68.688H178.2C140.328,328.144,109.512,297.328,109.512,259.456z    M139.52,355.008l65.616,90.224l22.56-27.576l-12.384-10.128l-9.44,11.528l-33.544-46.128c8.32,1.736,19.272,3.216,33.184,3.216   c17.624,0,30.648-2.344,39.264-4.616l-21.456,26.216l12.384,10.128l42.424-51.848l22.264,3.424   c0.376,0.056,0.744,0.152,1.128,0.216v64.48l6.944,56H102.576l6.872-55.008l0.056-65.432c0.384-0.064,0.744-0.2,1.128-0.256   L139.52,355.008z M44.28,416.52c7.544-24.16,26.088-43.24,49.232-52.264v59.392l-7.064,56.496H24.392L44.28,416.52z    M381.512,480.144c-13.232,0-24-10.768-24-24V335.936c6.704,5.08,14.96,8.208,24,8.208s17.296-3.128,24-8.208v120.208   C405.512,469.376,394.744,480.144,381.512,480.144z M405.512,304.144c0,13.232-10.768,24-24,24s-24-10.768-24-24v-56v-96   c0-13.232,10.768-24,24-24s24,10.768,24,24v96V304.144z M429.512,128.144h48v16h-48V128.144z"/>
</g>
<g>
</g>
<g>
</g>
<g>
</g>
<g>
</g>
<g>
</g>
<g>
</g>
<g>
</g>
<g>
</g>
<g>
</g>
<g>
</g>
<g>
</g>
<g>
</g>
<g>
</g>
<g>
</g>
<g>
</g>
</svg>
