<?xml version="1.0" encoding="iso-8859-1"?>
<!-- Generator: Adobe Illustrator 19.0.0, SVG Export Plug-In . SVG Version: 6.00 Build 0)  -->
<svg xmlns="http://www.w3.org/2000/svg" xmlns:xlink="http://www.w3.org/1999/xlink" version="1.1" id="Capa_1" x="0px" y="0px" viewBox="0 0 496 496" style="enable-background:new 0 0 496 496;" xml:space="preserve">
<path style="fill:#FFA64D;" d="M208,0C128.6,0,64,64.6,64,144v72h8c0-17.672,14.328-32,32-32v-32h208v32c17.672,0,32,14.328,32,32h8  v-72C352,64.6,287.4,0,208,0z"/>
<g>
	<path style="fill:#333333;" d="M433.936,243.312c-25.592-5.904-45.288-27.344-49-53.36l-0.208-1.44   C390.56,185.648,397.08,184,404,184h24c37.496,0,68-30.504,68-68s-30.504-68-68-68h-36c-22.056,0-40-17.944-40-40h-16v16   c0,34.992,36.656,72,71.312,72C420.92,96,432,107.072,432,120.688c0,7.344-3.24,14.264-8.888,18.968l-36.232,30.2l0.456,0.552   c-16.76,4.856-30.488,16.84-37.736,32.448c-4.608-13.128-15.736-23.216-29.6-26.04V120h-16v24h-40v-24h-16v24h-32v-24h-16v24h-32   v-24h-16v24h-40v-24H96v56.808c-18.232,3.72-32,19.88-32,39.192c0,3.832,0.712,7.456,1.72,10.968l-7.52,7.52   c-6.576,6.576-10.2,15.328-10.2,24.624c0,2.568,0.304,5.08,0.84,7.52l-17.096,8.544C12.168,284.976,0,304.656,0,326.552   c0,27.792,19.856,51.04,46.12,56.312c-6.336,8.616-11.36,18.28-14.632,28.744L5.12,496H280h192c13.232,0,24-10.768,24-24   c0-10.416-6.712-19.216-16-22.528v-3.16c0-16.848-12.64-30.824-29.408-32.496l-25.952-2.592   c-11.272-1.128-20.256-8.912-23.392-19.224H436c31.736,0,57.728-24.784,59.8-56h0.2v-14.68   C496,283.832,470.48,251.752,433.936,243.312z M433.36,151.944c9.304-7.752,14.64-19.144,14.64-31.256   C448,98.256,429.752,80,407.312,80c-14.544,0-30.24-9.456-41.184-22.384C373.872,61.672,382.664,64,392,64h36   c28.672,0,52,23.328,52,52s-23.328,52-52,52h-13.904L433.36,151.944z M370.528,199.512c7.032,29.16,30.248,52.568,59.816,59.392   c13.52,3.12,25.12,10.328,33.72,20.096c-8.376-4.448-17.928-7-28.064-7h-32c-24.256,0-44-19.736-44-44   C360,217.136,363.976,207.192,370.528,199.512z M344.992,238.552C350,266.616,374.52,288,404,288h23.496   c0.224,0.392,0.488,0.768,0.704,1.168c7.424,13.584,8.832,29.464,3.976,44.704c-5.2,16.288-17.016,29.936-32.424,37.448   l-10.904,5.312c-6.664,1.096-12.832,3.672-18.136,7.416c-15.408-21.768-38.808-36.464-65.408-40.552L264,337.136v-8.288   c26.92-15.624,46.784-42.072,53.488-73.4C328.872,253.864,338.768,247.632,344.992,238.552z M257.472,480H114.48   c-16.336-22.616-11.968-55.016,10.64-73.848l6.024-5.024l-30.912-38.64c4.184-1.368,8.464-2.504,12.888-3.184l10.2-1.568   C130.184,378.16,150.608,416,208,416c22.664,0,41.808-5.952,56.896-17.688l-9.832-12.624C242.856,395.184,227.024,400,208,400   c-45.664,0-62.656-27.936-68.776-44.712l15.544-2.392C161.056,366.336,177.184,384,208,384s46.944-17.664,53.232-31.104   l15.472,2.384c-2.136,5.808-5.512,12.912-10.984,19.816l12.544,9.936c7.616-9.616,12.024-19.648,14.536-27.272l10.064,1.552   c4.424,0.68,8.704,1.824,12.888,3.176l-30.912,38.648l6.024,5.024c12.736,10.608,20.096,25.872,20.496,41.848H280   c-13.232,0-24,10.768-24,24C256,474.816,256.576,477.488,257.472,480z M248,342.832C246.624,347,238.216,368,208,368   c-30.208,0-38.6-20.904-40-25.168v-6.344c12.44,4.784,25.896,7.512,40,7.512s27.56-2.728,40-7.512V342.832z M327.344,448   c-0.344-18.144-7.608-35.568-20.456-48.808l24.064-30.08c11.344,6.408,21.08,15.464,28.384,26.608   C354.712,402.688,352,411.032,352,420c0,10.624,3.792,20.384,10.088,28H327.344z M336,216c0,10.536-6.872,19.416-16.336,22.632   C319.792,236.424,320,234.24,320,232v-38.528C329.288,196.784,336,205.584,336,216z M304,160v72c0,52.936-43.064,96-96,96   s-96-43.064-96-96v-72H304z M96,193.472V232c0,2.24,0.208,4.424,0.336,6.632C86.872,235.416,80,226.536,80,216   C80,205.584,86.712,196.784,96,193.472z M69.512,245.8l4.096-4.096c6.216,7.336,14.936,12.352,24.904,13.744   c1.936,9.04,5.032,17.624,9.008,25.72l-0.2,0.2c-6.792,6.792-17.576,7.392-25.064,1.392l-11.192-8.944   c-4.488-3.6-7.064-8.96-7.064-14.704C64,254.088,65.96,249.36,69.512,245.8z M16,326.552c0-15.8,8.776-30,22.904-37.064   l16.904-8.456c1.552,1.904,3.28,3.688,5.248,5.264l11.2,8.952c6.4,5.12,14.08,7.632,21.744,7.632c7.696,0,15.28-2.704,21.584-7.728   c9.448,13.776,21.92,25.272,36.408,33.68v8.288l-41.312,6.352c-19.328,2.976-37.016,11.744-51.12,24.504h-2.112   C34.592,368,16,349.408,16,326.552z M46.76,416.376c6.336-20.248,20.416-36.888,38.4-47.112l23.952,29.936   c-11.168,11.504-18.2,26.248-20.04,42.232C87.512,455,89.928,468.256,95.816,480H26.88L46.76,416.376z M272,472   c0-4.416,3.584-8,8-8h116h4h32v16H280C275.584,480,272,476.416,272,472z M472,480h-24v-16h24c4.416,0,8,3.584,8,8   S476.416,480,472,480z M423.048,427.152L449,429.744c8.552,0.848,15,7.976,15,16.568V448h-64h-4c-15.44,0-28-12.56-28-28   c0-11.656,7.168-21.656,17.328-25.864C389.528,411.728,404.28,425.264,423.048,427.152z M436,376h-14.16   c11.864-9.632,20.888-22.568,25.584-37.264c5.32-16.68,4.68-33.992-1.608-49.592C465.36,293.624,480,311.12,480,332   C480,356.256,460.256,376,436,376z"/>
	<path style="fill:#333333;" d="M156,208c11.032,0,20-8.976,20-20s-8.968-20-20-20s-20,8.976-20,20S144.968,208,156,208z M156,184   c2.2,0,4,1.792,4,4s-1.8,4-4,4s-4-1.792-4-4S153.8,184,156,184z"/>
	<path style="fill:#333333;" d="M260,208c11.032,0,20-8.976,20-20s-8.968-20-20-20s-20,8.976-20,20S248.968,208,260,208z M260,184   c2.2,0,4,1.792,4,4s-1.8,4-4,4s-4-1.792-4-4S257.8,184,260,184z"/>
	<path style="fill:#333333;" d="M160,232h-16c0,35.288,28.712,64,64,64s64-28.712,64-64h-16c0,26.472-21.528,48-48,48   S160,258.472,160,232z"/>
</g>
<rect x="400" y="464" style="fill:#FFA64D;" width="32" height="16"/>
<g>
</g>
<g>
</g>
<g>
</g>
<g>
</g>
<g>
</g>
<g>
</g>
<g>
</g>
<g>
</g>
<g>
</g>
<g>
</g>
<g>
</g>
<g>
</g>
<g>
</g>
<g>
</g>
<g>
</g>
</svg>
