<?xml version="1.0" encoding="iso-8859-1"?>
<!-- Generator: Adobe Illustrator 19.0.0, SVG Export Plug-In . SVG Version: 6.00 Build 0)  -->
<svg xmlns="http://www.w3.org/2000/svg" xmlns:xlink="http://www.w3.org/1999/xlink" version="1.1" id="Capa_1" x="0px" y="0px" viewBox="0 0 496 496" style="enable-background:new 0 0 496 496;" xml:space="preserve">
<g>
	<polygon style="fill:#FFA64D;" points="429.44,400 333.44,400 349.44,360 413.44,360  "/>
	<path style="fill:#FFA64D;" d="M205.44,0c-79.4,0-144,64.6-144,144v72h8c0-17.672,14.328-32,32-32h0.552   c3.944-31.56,30.816-56,63.448-56h64c22.088,0,40-17.912,40-40c0,22.088,17.912,40,40,40v56c17.672,0,32,14.328,32,32h8v-72   C349.44,64.6,284.84,0,205.44,0z"/>
</g>
<g>
	<path style="fill:#333333;" d="M469.44,376h-6.112c-3.048,0-5.792-1.696-7.152-4.424l-15.16-30.312   C436.928,333.088,428.704,328,419.552,328h-7.864l-8-32h-36.496l-8,32h-15.864c-9.152,0-17.368,5.088-21.464,13.264l-3.072,6.152   c-5.232-1.736-10.584-3.08-16.04-3.92l-41.312-6.36v-8.288c26.92-15.624,46.784-42.072,53.488-73.4   c19.44-2.712,34.512-19.272,34.512-39.448c0-19.312-13.768-35.472-32-39.192V120h-8c-17.648,0-32-14.352-32-32h-16   c0,17.648-14.352,32-32,32h-64c-34.424,0-63.248,24.304-70.312,56.64C76.08,179.688,61.44,196.104,61.44,216   c0,20.176,15.072,36.736,34.512,39.448c6.704,31.328,26.568,57.776,53.488,73.4v8.288l-41.304,6.352   c-36.968,5.688-68.048,32.424-79.2,68.12L2.56,496h405.76l-7.496-24h5.752c3.576,13.768,16,24,30.864,24s27.288-10.232,30.864-24   h1.136c13.232,0,24-10.768,24-24v-48C493.44,386.768,482.672,376,469.44,376z M379.688,312h11.504l4,16h-19.504L379.688,312z    M311.568,361.856l-4.864,9.72c-1.36,2.728-4.104,4.424-7.152,4.424h-10l2.984-17.896l7.784,1.2   C304.128,359.888,307.88,360.752,311.568,361.856z M253.44,400v23.36l-36.296-31.752l39.088-39.088l20.488,3.152l-3.456,20.752   C262.024,378.416,253.44,388.2,253.44,400z M333.44,216c0,10.536-6.872,19.416-16.336,22.632c0.128-2.208,0.336-4.392,0.336-6.632   v-38.528C326.728,196.784,333.44,205.584,333.44,216z M77.44,216c0-10.416,6.712-19.216,16-22.528V232   c0,2.24,0.208,4.424,0.336,6.632C84.312,235.416,77.44,226.536,77.44,216z M109.44,232v-40c0-30.88,25.12-56,56-56h64   c16.672,0,31.392-8.544,40-21.496c7.2,10.832,18.672,18.584,32,20.824V232c0,52.936-43.064,96-96,96S109.44,284.936,109.44,232z    M205.44,344c14.104,0,27.56-2.728,40-7.512v4.2l-40,40l-40-40v-4.2C177.88,341.272,191.336,344,205.44,344z M154.648,352.52   l39.088,39.088l-46.768,40.92l-12.808-76.856L154.648,352.52z M44.208,416.376c9.336-29.896,35.392-52.304,66.36-57.072l7.784-1.2   l17.56,105.36l61.528-53.832V448h16v-38.368l40,35V448c0,13.232,10.768,24,24,24h1.136c0.744,2.848,1.864,5.52,3.312,8H213.44v-16   h-16v16h-94.936l6.872-55.008l-15.872-1.984L86.376,480H24.32L44.208,416.376z M293.44,464c0-8.824,7.176-16,16-16s16,7.176,16,16   s-7.176,16-16,16S293.44,472.824,293.44,464z M386.56,480h-49.568c1.448-2.48,2.576-5.152,3.312-8h43.76L386.56,480z M437.44,480   c-8.824,0-16-7.176-16-16s7.176-16,16-16s16,7.176,16,16S446.264,480,437.44,480z M477.44,448c0,4.416-3.592,8-8,8h-1.136   c-3.576-13.768-16-24-30.864-24s-27.288,10.232-30.864,24H389.44v-56h-16v56h-33.136c-3.576-13.768-16-24-30.864-24   s-27.288,10.232-30.864,24h-1.136c-4.408,0-8-3.584-8-8v-48c0-4.416,3.592-8,8-8h22.112c9.152,0,17.368-5.088,21.464-13.264   l15.16-30.312c1.36-2.728,4.104-4.424,7.152-4.424h76.224c3.048,0,5.792,1.696,7.152,4.424l15.16,30.312   c4.088,8.176,12.312,13.264,21.464,13.264h6.112c4.408,0,8,3.584,8,8V448z"/>
	<rect x="333.44" y="416" style="fill:#333333;" width="24" height="16"/>
	<path style="fill:#333333;" d="M173.44,188c0-11.024-8.976-20-20-20s-20,8.976-20,20s8.976,20,20,20S173.44,199.024,173.44,188z    M153.44,192c-2.208,0-4-1.792-4-4s1.792-4,4-4s4,1.792,4,4S155.648,192,153.44,192z"/>
	<path style="fill:#333333;" d="M257.44,208c11.024,0,20-8.976,20-20s-8.976-20-20-20s-20,8.976-20,20S246.416,208,257.44,208z    M257.44,184c2.208,0,4,1.792,4,4s-1.792,4-4,4s-4-1.792-4-4S255.232,184,257.44,184z"/>
	<path style="fill:#333333;" d="M245.44,263.976V256h-16v7.976c0,4.424-3.6,8.024-8.024,8.024h-31.944   c-4.432,0-8.032-3.6-8.032-8.024V256h-16v7.976c0,13.248,10.776,24.024,24.024,24.024h31.944   C234.664,288,245.44,277.224,245.44,263.976z"/>
</g>
<g>
</g>
<g>
</g>
<g>
</g>
<g>
</g>
<g>
</g>
<g>
</g>
<g>
</g>
<g>
</g>
<g>
</g>
<g>
</g>
<g>
</g>
<g>
</g>
<g>
</g>
<g>
</g>
<g>
</g>
</svg>
