<?xml version="1.0" encoding="iso-8859-1"?>
<!-- Generator: Adobe Illustrator 19.0.0, SVG Export Plug-In . SVG Version: 6.00 Build 0)  -->
<svg xmlns="http://www.w3.org/2000/svg" xmlns:xlink="http://www.w3.org/1999/xlink" version="1.1" id="Capa_1" x="0px" y="0px" viewBox="0 0 496 496" style="enable-background:new 0 0 496 496;" xml:space="preserve">
<g>
	<path style="fill:#FFA64D;" d="M109.352,351.4l48.088-7.4v-19.832c-26.352-13.784-46.08-38.488-53.104-68.168H61.44v112h8.288   C81.256,359.568,94.688,353.656,109.352,351.4z"/>
	<path style="fill:#FFA64D;" d="M306.544,256c-7.024,29.672-26.76,54.376-53.104,68.168V344l48.088,7.4   c14.76,2.272,28.4,8.08,39.976,16.6h7.936V256H306.544z"/>
	<path style="fill:#FFA64D;" d="M205.44,0c-79.4,0-144,64.6-144,144v24h40v-8h9.208c51.952,0,103.32-10.904,150.792-32l1.688,3.376   C271.896,148.92,289.832,160,309.44,160v8h40v-24C349.44,64.6,284.84,0,205.44,0z"/>
	<rect x="365.44" y="336" style="fill:#FFA64D;" width="96" height="64"/>
</g>
<g>
	<path style="fill:#333333;" d="M153.44,168c-11.032,0-20,8.976-20,20s8.968,20,20,20s20-8.976,20-20S164.472,168,153.44,168z    M153.44,192c-2.2,0-4-1.792-4-4s1.8-4,4-4s4,1.792,4,4S155.64,192,153.44,192z"/>
	<path style="fill:#333333;" d="M257.44,208c11.032,0,20-8.976,20-20s-8.968-20-20-20s-20,8.976-20,20S246.408,208,257.44,208z    M257.44,184c2.2,0,4,1.792,4,4s-1.8,4-4,4s-4-1.792-4-4S255.24,184,257.44,184z"/>
	<rect x="333.44" y="184" style="fill:#333333;" width="16" height="48"/>
	<rect x="61.44" y="184" style="fill:#333333;" width="16" height="48"/>
	<path style="fill:#333333;" d="M333.44,304v49.728c-9.6-5.016-19.968-8.584-30.688-10.24l-41.312-6.352v-8.288   c14.184-8.232,26.416-19.448,35.784-32.848h12.216c21.144,0,38.336-16.552,39.736-37.352C368.2,249.696,381.44,230.384,381.44,208   c0-30.88-25.128-56-56-56h-8h-8c-16.688,0-31.688-9.272-39.16-24.192l-5.104-10.224l-6.992,3.112   C211.448,141.464,161.808,152,110.648,152h-9.208h-8h-8c-30.872,0-56,25.12-56,56s25.128,56,56,56h12.72   c8.24,27.576,26.856,50.664,51.28,64.848v8.288l-41.312,6.352c-36.952,5.688-68.04,32.424-79.192,68.112L2.56,496h202.88h128h8h152   V304H333.44z M85.44,248c-22.056,0-40-17.944-40-40s17.944-40,40-40h8v64c0,5.448,0.52,10.76,1.28,16H85.44z M133.44,355.784   l19.904-3.064l41.384,68.976L133.44,409.44V355.784z M257.536,352.72l19.904,3.064v53.656l-61.288,12.256L257.536,352.72z    M309.44,280h-2.96c2.456-5.144,4.592-10.464,6.24-16h12.72c2.256,0,4.472-0.176,6.664-0.432   C328.912,273.08,320.016,280,309.44,280z M325.44,168c22.056,0,40,17.944,40,40s-17.944,40-40,40h-9.28   c0.752-5.24,1.28-10.552,1.28-16v-64H325.44z M109.44,232v-64h1.208c50.896,0,100.352-9.992,147.128-29.696   c9.344,16.096,25.4,26.744,43.664,29.168V232c0,17.496-4.776,33.856-12.992,48H227.96c-3.312-9.288-12.112-16-22.528-16   c-13.232,0-24,10.768-24,24s10.768,24,24,24c10.416,0,19.216-6.712,22.528-16h48.824c-17.584,19.584-43.016,32-71.352,32   C152.504,328,109.44,284.936,109.44,232z M213.44,288c0,4.408-3.584,8-8,8s-8-3.592-8-8s3.584-8,8-8S213.44,283.592,213.44,288z    M205.44,344c14.104,0,27.56-2.728,40-7.512v5.296l-40,66.664l-40-66.664v-5.296C177.88,341.272,191.336,344,205.44,344z    M324.504,480l-7.128-56.992l-15.872,1.984L308.376,480H205.44H102.504l6.872-55.008l-15.872-1.984L86.376,480H24.32l19.872-63.624   c9.352-29.904,35.4-52.312,66.368-57.072l6.88-1.056v64.312l88,17.6l88-17.6v-64.312l6.872,1.056   c11.84,1.824,23.152,6.376,33.128,12.992V480H324.504z M477.44,480h-128V320h128V480z"/>
	<rect x="365.44" y="416" style="fill:#333333;" width="96" height="16"/>
	<rect x="365.44" y="448" style="fill:#333333;" width="64" height="16"/>
	<rect x="445.44" y="448" style="fill:#333333;" width="16" height="16"/>
</g>
<g>
</g>
<g>
</g>
<g>
</g>
<g>
</g>
<g>
</g>
<g>
</g>
<g>
</g>
<g>
</g>
<g>
</g>
<g>
</g>
<g>
</g>
<g>
</g>
<g>
</g>
<g>
</g>
<g>
</g>
</svg>
