<?xml version="1.0" encoding="iso-8859-1"?>
<!-- Generator: Adobe Illustrator 19.0.0, SVG Export Plug-In . SVG Version: 6.00 Build 0)  -->
<svg xmlns="http://www.w3.org/2000/svg" xmlns:xlink="http://www.w3.org/1999/xlink" version="1.1" id="Capa_1" x="0px" y="0px" viewBox="0 0 496 496" style="enable-background:new 0 0 496 496;" xml:space="preserve">
<g>
	<polygon style="fill:#FFA64D;" points="341.44,384 421.44,384 413.44,456 349.44,456  "/>
	<path style="fill:#FFA64D;" d="M336.872,368l-3.432-24h16V144c0-79.4-64.6-144-144-144s-144,64.6-144,144v224h8.288   c11.528-8.432,24.96-14.344,39.624-16.6l48.088-7.4v-19.68c-12.16-6.24-22.072-14.112-29.608-21.528   c-11.744-11.56-18.816-27-20.456-43.4L106.24,248h-4.8c-17.672,0-32-14.328-32-32s14.328-32,32-32v-32h46.056   c21.728,0,42.576-8.632,57.944-24c15.368,15.368,36.208,24,57.944,24h6.056h16h24v32c17.672,0,32,14.328,32,32s-14.328,32-32,32   h-4.8l-1.144,11.4c-1.64,16.392-8.712,31.84-20.456,43.4c-7.528,7.408-17.44,15.28-29.6,21.52V344l48.088,7.4   c11.464,1.76,22.256,5.664,31.92,11.304L332.776,368H336.872z"/>
</g>
<g>
	<path style="fill:#333333;" d="M422.664,448l16-112H389.44v-32c0-4.408,3.592-8,8-8h40v-16h-40c-13.232,0-24,10.768-24,24v32   h-49.224l2.04,14.264c-7.512-3.192-15.36-5.52-23.512-6.776l-41.304-6.352v-8.112c11.064-6.28,20.224-13.648,27.216-20.528   c12.856-12.656,20.96-29.808,22.808-48.304l0.44-4.448c20.888-1.296,37.536-18.536,37.536-39.744c0-19.312-13.768-35.472-32-39.192   V144h-32v16h16.008l0.032,39.2l-5.944,59.4c-1.48,14.784-7.904,28.456-18.104,38.488C263.104,311.192,238.984,328,205.44,328   s-57.664-16.808-72-30.904c-10.192-10.032-16.624-23.704-18.104-38.496L109.44,200v-40h38.056c21.448,0,41.744-7.456,57.944-21.144   C221.632,152.544,241.936,160,263.384,160h6.056v-16h-6.056c-19.752,0-38.32-7.688-52.288-21.656l-5.656-5.656l-5.656,5.656   C185.816,136.312,167.248,144,147.496,144H93.44l0.024,32.808C75.216,180.512,61.44,196.68,61.44,216   c0,21.208,16.648,38.448,37.536,39.752l0.448,4.44c1.848,18.496,9.944,35.656,22.8,48.312c6.992,6.88,16.152,14.24,27.216,20.528   v8.112l-41.304,6.352c-36.96,5.688-68.048,32.424-79.2,68.112L2.56,496h266.88h48h176v-48H422.664z M333.44,216   c0,11.84-8.64,21.64-19.936,23.592L317.44,200v-6.528C326.728,196.784,333.44,205.584,333.44,216z M77.44,216   c0-10.432,6.728-19.232,16.032-22.536l0.008,7.336l3.88,38.792C86.072,237.64,77.44,227.84,77.44,216z M420.216,352l-13.712,96   h-50.128l-13.712-96H420.216z M328.984,369.384L340.216,448h-39.912c-1.264-4.872-3.648-9.256-6.864-12.944V358.24l6.872,1.056   C310.464,360.864,320.104,364.272,328.984,369.384z M277.44,425.136c-2.576-0.672-5.224-1.136-8-1.136s-5.424,0.464-8,1.136V353.32   l16,2.464V425.136z M245.44,432h-80v-61.928c8.952,7.768,21.88,13.928,40,13.928s31.048-6.16,40-13.928V432z M149.44,425.136   c-2.576-0.672-5.224-1.136-8-1.136s-5.424,0.464-8,1.136v-69.352l16-2.464V425.136z M141.44,440c8.824,0,16,7.176,16,16   s-7.176,16-16,16s-16-7.176-16-16S132.616,440,141.44,440z M173.44,456c0-2.776-0.464-5.424-1.136-8h66.272   c-0.672,2.576-1.136,5.224-1.136,8c0,9.6,4.336,18.128,11.056,24h-86.112C169.104,474.128,173.44,465.6,173.44,456z M269.44,448v24   c-8.824,0-16-7.176-16-16s7.176-16,16-16c5.896,0,11,3.24,13.776,8H269.44z M245.44,336.656v6.168   c-1.368,4.16-9.768,25.176-40,25.176c-30.224,0-38.608-20.92-40-25.176v-6.168c11.68,4.448,24.992,7.344,40,7.344   S233.76,341.104,245.44,336.656z M44.208,416.376c9.344-29.904,35.392-52.312,66.36-57.072l6.872-1.056v76.816   c-4.92,5.624-8,12.896-8,20.944c0,9.6,4.336,18.128,11.056,24h-18L109.368,425l-15.872-1.984L86.376,480H24.32L44.208,416.376z    M477.44,480h-160h-32v-16h57.064h77.872h57.064V480z"/>
	<path style="fill:#333333;" d="M173.44,188c0-11.024-8.976-20-20-20s-20,8.976-20,20s8.976,20,20,20S173.44,199.024,173.44,188z    M153.44,192c-2.208,0-4-1.792-4-4s1.792-4,4-4s4,1.792,4,4S155.648,192,153.44,192z"/>
	<path style="fill:#333333;" d="M237.44,188c0,11.024,8.976,20,20,20s20-8.976,20-20s-8.976-20-20-20S237.44,176.976,237.44,188z    M261.44,188c0,2.208-1.792,4-4,4s-4-1.792-4-4s1.792-4,4-4S261.44,185.792,261.44,188z"/>
	<path style="fill:#333333;" d="M205.44,296c35.288,0,64-28.712,64-64h-16c0,26.472-21.528,48-48,48s-48-21.528-48-48h-16   C141.44,267.288,170.152,296,205.44,296z"/>
</g>
<g>
</g>
<g>
</g>
<g>
</g>
<g>
</g>
<g>
</g>
<g>
</g>
<g>
</g>
<g>
</g>
<g>
</g>
<g>
</g>
<g>
</g>
<g>
</g>
<g>
</g>
<g>
</g>
<g>
</g>
</svg>
