<?xml version="1.0" encoding="iso-8859-1"?>
<!-- Generator: Adobe Illustrator 19.0.0, SVG Export Plug-In . SVG Version: 6.00 Build 0)  -->
<svg xmlns="http://www.w3.org/2000/svg" xmlns:xlink="http://www.w3.org/1999/xlink" version="1.1" id="Capa_1" x="0px" y="0px" viewBox="0 0 496 496" style="enable-background:new 0 0 496 496;" xml:space="preserve">
<g>
	<path style="fill:#FFA64D;" d="M205.44,0c-79.4,0-144,64.6-144,144v72h8c0-17.672,14.328-32,32-32v-40c0-8.84,7.16-16,16-16h176   c8.84,0,16,7.16,16,16v40c17.672,0,32,14.328,32,32h8v-72C349.44,64.6,284.84,0,205.44,0z"/>
	<rect x="325.44" y="376" style="fill:#FFA64D;" width="32" height="32"/>
	<rect x="421.44" y="376" style="fill:#FFA64D;" width="32" height="32"/>
</g>
<g>
	<path style="fill:#333333;" d="M469.44,336h-0.408c-4.024-40.368-38.184-72-79.592-72s-75.568,31.632-79.592,72h-0.408   c-6.08,0-11.584,2.344-15.816,6.088l-32.184-4.952v-8.296c26.92-15.624,46.784-42.072,53.488-73.4   c19.44-2.704,34.512-19.264,34.512-39.44c0-19.312-13.768-35.472-32-39.192V144c0-13.232-10.768-24-24-24h-176   c-13.232,0-24,10.768-24,24v32.808c-18.232,3.72-32,19.88-32,39.192c0,20.176,15.072,36.736,34.512,39.448   c6.704,31.328,26.568,57.776,53.488,73.4v8.296l-41.304,6.352c-36.968,5.688-68.048,32.424-79.2,68.12L2.56,496h306.88h8h152   c13.232,0,24-10.768,24-24V360C493.44,346.768,482.672,336,469.44,336z M389.44,280c32.576,0,59.488,24.48,63.448,56H436.72   c-3.824-22.664-23.536-40-47.28-40s-43.448,17.336-47.28,40h-16.168C329.952,304.48,356.864,280,389.44,280z M420.304,336h-61.728   c3.576-13.768,16-24,30.864-24S416.728,322.232,420.304,336z M198.256,388.424l-19.56,32.6l-31.336-18.8l-25.336-44.688   l33.056-5.088L198.256,388.424z M255.792,352.456l29.944,4.608c-0.12,0.968-0.296,1.928-0.296,2.936v1.024l-22.016,41.256   l-31.24,18.744l-19.56-32.6L255.792,352.456z M226.696,442.976l48.76-29.256l9.984-18.712V472c0,2.816,0.576,5.488,1.472,8H213.44   v-59.12L226.696,442.976z M333.44,216c0,10.536-6.872,19.416-16.336,22.632c0.128-2.208,0.336-4.392,0.336-6.632v-38.528   C326.728,196.784,333.44,205.584,333.44,216z M77.44,216c0-10.416,6.712-19.216,16-22.528V232c0,2.24,0.208,4.424,0.336,6.632   C84.312,235.416,77.44,226.536,77.44,216z M109.44,232v-88c0-4.408,3.592-8,8-8h176c4.408,0,8,3.592,8,8v88   c0,52.936-43.064,96-96,96S109.44,284.936,109.44,232z M205.44,344c14.104,0,27.56-2.728,40-7.512v3.768l-40,33.336l-40-33.336   v-3.768C177.88,341.272,191.336,344,205.44,344z M105.312,360.504l30.2,53.272l48.664,29.2l13.264-22.096V480h-94.936l6.872-55.008   l-15.872-1.984l-3.968,31.768L36.36,441.48l7.848-25.112C53.008,388.2,76.704,366.88,105.312,360.504z M31.576,456.776   l55.952,13.984L86.376,480H24.32L31.576,456.776z M469.44,480h-152h-8c-4.408,0-8-3.584-8-8v-72h24v-16h-24v-24   c0-4.416,3.592-8,8-8h160c4.408,0,8,3.584,8,8v24h-24v16h24v72C477.44,476.416,473.848,480,469.44,480z"/>
	<rect x="357.44" y="384" style="fill:#333333;" width="64" height="16"/>
	<path style="fill:#333333;" d="M173.44,188c0-11.024-8.976-20-20-20s-20,8.976-20,20s8.976,20,20,20S173.44,199.024,173.44,188z    M149.44,188c0-2.208,1.792-4,4-4s4,1.792,4,4s-1.792,4-4,4S149.44,190.208,149.44,188z"/>
	<path style="fill:#333333;" d="M257.44,208c11.024,0,20-8.976,20-20s-8.976-20-20-20s-20,8.976-20,20S246.416,208,257.44,208z    M257.44,184c2.208,0,4,1.792,4,4s-1.792,4-4,4s-4-1.792-4-4S255.232,184,257.44,184z"/>
	<path style="fill:#333333;" d="M269.44,232h-16c0,26.472-21.528,48-48,48s-48-21.528-48-48h-16c0,35.288,28.712,64,64,64   S269.44,267.288,269.44,232z"/>
	<rect x="229.44" y="456" style="fill:#333333;" width="16" height="16"/>
</g>
<g>
</g>
<g>
</g>
<g>
</g>
<g>
</g>
<g>
</g>
<g>
</g>
<g>
</g>
<g>
</g>
<g>
</g>
<g>
</g>
<g>
</g>
<g>
</g>
<g>
</g>
<g>
</g>
<g>
</g>
</svg>
