<?xml version="1.0" encoding="iso-8859-1"?>
<!-- Generator: Adobe Illustrator 19.0.0, SVG Export Plug-In . SVG Version: 6.00 Build 0)  -->
<svg xmlns="http://www.w3.org/2000/svg" xmlns:xlink="http://www.w3.org/1999/xlink" version="1.1" id="Capa_1" x="0px" y="0px" viewBox="0 0 512.003 512.003" style="enable-background:new 0 0 512.003 512.003;" xml:space="preserve">
<g>
	<g>
		<g>
			<path d="M412.157,377.064h-0.009l-76.134-41.523c-7.245-3.959-11.75-11.546-11.75-19.806v-39.697     c5.709-7.484,22.076-30.822,29.892-61.773c8.055-6.468,12.774-16.145,12.774-26.53v-34.133c0-8.218-3.063-16.179-8.533-22.4     V85.812c0.486-4.685,2.364-32.631-17.852-55.68c-17.519-19.994-45.969-30.131-84.548-30.131     c-38.571,0-67.021,10.138-84.548,30.131c-20.207,23.049-18.33,50.995-17.852,55.68v45.389c-5.461,6.221-8.533,14.182-8.533,22.4     v34.133c0,10.385,4.719,20.062,12.774,26.53c7.817,30.95,24.183,54.289,29.892,61.773v39.697c0,8.26-4.497,15.846-11.75,19.806     l-76.143,41.523c-24.738,13.508-40.107,39.398-40.107,67.584v58.82c0,4.719,3.814,8.533,8.533,8.533H443.73     c4.719,0,8.533-3.814,8.533-8.533v-58.82C452.263,416.462,436.895,390.572,412.157,377.064z"/>
			<path d="M476.982,317.952l-57.446-35.994c-5.888-3.217-9.549-9.37-9.549-16.085v-23.407c6.741-7.04,24.064-27.093,31.095-53.632     c7.057-5.803,11.187-14.387,11.187-23.595v-29.474c0-6.912-3.012-13.858-8.533-19.883l-0.017-39.543     c-0.043-0.759-5.205-76.331-93.85-76.331c-6.135,0-11.964,0.521-17.638,1.289c7.987,4.915,15.121,10.701,21.154,17.587     c23.723,27.059,22.793,59.324,22.084,67.721v38.878c5.538,8.329,8.533,18.099,8.533,28.126v34.133     c0,13.508-5.282,26.249-14.66,35.772c-7.552,26.436-20.275,47.138-28.006,58.104v34.125c0,2.014,1.084,3.857,2.85,4.813     l76.134,41.523c19.499,10.641,34.125,27.614,42.129,47.531h41.02c4.71,0,8.533-3.823,8.533-8.533v-23.868     C512.003,352.529,498.588,329.847,476.982,317.952z"/>
			<path d="M91.665,362.085l76.143-41.532c1.766-0.956,2.859-2.799,2.859-4.813v-34.125c-7.731-10.965-20.463-31.667-28.006-58.104     c-9.387-9.515-14.66-22.263-14.66-35.772v-34.133c0-10.018,2.987-19.789,8.533-28.126V86.604     c-0.708-8.397-1.647-40.661,22.084-67.721c6.033-6.886,13.167-12.672,21.146-17.587c-5.675-0.768-11.494-1.289-17.63-1.289     c-88.653,0-93.807,75.571-93.867,76.8v39.074c-5.538,6.025-8.533,12.971-8.533,19.883v29.483c0,9.199,4.122,17.783,11.179,23.586     c7.04,26.539,24.354,46.592,31.095,53.632v23.415c0,6.707-3.661,12.86-9.992,16.341L35.26,317.823     C13.508,329.684,0,352.443,0,377.206v23.868c0,4.71,3.814,8.533,8.533,8.533h41.011C57.549,389.69,72.183,372.726,91.665,362.085     z"/>
		</g>
	</g>
</g>
<g>
</g>
<g>
</g>
<g>
</g>
<g>
</g>
<g>
</g>
<g>
</g>
<g>
</g>
<g>
</g>
<g>
</g>
<g>
</g>
<g>
</g>
<g>
</g>
<g>
</g>
<g>
</g>
<g>
</g>
</svg>
