<?xml version="1.0" encoding="iso-8859-1"?>
<!-- Generator: Adobe Illustrator 19.0.0, SVG Export Plug-In . SVG Version: 6.00 Build 0)  -->
<svg xmlns="http://www.w3.org/2000/svg" xmlns:xlink="http://www.w3.org/1999/xlink" version="1.1" id="Capa_1" x="0px" y="0px" viewBox="0 0 512.002 512.002" style="enable-background:new 0 0 512.002 512.002;" xml:space="preserve">
<g>
	<g>
		<g>
			<path d="M475.079,497.154l-43.81-39.825c7.825-11.102,12.467-24.61,12.467-39.194c0-37.641-30.626-68.267-68.267-68.267     s-68.267,30.626-68.267,68.267c0,37.641,30.626,68.267,68.267,68.267c16.922,0,32.384-6.221,44.322-16.452l43.802,39.825     c1.638,1.493,3.695,2.227,5.743,2.227c2.321,0,4.634-0.947,6.315-2.79C478.817,505.721,478.561,500.328,475.079,497.154z"/>
			<path d="M340.412,340.42l-29.995-16.358c-7.245-3.959-11.75-11.546-11.75-19.806v-28.228     c5.709-7.484,22.076-30.814,29.892-61.764c8.064-6.468,12.774-16.154,12.774-26.53V153.6c0-8.218-3.063-16.188-8.533-22.4V85.811     c0.486-4.693,2.355-32.64-17.843-55.689C297.43,10.129,268.98,0,230.401,0c-38.571,0-67.021,10.129-84.548,30.123     c-20.207,23.049-18.33,50.995-17.852,55.689V131.2c-5.461,6.212-8.533,14.182-8.533,22.4v34.133     c0,10.377,4.719,20.062,12.774,26.53c7.817,30.95,24.183,54.281,29.892,61.764v28.228c0,8.26-4.497,15.846-11.75,19.806     l-76.134,41.523c-24.747,13.5-40.115,39.398-40.115,67.584v36.164c0,4.71,3.823,8.533,8.533,8.533h271.966     c-15.13-15.403-24.499-36.489-24.499-59.733C290.134,383.582,310.819,353.826,340.412,340.42z"/>
		</g>
	</g>
</g>
<g>
</g>
<g>
</g>
<g>
</g>
<g>
</g>
<g>
</g>
<g>
</g>
<g>
</g>
<g>
</g>
<g>
</g>
<g>
</g>
<g>
</g>
<g>
</g>
<g>
</g>
<g>
</g>
<g>
</g>
</svg>
