<?xml version="1.0" encoding="iso-8859-1"?>
<!-- Generator: Adobe Illustrator 19.0.0, SVG Export Plug-In . SVG Version: 6.00 Build 0)  -->
<svg xmlns="http://www.w3.org/2000/svg" xmlns:xlink="http://www.w3.org/1999/xlink" version="1.1" id="Capa_1" x="0px" y="0px" viewBox="0 0 512.002 512.002" style="enable-background:new 0 0 512.002 512.002;" xml:space="preserve">
<g>
	<g>
		<g>
			<path d="M448.554,87.581c-7.501-8.567-15.556-16.631-24.132-24.132l-68.514,68.523L191.035,296.835L63.453,424.426     c7.501,8.567,15.556,16.623,24.132,24.132l6.502-6.502l258.287-258.287L448.554,87.581z"/>
			<path d="M459.436,100.839l-92.501,92.493v28.536c0,10.377-4.719,20.062-12.774,26.53c-7.817,30.95-24.183,54.281-29.892,61.764     v28.228c0,8.26,4.497,15.846,11.75,19.806l76.134,41.523c3.883,2.116,17.946,13.107,34.637,26.743     c40.516-45.303,65.212-105.045,65.212-170.462C512.002,197.701,492.375,143.924,459.436,100.839z"/>
			<path d="M327.852,373.179c-12.74-6.946-20.651-20.275-20.651-34.782v-31.198c0-1.988,0.708-3.934,1.988-5.461     c0.205-0.256,21.163-25.737,29.099-60.305c0.495-2.167,1.818-4.053,3.678-5.257c4.958-3.191,7.902-8.542,7.902-14.31v-11.46     L106.156,454.118l-5.316,5.316c43.076,32.939,96.862,52.565,155.162,52.565c69.598,0,132.77-27.955,178.97-73.182     c-15.334-12.527-27.972-22.477-30.985-24.115L327.852,373.179z"/>
			<path d="M167.852,175.158c-3.686,3.319-5.717,7.791-5.717,12.578v34.133c0,5.76,2.953,11.11,7.902,14.31     c1.869,1.203,3.183,3.089,3.686,5.257c3.132,13.636,8.294,25.822,13.218,35.354l154.394-154.385v-2.935     c0-0.375,0.026-0.751,0.077-1.118c0.026-0.205,2.765-24.226-13.85-43.017c-14.157-16.009-38.238-24.132-71.561-24.132     c-33.442,0-57.574,8.175-71.714,24.303c-16.614,18.97-13.722,42.607-13.696,42.846c0.051,0.367,0.077,0.742,0.077,1.118v49.348     C170.668,171.232,169.644,173.536,167.852,175.158z"/>
			<path d="M157.841,248.399c-8.055-6.468-12.774-16.145-12.774-26.53v-34.133c0-8.218,3.072-16.188,8.533-22.4v-45.389     c-0.478-4.693-2.355-32.64,17.852-55.689C188.979,44.265,217.429,34.136,256,34.136c38.579,0,67.029,10.129,84.557,30.123     c12.339,14.08,16.427,29.961,17.647,41.284l52.966-52.966C368.085,19.629,314.3,0.003,256,0.003c-141.158,0-256,114.842-256,256     c0,58.3,19.627,112.077,52.574,155.162l121.779-121.779C168.559,278.94,161.988,264.766,157.841,248.399z"/>
		</g>
	</g>
</g>
<g>
</g>
<g>
</g>
<g>
</g>
<g>
</g>
<g>
</g>
<g>
</g>
<g>
</g>
<g>
</g>
<g>
</g>
<g>
</g>
<g>
</g>
<g>
</g>
<g>
</g>
<g>
</g>
<g>
</g>
</svg>
