<?xml version="1.0" encoding="iso-8859-1"?>
<!-- Generator: Adobe Illustrator 19.0.0, SVG Export Plug-In . SVG Version: 6.00 Build 0)  -->
<svg xmlns="http://www.w3.org/2000/svg" xmlns:xlink="http://www.w3.org/1999/xlink" version="1.1" id="Capa_1" x="0px" y="0px" viewBox="0 0 511.998 511.998" style="enable-background:new 0 0 511.998 511.998;" xml:space="preserve">
<g>
	<g>
		<g>
			<path d="M418.568,196.267h-51.635v-85.333C366.933,49.766,317.166,0,255.999,0S145.066,49.766,145.066,110.933v85.333H93.431     c-13.875,0-25.165,11.29-25.165,25.165v222.302h375.467V221.431C443.733,207.556,432.443,196.267,418.568,196.267z      M313.232,309.7c3.336,3.337,3.336,8.73,0,12.066c-1.664,1.664-3.849,2.5-6.033,2.5c-2.185,0-4.369-0.836-6.033-2.5     l-11.034-11.034l-11.034,11.034c-1.664,1.664-3.849,2.5-6.033,2.5c-2.185,0-4.369-0.836-6.033-2.5     c-3.337-3.337-3.337-8.73,0-12.066l11.034-11.034l-11.034-11.034c-3.337-3.337-3.337-8.73,0-12.066     c3.336-3.337,8.73-3.337,12.066,0l11.034,11.034l11.034-11.034c3.337-3.337,8.73-3.337,12.066,0c3.336,3.336,3.336,8.73,0,12.066     l-11.034,11.034L313.232,309.7z M196.266,110.933c0-32.939,26.803-59.733,59.733-59.733s59.733,26.795,59.733,59.733v85.333     H196.266V110.933z M198.766,287.633c-3.337-3.337-3.337-8.73,0-12.066c3.336-3.337,8.73-3.337,12.066,0l11.034,11.034     l11.034-11.034c3.337-3.337,8.73-3.337,12.066,0c3.336,3.336,3.336,8.73,0,12.066l-11.034,11.034l11.034,11.034     c3.336,3.337,3.336,8.73,0,12.066c-1.664,1.664-3.849,2.5-6.033,2.5c-2.185,0-4.369-0.836-6.033-2.5l-11.034-11.034     l-11.034,11.034c-1.664,1.664-3.849,2.5-6.033,2.5c-2.185,0-4.369-0.836-6.033-2.5c-3.337-3.337-3.337-8.73,0-12.066     l11.034-11.034L198.766,287.633z M130.499,287.633c-3.336-3.337-3.336-8.73,0-12.066c3.337-3.337,8.73-3.337,12.066,0     l11.034,11.034l11.034-11.034c3.337-3.337,8.73-3.337,12.066,0c3.337,3.336,3.337,8.73,0,12.066l-11.034,11.034l11.034,11.034     c3.337,3.337,3.337,8.73,0,12.066c-1.664,1.664-3.849,2.5-6.033,2.5c-2.185,0-4.369-0.836-6.033-2.5l-11.034-11.034     l-11.034,11.034c-1.664,1.664-3.849,2.5-6.033,2.5s-4.369-0.836-6.033-2.5c-3.336-3.337-3.336-8.73,0-12.066l11.034-11.034     L130.499,287.633z M375.466,384H136.532c-4.719,0-8.533-3.823-8.533-8.533s3.814-8.533,8.533-8.533h238.933     c4.719,0,8.533,3.823,8.533,8.533S380.185,384,375.466,384z M381.499,309.7c3.337,3.337,3.337,8.73,0,12.066     c-1.664,1.664-3.849,2.5-6.033,2.5c-2.185,0-4.369-0.836-6.033-2.5l-11.034-11.034l-11.034,11.034     c-1.664,1.664-3.849,2.5-6.033,2.5c-2.185,0-4.369-0.836-6.033-2.5c-3.337-3.337-3.337-8.73,0-12.066l11.034-11.034     l-11.034-11.034c-3.337-3.337-3.337-8.73,0-12.066c3.336-3.337,8.73-3.337,12.066,0l11.034,11.034l11.034-11.034     c3.337-3.337,8.73-3.337,12.066,0c3.337,3.336,3.337,8.73,0,12.066l-11.034,11.034L381.499,309.7z"/>
			<path d="M68.266,486.833c0,13.875,11.29,25.165,25.165,25.165h325.137c13.875,0,25.165-11.29,25.165-25.165v-26.035H68.266     V486.833z"/>
		</g>
	</g>
</g>
<g>
</g>
<g>
</g>
<g>
</g>
<g>
</g>
<g>
</g>
<g>
</g>
<g>
</g>
<g>
</g>
<g>
</g>
<g>
</g>
<g>
</g>
<g>
</g>
<g>
</g>
<g>
</g>
<g>
</g>
</svg>
