<?xml version="1.0" encoding="iso-8859-1"?>
<!-- Generator: Adobe Illustrator 19.0.0, SVG Export Plug-In . SVG Version: 6.00 Build 0)  -->
<svg xmlns="http://www.w3.org/2000/svg" xmlns:xlink="http://www.w3.org/1999/xlink" version="1.1" id="Capa_1" x="0px" y="0px" viewBox="0 0 511.998 511.998" style="enable-background:new 0 0 511.998 511.998;" xml:space="preserve">
<g>
	<g>
		<g>
			<path d="M311.174,267.029l-44.143,44.134c-3.328,3.337-8.73,3.337-12.066,0l-44.134-44.134c-3.243-3.226-8.849-3.209-12.058,0     c-1.621,1.613-2.509,3.755-2.509,6.042c0,2.278,0.896,4.42,2.5,6.033l44.134,44.126c3.336,3.336,3.336,8.738,0,12.066     l-44.134,44.134c-1.613,1.613-2.5,3.755-2.5,6.033c0,2.278,0.896,4.42,2.5,6.033c3.217,3.226,8.849,3.234,12.066,0l44.134-44.126     c1.664-1.672,3.849-2.5,6.033-2.5c2.185,0,4.369,0.828,6.033,2.5l44.134,44.126c3.208,3.226,8.841,3.234,12.066,0     c3.328-3.32,3.328-8.738,0-12.066l-44.134-44.134c-3.328-3.328-3.328-8.73,0-12.066l44.134-44.126     c3.319-3.328,3.328-8.747,0-12.075C319.989,263.804,314.383,263.821,311.174,267.029z"/>
			<path d="M418.568,196.267h-51.635v-85.333C366.933,49.766,317.166,0,255.999,0S145.066,49.766,145.066,110.933v85.333H93.431     c-13.875,0-25.165,11.29-25.165,25.165v222.302h375.467V221.431C443.733,207.556,432.443,196.267,418.568,196.267z      M196.266,110.933c0-32.939,26.803-59.733,59.733-59.733s59.733,26.795,59.733,59.733v85.333H196.266V110.933z M335.299,367.369     c9.975,9.976,9.975,26.214,0.009,36.19c-4.838,4.838-11.273,7.501-18.108,7.501c-6.844,0-13.269-2.662-18.099-7.492L261,365.466     l-38.101,38.101c-9.677,9.677-26.539,9.66-36.198,0c-4.83-4.838-7.501-11.264-7.501-18.099c0-6.844,2.671-13.269,7.501-18.108     l38.101-38.093L186.7,291.166c-4.83-4.83-7.501-11.264-7.501-18.099c0-6.844,2.671-13.269,7.501-18.108     c9.643-9.643,26.522-9.677,36.198,0.009L261,293.069l38.101-38.101c9.643-9.66,26.522-9.685,36.198,0     c9.975,9.975,9.975,26.214,0.009,36.198l-38.11,38.101L335.299,367.369z"/>
			<path d="M68.266,486.833c0,13.875,11.29,25.165,25.165,25.165h325.137c13.875,0,25.165-11.29,25.165-25.165v-26.035H68.266     V486.833z"/>
		</g>
	</g>
</g>
<g>
</g>
<g>
</g>
<g>
</g>
<g>
</g>
<g>
</g>
<g>
</g>
<g>
</g>
<g>
</g>
<g>
</g>
<g>
</g>
<g>
</g>
<g>
</g>
<g>
</g>
<g>
</g>
<g>
</g>
</svg>
