<?xml version="1.0" encoding="iso-8859-1"?>
<!-- Generator: Adobe Illustrator 19.0.0, SVG Export Plug-In . SVG Version: 6.00 Build 0)  -->
<svg xmlns="http://www.w3.org/2000/svg" xmlns:xlink="http://www.w3.org/1999/xlink" version="1.1" id="Capa_1" x="0px" y="0px" viewBox="0 0 511.997 511.997" style="enable-background:new 0 0 511.997 511.997;" xml:space="preserve">
<g>
	<g>
		<g>
			<path d="M418.568,196.267h-51.635v-85.333C366.933,49.758,317.166,0,255.999,0c-61.175,0-110.933,49.758-110.933,110.933v85.333     H93.431c-13.875,0-25.165,11.29-25.165,25.165v222.302h375.467V221.431C443.733,207.556,432.443,196.267,418.568,196.267z      M298.418,390.494c0.623,2.543,0.043,5.239-1.57,7.296c-1.621,2.074-4.096,3.277-6.716,3.277h-68.267     c-2.62,0-5.103-1.203-6.716-3.277c-1.621-2.057-2.202-4.753-1.57-7.296l14.635-59.546c-9.412-8.047-14.882-19.729-14.882-32.282     c0-23.526,19.14-42.667,42.667-42.667c23.526,0,42.667,19.14,42.667,42.667c0,12.552-5.47,24.235-14.891,32.282L298.418,390.494z      M315.733,196.267H196.266v-85.333c0-32.939,26.795-59.733,59.733-59.733s59.733,26.795,59.733,59.733V196.267z"/>
			<path d="M269.581,320.265c7.526-4.745,12.015-12.817,12.015-21.598c0-14.123-11.486-25.6-25.6-25.6s-25.6,11.477-25.6,25.6     c0,8.781,4.497,16.853,12.015,21.598c3.106,1.954,4.608,5.692,3.738,9.25L232.751,384h46.49l-13.389-54.485     C264.973,325.956,266.475,322.219,269.581,320.265z"/>
			<path d="M68.264,486.832c0,13.875,11.29,25.165,25.165,25.165h325.137c13.875,0,25.165-11.29,25.165-25.165v-26.035H68.264     V486.832z"/>
		</g>
	</g>
</g>
<g>
</g>
<g>
</g>
<g>
</g>
<g>
</g>
<g>
</g>
<g>
</g>
<g>
</g>
<g>
</g>
<g>
</g>
<g>
</g>
<g>
</g>
<g>
</g>
<g>
</g>
<g>
</g>
<g>
</g>
</svg>
