<?xml version="1.0" encoding="iso-8859-1"?>
<!-- Generator: Adobe Illustrator 19.0.0, SVG Export Plug-In . SVG Version: 6.00 Build 0)  -->
<svg xmlns="http://www.w3.org/2000/svg" xmlns:xlink="http://www.w3.org/1999/xlink" version="1.1" id="Capa_1" x="0px" y="0px" viewBox="0 0 512.003 512.003" style="enable-background:new 0 0 512.003 512.003;" xml:space="preserve">
<g>
	<g>
		<g>
			<path d="M162.052,187.081l-18.688-9.148c-7.398-3.627-7.014-11.571-6.878-14.566l0.051-9.267c0-2.338,0.956-4.574,2.654-6.187     c0,0,4.378-4.386,6.144-11.273c0.563-2.227,2.005-4.122,3.994-5.274c0.341-0.196,0.631-0.375,0.862-0.529v-3.251     c-0.76-0.503-1.442-0.981-1.963-1.399c-1.997-1.621-3.157-4.053-3.157-6.63v-12.715c0.026-0.649,0.239-5.325-2.901-8.627     c-3.396-3.593-9.583-4.343-14.165-4.343c-6.306,0-10.923,1.459-13.705,4.343c-3.328,3.456-3.371,8.269-3.371,8.32l0.009,13.022     c0,2.577-1.161,5.009-3.166,6.63c-0.512,0.418-1.203,0.896-1.954,1.399v3.251c0.23,0.154,0.521,0.333,0.862,0.529     c1.988,1.152,3.422,3.046,3.994,5.274c1.758,6.878,6.093,11.23,6.144,11.273c1.69,1.613,2.654,3.849,2.654,6.187l0.043,9.267     c0.145,2.995,0.529,10.94-6.869,14.566l-18.688,9.148c9.096,5.274,19.516,8.465,30.635,9.011c1.143,0.06,2.304,0.179,3.43,0.179     C140.42,196.263,152.025,192.884,162.052,187.081z"/>
			<path d="M102.402,162.136v-4.796c-2.176-2.714-5.205-7.185-7.262-13.124c-2.876-2.125-6.391-5.717-6.391-10.999v-8.789     c0-4.463,2.671-7.39,5.12-9.301v-8.277c-0.034-0.913-0.188-11.836,8.149-20.48c6.118-6.349,14.865-9.566,25.984-9.566     c11.742,0,20.779,3.362,26.854,9.993c8.038,8.764,7.347,19.584,7.245,20.787l0.026,7.535c2.449,1.911,5.129,4.838,5.129,9.31     v8.789c0,5.282-3.516,8.875-6.391,10.999c-2.057,5.939-5.086,10.411-7.262,13.124v4.796c0,0.572-0.017,1.178-0.051,1.783     l19.166,9.387c1.399,0.683,2.714,1.536,3.977,2.458c12.092-12.322,19.575-29.175,19.575-47.761     c0-37.641-30.626-68.267-68.267-68.267c-37.641,0-68.267,30.626-68.267,68.267c0,18.662,7.543,35.576,19.721,47.915     c1.246-0.913,2.441-1.937,3.831-2.62l19.166-9.378C102.419,163.314,102.402,162.708,102.402,162.136z"/>
			<path d="M393.281,235.349c1.408-3.004,4.471-4.949,7.791-4.949H414.7c-5.257-7.663-10.888-18.244-11.213-33.22     c0.009-0.503,0.094-7.987-4.736-12.945c-3.208-3.285-8.192-4.983-14.814-5.035c-6.554,0.051-11.571,1.775-14.78,5.129     c-4.71,4.941-4.651,12.271-4.651,12.348c-0.316,15.386-5.948,26.044-11.204,33.724h13.636c3.311,0,6.383,1.946,7.782,4.949     c2.569,5.487,2.833,6.059-23.543,37.768c7.492,4.147,15.684,6.784,24.115,7.868c0.555,0.068,1.084,0.196,1.638,0.247     c4.625,0.461,8.917,0.435,13.184,0.06c0.273-0.026,0.546-0.017,0.811-0.043c9.139-0.947,17.92-3.721,25.899-8.132     C390.448,241.407,390.713,240.835,393.281,235.349z"/>
			<path d="M384.002,145.069c-37.641,0-68.267,30.626-68.267,68.267c0,19.593,8.346,37.231,21.606,49.698     c4.531-5.478,8.986-10.94,12.698-15.565h-4.719c-4.83-0.026-8.951-2.611-11.085-6.903c-2.321-4.676-1.758-10.65,1.4-14.865     c5.137-6.861,11.529-15.403,11.81-28.885c-0.051-0.964-0.256-14.191,9.378-24.277c6.519-6.818,15.633-10.317,27.119-10.402     c11.605,0.085,20.719,3.584,27.238,10.402c9.634,10.086,9.429,23.313,9.37,24.789c0.29,12.971,6.682,21.513,11.819,28.373     c3.157,4.216,3.721,10.189,1.399,14.865c-2.133,4.292-6.255,6.878-11.034,6.903h-4.77c3.712,4.625,8.166,10.086,12.698,15.565     c13.261-12.467,21.606-30.106,21.606-49.698C452.269,175.695,421.643,145.069,384.002,145.069z"/>
			<path d="M0.002,341.336v29.875c0,21.171,17.22,38.391,38.391,38.391h152.363c1.212,14.95-5.274,29.705-17.263,38.161     l-15.352,10.829c-1.263,0.879-2.185,2.031-2.935,3.285c-10.735,3.038-18.671,12.826-18.671,24.525     c0,14.114,11.486,25.6,25.6,25.6h187.733c14.114,0,25.6-11.486,25.6-25.6c0-11.699-7.936-21.478-18.662-24.525     c-0.742-1.237-1.647-2.381-2.884-3.251l-15.386-10.846c-12.023-8.465-18.517-23.253-17.289-38.178h152.363     c21.171,0,38.391-17.22,38.391-38.391v-29.875H0.002z M256.002,358.403c4.71,0,8.533,3.823,8.533,8.533s-3.823,8.533-8.533,8.533     s-8.533-3.823-8.533-8.533S251.292,358.403,256.002,358.403z M327.426,460.803H184.578c15.761-11.785,24.431-31.317,23.287-51.2     h96.282C303.004,429.485,311.665,449.018,327.426,460.803z"/>
			<path d="M512,38.391C512,17.22,494.78,0,473.618,0H38.392C17.221,0,0,17.22,0,38.391v285.875h512V38.391z M47.104,155.128     c-2.944-8.721-4.437-17.92-4.437-27.128c0-47.053,38.281-85.333,85.333-85.333S213.334,80.947,213.334,128     c0,35.49-23.023,68.403-56.457,80.282c-9.284,3.294-19.132,5.043-28.988,5.026c-2.987,0-5.948-0.171-8.883-0.486     C86.289,209.289,57.771,186.701,47.104,155.128z M272.41,276.335c-0.435,1.041-1.058,1.988-1.843,2.773l-25.6,25.591     c-1.664,1.672-3.849,2.5-6.033,2.5c-2.185,0-4.369-0.828-6.033-2.5c-3.328-3.328-3.328-8.73,0-12.066l11.034-11.034H128     c-4.71,0-8.533-3.814-8.533-8.533v-34.133c0-4.71,3.823-8.533,8.533-8.533s8.533,3.823,8.533,8.533v25.6h107.401L232.901,253.5     c-3.328-3.328-3.328-8.73,0-12.066c3.337-3.328,8.738-3.328,12.066,0l25.6,25.6c0.785,0.785,1.408,1.732,1.843,2.773     C273.272,271.898,273.272,274.244,272.41,276.335z M279.1,99.9c-1.664,1.673-3.849,2.5-6.033,2.5c-2.185,0-4.369-0.828-6.033-2.5     l-25.591-25.591c-0.794-0.785-1.417-1.732-1.852-2.773c-0.862-2.091-0.862-4.437,0-6.528c0.435-1.041,1.058-1.988,1.852-2.773     l25.591-25.6c3.336-3.328,8.738-3.328,12.066,0c3.337,3.337,3.337,8.738,0,12.066l-11.034,11.034H384     c4.71,0,8.533,3.823,8.533,8.533V102.4c0,4.719-3.823,8.533-8.533,8.533c-4.71,0-8.533-3.814-8.533-8.533V76.8H268.067     L279.1,87.834C282.437,91.17,282.437,96.572,279.1,99.9z M434.74,281.702c-6.187,4.625-13.039,8.448-20.42,11.255     c-11.452,4.369-23.851,6.306-36.087,5.478c-35.823-2.441-67.268-28.331-76.638-62.959c-1.946-7.211-2.927-14.669-2.927-22.144     C298.667,166.281,336.948,128,384,128c47.053,0,85.333,38.281,85.333,85.333C469.334,240.427,455.945,265.83,434.74,281.702z"/>
		</g>
	</g>
</g>
<g>
</g>
<g>
</g>
<g>
</g>
<g>
</g>
<g>
</g>
<g>
</g>
<g>
</g>
<g>
</g>
<g>
</g>
<g>
</g>
<g>
</g>
<g>
</g>
<g>
</g>
<g>
</g>
<g>
</g>
</svg>
