<?xml version="1.0" encoding="iso-8859-1"?>
<!-- Generator: Adobe Illustrator 19.0.0, SVG Export Plug-In . SVG Version: 6.00 Build 0)  -->
<svg xmlns="http://www.w3.org/2000/svg" xmlns:xlink="http://www.w3.org/1999/xlink" version="1.1" id="Capa_1" x="0px" y="0px" viewBox="0 0 512 512" style="enable-background:new 0 0 512 512;" xml:space="preserve">
<g>
	<g>
		<g>
			<path d="M504.508,468.301L381.09,344.883c28.51-36.275,45.577-81.946,45.577-131.55C426.667,95.701,330.974,0,213.333,0     C95.701,0,0,95.701,0,213.333s95.701,213.333,213.333,213.333c49.613,0,95.283-17.067,131.558-45.577l123.409,123.409     c4.838,4.838,11.264,7.501,18.099,7.501c6.844,0,13.269-2.662,18.108-7.492c4.83-4.838,7.492-11.264,7.492-18.108     C512,479.565,509.338,473.131,504.508,468.301z M281.182,265.745l27.989,13.261c10.291,4.881,18.278,13.483,22.477,24.218     c0.324,0.828,0.521,1.707,0.572,2.594l0.572,9.404c0.137,2.347-0.7,4.651-2.313,6.366c-1.604,1.707-3.857,2.679-6.212,2.679     l-76.8,0.009l-76.8-0.009c-2.347,0-4.599-0.973-6.212-2.688s-2.441-4.019-2.304-6.366l0.495-8.013H93.867     c-4.71,0-8.533-3.823-8.533-8.533v-11.102c0-13.047,7.066-25.037,18.423-31.3l32.324-16.41c0.162-0.094,0.452-1.468,0.452-3.208     v-8.73c-25.6-24.67-25.6-28.22-25.6-31.65v-22.05c0-5.692,4.412-10.01,8.533-13.534v-15.616     c-0.043-0.785-0.29-11.563,8.73-21.052c8.363-8.806,21.538-13.278,39.159-13.321c25.737,0.06,36.838,12.638,41.6,22.724     c9.173-8.021,21.666-13.807,38.443-13.952c41.916,0.35,57.489,35.447,59.895,53.956c0.043,0.307,0.06,0.614,0.068,0.93     c0.367,19.345,8.149,40.721,23.134,63.514c3.729,5.675,4.198,13.295,1.169,18.961c-2.56,4.787-7.305,7.663-12.706,7.706h-39.526     C279.962,264.96,280.585,265.412,281.182,265.745z M492.433,492.433c-3.217,3.226-8.841,3.226-12.066,0L357.999,370.065     c0.879-0.811,1.673-1.715,2.534-2.534c2.389-2.278,4.719-4.617,6.997-7.006c0.828-0.862,1.724-1.647,2.534-2.526l122.368,122.368     c1.613,1.613,2.5,3.755,2.5,6.033S494.046,490.82,492.433,492.433z"/>
			<path d="M290.308,175.234c-0.674-4.233-7.262-38.4-42.906-38.699c-16.691,0.137-26.94,7.765-33.237,16.247     c-7.014,9.557-9.165,20.292-9.532,22.468c-0.563,22.468-9.284,46.686-25.924,71.996c-0.043,0.068-0.085,0.145-0.128,0.222h43.29     c3.388,0,6.502,1.741,8.533,4.779c2.995,4.471,4.011,13.065,2.099,17.681c-2.551,6.17-9.233,10.061-10.547,10.786l-28.868,13.713     c-1.988,0.947-3.866,2.202-5.606,3.669c-0.102,0.085-0.196,0.162-0.29,0.247c-1.741,1.51-3.328,3.26-4.71,5.231     c-0.111,0.145-0.256,0.256-0.367,0.401c-0.7,1.033-1.374,2.091-1.937,3.226l67.294,0.009l67.294-0.009     c-2.773-5.623-7.287-10.112-12.911-12.774l-28.433-13.491c-1.758-0.947-8.44-4.855-10.982-11.016     c-1.911-4.591-0.896-13.184,2.091-17.664c2.031-3.046,5.146-4.787,8.542-4.787h43.29c-0.043-0.077-0.085-0.154-0.128-0.222     C299.593,221.92,290.871,197.693,290.308,175.234z"/>
			<path d="M214.2,265.516c0.375-0.213,0.87-0.589,1.323-0.981h-39.484c-5.453-0.043-10.206-2.927-12.766-7.706     c-3.029-5.675-2.551-13.295,1.178-18.961c14.976-22.784,22.758-44.16,23.125-63.514c0.008-0.316,0.034-0.631,0.077-0.939     c0.009-0.12,0.111-0.751,0.265-1.621c1.067-6.554,3.661-14.788,8.32-22.827c-0.401-0.768-0.691-1.596-0.845-2.458     c-1.459-8.533-7.501-18.705-28.032-18.756c-12.561,0.034-21.837,2.807-26.795,8.021c-4.002,4.207-4.045,8.832-4.036,8.875     l0.009,19.985c0,2.398-1.007,4.685-2.782,6.306c-0.444,0.401-1.075,0.93-1.809,1.544c-0.853,0.717-2.859,2.389-3.942,3.55v18.202     c3.063,4.105,13.79,15.104,22.955,23.868c1.69,1.613,2.645,3.84,2.645,6.17v12.373c0,10.778-5.188,15.898-9.549,18.295     l-32.324,16.41c-5.658,3.115-9.327,9.387-9.327,16.205v2.577h68.915c4.002-4.617,8.832-8.465,14.447-11.127L214.2,265.516z"/>
		</g>
	</g>
</g>
<g>
</g>
<g>
</g>
<g>
</g>
<g>
</g>
<g>
</g>
<g>
</g>
<g>
</g>
<g>
</g>
<g>
</g>
<g>
</g>
<g>
</g>
<g>
</g>
<g>
</g>
<g>
</g>
<g>
</g>
</svg>
