<?xml version="1.0" encoding="iso-8859-1"?>
<!-- Generator: Adobe Illustrator 19.0.0, SVG Export Plug-In . SVG Version: 6.00 Build 0)  -->
<svg xmlns="http://www.w3.org/2000/svg" xmlns:xlink="http://www.w3.org/1999/xlink" version="1.1" id="Capa_1" x="0px" y="0px" viewBox="0 0 512.003 512.003" style="enable-background:new 0 0 512.003 512.003;" xml:space="preserve">
<g>
	<g>
		<g>
			<path d="M102.409,273.067h170.667c2.935,0,5.675-1.51,7.228-4.002c1.562-2.492,1.732-5.606,0.452-8.252     c-3.55-7.33-12.689-18.108-20.642-22.443l-36.42-19.866c-0.444-0.239-1.809-0.981-1.809-5.564v-11.605     c4.105-4.727,12.075-15.155,15.992-28.621c3.959-2.927,9.609-8.209,9.609-15.522v-16.324c0-6.383-4.796-10.47-8.533-13.261     l-0.017-18.739c0.06-0.811,1.391-20.053-11.87-34.389c-9.054-9.788-22.272-14.746-39.313-14.746     c-16.094,0-28.851,4.753-37.914,14.123c-13.781,14.234-13.304,33.809-13.286,34.355v19.396     c-3.738,2.799-8.533,6.878-8.533,13.261v16.324c0,7.313,5.658,12.595,9.617,15.522c3.917,13.466,11.887,23.893,15.983,28.621     v11.605c0,4.582-1.357,5.325-1.8,5.564l-36.42,19.866c-7.97,4.344-17.118,15.121-20.668,22.443     c-1.28,2.645-1.109,5.76,0.452,8.252C96.734,271.556,99.473,273.067,102.409,273.067z"/>
			<path d="M511.351,466.068c-0.435-1.041-1.058-1.988-1.843-2.773l-34.133-34.125c-3.328-3.336-8.73-3.336-12.066,0     c-3.337,3.328-3.337,8.73,0,12.066l19.567,19.567h-56.201v-230.4c0-4.719-3.823-8.533-8.533-8.533h-85.333     c-4.71,0-8.533,3.814-8.533,8.533v230.4h-85.333V298.669c0-4.719-3.823-8.533-8.533-8.533h-85.333     c-4.71,0-8.533,3.814-8.533,8.533v162.133H51.208V29.135l19.567,19.567c1.664,1.664,3.849,2.5,6.033,2.5     c2.185,0,4.369-0.836,6.033-2.5c3.337-3.336,3.337-8.738,0-12.066L48.716,2.503c-0.794-0.785-1.732-1.408-2.782-1.843     c-2.082-0.862-4.437-0.862-6.519,0c-1.041,0.435-1.988,1.058-2.773,1.843L2.508,36.636c-3.336,3.328-3.336,8.73,0,12.066     c3.337,3.328,8.738,3.328,12.066,0l19.567-19.567v431.667h-25.6c-4.71,0-8.533,3.814-8.533,8.533c0,4.71,3.823,8.533,8.533,8.533     h25.6v25.6c0,4.71,3.823,8.533,8.533,8.533c4.71,0,8.533-3.823,8.533-8.533v-25.6h93.867h85.333h102.4h85.333h64.734     l-19.567,19.567c-3.337,3.328-3.337,8.73,0,12.066c1.664,1.664,3.849,2.5,6.033,2.5c2.185,0,4.369-0.836,6.033-2.5l34.133-34.133     c0.785-0.785,1.408-1.732,1.843-2.773C512.213,470.505,512.213,468.158,511.351,466.068z"/>
			<path d="M298.675,204.8h153.6c2.833,0,5.478-1.408,7.066-3.746c1.587-2.347,1.911-5.325,0.862-7.962     c-4.54-11.315-16.538-21.129-26.658-26.001l-19.883-13.483L444.1,153.6c5.478-0.043,10.325-3.046,12.962-8.047     c3.285-6.212,2.807-14.379-1.186-20.335c-9.173-13.662-24.644-40.661-25.173-67.499c0.034-1.024,0.674-25.395-15.514-42.283     C405.504,5.333,392.166,0.137,375.407,0c-16.623,0.137-29.961,5.333-39.646,15.437c-16.188,16.887-15.548,41.259-15.522,41.822     c-0.529,27.307-15.991,54.298-25.165,67.959c-3.994,5.948-4.471,14.123-1.195,20.335c2.645,5.001,7.484,8.004,13.039,8.047     l30.353-0.034l-19.874,13.525c-10.129,4.881-22.118,14.686-26.65,26.001c-1.05,2.637-0.725,5.615,0.862,7.962     C293.197,203.392,295.842,204.8,298.675,204.8z"/>
		</g>
	</g>
</g>
<g>
</g>
<g>
</g>
<g>
</g>
<g>
</g>
<g>
</g>
<g>
</g>
<g>
</g>
<g>
</g>
<g>
</g>
<g>
</g>
<g>
</g>
<g>
</g>
<g>
</g>
<g>
</g>
<g>
</g>
</svg>
