<?xml version="1.0" encoding="iso-8859-1"?>
<!-- Generator: Adobe Illustrator 19.0.0, SVG Export Plug-In . SVG Version: 6.00 Build 0)  -->
<svg xmlns="http://www.w3.org/2000/svg" xmlns:xlink="http://www.w3.org/1999/xlink" version="1.1" id="Capa_1" x="0px" y="0px" viewBox="0 0 512 512" style="enable-background:new 0 0 512 512;" xml:space="preserve">
<g>
	<g>
		<g>
			<path d="M170.667,59.733c-61.167,0-110.933,49.766-110.933,110.933c0,35.891,17.212,67.763,43.725,88.055     c0.307-0.188,0.606-0.41,0.913-0.58l32.162-15.838v-3.217c-13.892-7.586-23.663-20.07-29.116-37.239     c-8.269-4.386-13.551-12.919-13.551-22.502v-8.533c0-7.825,3.618-15.121,9.677-19.934c1.152-8.09,3.157-15.676,5.982-22.588     c1.263-3.098,2.338-5.402,3.217-7.27c2.304-4.975,2.304-4.975,0.657-13.303c-0.811-4.07-1.348-7.782-1.707-10.965     c-0.538-4.608,1.988-8.892,6.272-10.65c4.284-1.758,9.105-0.486,11.972,3.183c1.673,2.133,4.301,4.412,7.791,6.758     c9.344,6.298,20.087,6.904,27.511,6.332c1.766-0.145,3.575-0.213,5.427-0.213c39.142,0,61.653,16.35,66.978,48.606     c6.144,4.813,9.822,12.151,9.822,20.045v8.533c0,9.583-5.282,18.116-13.551,22.502c-5.453,17.169-15.224,29.653-29.116,37.239     v3.302l31.078,15.872c0.486,0.247,0.973,0.58,1.451,0.862c26.829-20.275,44.271-52.326,44.271-88.457     C281.6,109.5,231.834,59.733,170.667,59.733z"/>
			<path d="M0,371.209C0,392.38,17.22,409.6,38.383,409.6h152.371c1.212,14.95-5.274,29.705-17.263,38.161l-15.369,10.837     c-1.254,0.87-2.176,2.022-2.927,3.277c-10.726,3.046-18.662,12.826-18.662,24.525c0,14.114,11.486,25.6,25.6,25.6h187.733     c14.114,0,25.6-11.486,25.6-25.6c0-11.699-7.936-21.478-18.662-24.525c-0.742-1.237-1.647-2.372-2.876-3.251l-15.394-10.846     c-11.998-8.456-18.492-23.219-17.28-38.178h152.363c21.163,0,38.383-17.22,38.383-38.391v-29.875H0V371.209z M256,358.4     c4.719,0,8.533,3.823,8.533,8.533s-3.814,8.533-8.533,8.533s-8.533-3.823-8.533-8.533S251.281,358.4,256,358.4z M304.145,409.617     c-1.135,19.874,7.526,39.398,23.279,51.183H184.585c15.753-11.785,24.422-31.317,23.279-51.2L304.145,409.617z"/>
			<path d="M473.617,0H38.383C17.22,0,0,17.22,0,38.391v285.875h512V38.391C512,17.22,494.78,0,473.617,0z M341.333,136.533H409.6     c4.719,0,8.533,3.823,8.533,8.533c0,4.71-3.814,8.533-8.533,8.533h-68.267c-4.719,0-8.533-3.823-8.533-8.533     C332.8,140.356,336.614,136.533,341.333,136.533z M332.8,93.867c0-4.71,3.814-8.533,8.533-8.533h34.133     c4.719,0,8.533,3.823,8.533,8.533c0,4.71-3.814,8.533-8.533,8.533h-34.133C336.614,102.4,332.8,98.577,332.8,93.867z      M341.333,187.733h34.133c4.719,0,8.533,3.823,8.533,8.533s-3.814,8.533-8.533,8.533h-34.133c-4.719,0-8.533-3.823-8.533-8.533     S336.614,187.733,341.333,187.733z M341.333,238.933H409.6c4.719,0,8.533,3.823,8.533,8.533S414.319,256,409.6,256h-68.267     c-4.719,0-8.533-3.823-8.533-8.533S336.614,238.933,341.333,238.933z M242.577,276.48c-2.492,1.698-5.043,3.311-7.671,4.821     c-19.968,11.563-43.085,17.664-66.167,17.306c-47.872-0.725-92.39-29.244-113.289-72.243     c-8.405-17.306-12.783-36.454-12.783-55.697c0-70.579,57.421-128,128-128s128,57.421,128,128     C298.667,212.77,277.18,252.919,242.577,276.48z M375.467,307.2h-34.133c-4.719,0-8.533-3.823-8.533-8.533     s3.814-8.533,8.533-8.533h34.133c4.719,0,8.533,3.823,8.533,8.533S380.186,307.2,375.467,307.2z M452.267,307.2H409.6     c-4.719,0-8.533-3.823-8.533-8.533s3.814-8.533,8.533-8.533h42.667c4.719,0,8.533,3.823,8.533,8.533S456.986,307.2,452.267,307.2     z M452.267,51.2H341.333c-4.719,0-8.533-3.823-8.533-8.533c0-4.71,3.814-8.533,8.533-8.533h110.933     c4.719,0,8.533,3.823,8.533,8.533C460.8,47.377,456.986,51.2,452.267,51.2z"/>
			<path d="M187.733,243.6v-9.839c0-3.413,2.022-6.494,5.154-7.842c12.945-5.572,21.359-16.222,25.728-32.546     c0.759-2.833,2.918-5.077,5.717-5.948c3.635-1.126,6.067-4.369,6.067-8.081v-8.533c0-3.106-1.783-5.982-4.651-7.492     c-2.483-1.314-4.164-3.763-4.489-6.554c-3.046-25.958-18.645-37.538-50.594-37.538c-1.382,0-2.739,0.051-4.07,0.154     c-13.09,1.041-25.131-1.434-35.174-7.168c0.725,6.579-0.324,9.788-3.217,16c-0.777,1.69-1.749,3.763-2.876,6.545     c-2.688,6.545-4.471,13.926-5.316,21.931c-0.29,2.825-1.963,5.316-4.471,6.647c-2.842,1.51-4.608,4.378-4.608,7.475v8.533     c0,3.712,2.432,6.955,6.067,8.081c2.799,0.87,4.958,3.115,5.717,5.948c4.369,16.324,12.783,26.974,25.728,32.546     c3.132,1.348,5.154,4.429,5.154,7.842v9.771c0,5.803-3.234,10.991-8.44,13.551l-24.917,12.271     c0.836,0.427,1.698,0.819,2.551,1.229c2.534,1.22,5.086,2.372,7.714,3.379c1.058,0.41,2.133,0.794,3.209,1.178     c3.388,1.178,6.827,2.244,10.317,3.098c0.256,0.06,0.512,0.137,0.785,0.196c16.759,3.925,34.441,3.959,51.217,0.128     c0.265-0.068,0.529-0.145,0.802-0.213c3.448-0.811,6.835-1.852,10.189-2.995c1.237-0.435,2.475-0.879,3.695-1.348     c2.355-0.905,4.651-1.929,6.946-2.995c0.964-0.461,1.937-0.922,2.901-1.399l-24.61-12.57     C190.882,254.446,187.733,249.292,187.733,243.6z"/>
		</g>
	</g>
</g>
<g>
</g>
<g>
</g>
<g>
</g>
<g>
</g>
<g>
</g>
<g>
</g>
<g>
</g>
<g>
</g>
<g>
</g>
<g>
</g>
<g>
</g>
<g>
</g>
<g>
</g>
<g>
</g>
<g>
</g>
</svg>
