<?xml version="1.0" encoding="iso-8859-1"?>
<!-- Generator: Adobe Illustrator 19.0.0, SVG Export Plug-In . SVG Version: 6.00 Build 0)  -->
<svg xmlns="http://www.w3.org/2000/svg" xmlns:xlink="http://www.w3.org/1999/xlink" version="1.1" id="Capa_1" x="0px" y="0px" viewBox="0 0 512 512" style="enable-background:new 0 0 512 512;" xml:space="preserve">
<g>
	<g>
		<g>
			<path d="M359.953,405.571l-55.902-28.681c-8.585-4.403-13.918-13.124-13.918-22.775v-7.578c0-6.485,3.695-12.339,9.643-15.292     c23.151-11.494,39.287-32.188,46.677-59.827c0.751-2.825,2.901-5.069,5.717-5.939c8.832-2.748,14.763-11.008,14.763-20.565     v-15.087c0-8.26-4.156-15.377-11.136-19.055c-2.483-1.314-4.164-3.763-4.489-6.562c-5.769-49.246-36.275-72.192-96.009-72.192     c-2.526,0-5.009,0.102-7.441,0.29c-24.363,1.852-46.507-3.336-64.009-15.121c-2.449-1.655-4.787-3.362-6.98-5.12     c2.628,15.77,0.247,32.776-6.904,49.289c-5.513,12.698-9.122,27.102-10.769,42.803c-0.29,2.825-1.963,5.316-4.471,6.647     c-8.405,4.48-9.66,13.841-9.66,19.021v15.087c0,10.283,5.001,17.963,13.372,20.565c2.807,0.87,4.958,3.106,5.717,5.939     c7.177,26.82,24.235,48.06,48.051,59.827c5.948,2.935,9.66,8.798,9.66,15.3v6.869c0,9.83-5.478,18.628-14.293,22.972     l-58.53,28.817C136.183,412.227,128,426.017,128,441.027v36.531c37.683,21.862,81.382,34.44,128,34.44     c46.618,0,90.317-12.578,128-34.44v-35.319C384,427.271,374.562,412.884,359.953,405.571z"/>
			<path d="M256,0.001c-141.158,0-256,114.842-256,256c0,87.33,43.981,164.548,110.933,210.773V441.03     c0-21.256,11.588-40.789,30.259-50.97l58.846-28.988c2.935-1.442,4.762-4.378,4.762-7.654v-6.869     c-27.17-13.355-46.839-36.864-55.927-66.517C136.047,274.032,128,260.746,128,244.917V229.83c0-13.517,5.299-24.781,14.711-31.59     c1.997-15.838,5.897-30.515,11.588-43.665c5.999-13.841,7.927-27.921,5.555-40.704c-1.075-5.786-1.818-11.119-2.355-15.795     c-0.58-5.026,2.167-9.771,6.852-11.776c4.753-2.039,10.325-0.725,13.577,3.166c3.934,4.719,9.284,9.412,15.454,13.559     c18.022,12.143,38.861,13.372,53.154,12.271c2.859-0.23,5.786-0.341,8.764-0.341c66.526,0,104.32,27.964,112.41,83.123     C377.856,205.16,384,216.936,384,229.83v15.087c0,15.42-8.772,28.996-22.263,35.14c-9.19,30.404-27.913,53.333-54.366,66.475     l-0.171,7.586c0,3.217,1.775,6.127,4.642,7.595l55.817,28.638c20.267,10.129,33.408,30.515,33.408,51.891v24.533     C468.019,420.55,512,343.331,512,256.001C512,114.843,397.158,0.001,256,0.001z"/>
		</g>
	</g>
</g>
<g>
</g>
<g>
</g>
<g>
</g>
<g>
</g>
<g>
</g>
<g>
</g>
<g>
</g>
<g>
</g>
<g>
</g>
<g>
</g>
<g>
</g>
<g>
</g>
<g>
</g>
<g>
</g>
<g>
</g>
</svg>
