<?xml version="1.0" encoding="iso-8859-1"?>
<!-- Generator: Adobe Illustrator 19.0.0, SVG Export Plug-In . SVG Version: 6.00 Build 0)  -->
<svg xmlns="http://www.w3.org/2000/svg" xmlns:xlink="http://www.w3.org/1999/xlink" version="1.1" id="Capa_1" x="0px" y="0px" viewBox="0 0 512 512" style="enable-background:new 0 0 512 512;" xml:space="preserve">
<g>
	<g>
		<g>
			<path d="M307.2,415.192v-31.189c0-1.997,0.708-3.934,1.98-5.47c0.213-0.247,21.171-25.737,29.107-60.297     c0.495-2.167,1.809-4.053,3.678-5.265c4.949-3.191,7.902-8.542,7.902-14.302v-34.133c0-4.787-2.031-9.259-5.717-12.578     c-1.792-1.621-2.816-3.925-2.816-6.34v-49.348c0-0.367,0.026-0.725,0.068-1.084c0.051-0.384,2.722-24.32-13.841-43.051     c-14.157-16.017-38.238-24.132-71.561-24.132c-33.442,0-57.574,8.175-71.714,24.303c-16.623,18.97-13.73,42.607-13.696,42.846     c0.051,0.367,0.077,0.742,0.077,1.118v49.348c0,2.415-1.024,4.719-2.816,6.34c-3.686,3.319-5.717,7.791-5.717,12.578v34.133     c0,5.76,2.953,11.11,7.902,14.302c1.869,1.212,3.183,3.098,3.678,5.265c7.936,34.56,28.894,60.049,29.107,60.297     c1.271,1.536,1.98,3.473,1.98,5.47v31.189c0,13.628-6.972,26.206-18.372,33.442c44.51,16.162,94.635,16.162,139.145,0     C314.172,441.398,307.2,428.82,307.2,415.192z"/>
			<path d="M409.6,256c-4.71,0-8.533,3.831-8.533,8.533v34.133c0,4.702,3.823,8.533,8.533,8.533s8.533-3.831,8.533-8.533v-34.133     C418.133,259.831,414.31,256,409.6,256z"/>
			<path d="M102.4,256c-4.71,0-8.533,3.831-8.533,8.533v34.133c0,4.702,3.823,8.533,8.533,8.533c4.71,0,8.533-3.831,8.533-8.533     v-34.133C110.933,259.831,107.11,256,102.4,256z"/>
			<path d="M256,0C114.842,0,0,114.842,0,256s114.842,256,256,256s256-114.842,256-256S397.158,0,256,0z M348.843,457.506     c-29.286,13.508-60.518,20.361-92.843,20.361s-63.556-6.852-92.843-20.361c-2.935-1.357-4.838-4.241-4.949-7.467     s1.613-6.229,4.446-7.774l13.329-7.27c7.253-3.959,11.75-11.546,11.75-19.806v-28.228c-5.709-7.484-22.076-30.814-29.892-61.764     c-8.055-6.468-12.774-16.154-12.774-26.53v-34.133c0-8.218,3.063-16.188,8.533-22.4v-45.389     c-0.486-4.693-2.355-32.64,17.852-55.689c17.527-19.985,45.969-30.123,84.548-30.123c38.579,0,67.021,10.138,84.548,30.123     c20.207,23.049,18.338,50.995,17.852,55.689v45.389c5.47,6.212,8.533,14.182,8.533,22.4v34.133     c0,10.377-4.719,20.062-12.774,26.53c-7.817,30.95-24.183,54.281-29.892,61.764v28.228c0,8.26,4.497,15.846,11.75,19.806     l13.329,7.27c2.833,1.544,4.557,4.548,4.446,7.774C353.681,453.265,351.778,456.149,348.843,457.506z M435.2,298.667     c0,11.281-7.381,20.77-17.536,24.175c-3.524,29.594-28.74,52.625-59.264,52.625c-4.719,0-8.533-3.823-8.533-8.533     s3.814-8.533,8.533-8.533c21.214,0,38.724-15.607,41.984-35.917C390.827,318.763,384,309.521,384,298.667v-34.133     c0-11.11,7.159-20.489,17.067-24.03V230.4c0-84.693-65.075-153.6-145.067-153.6s-145.067,68.907-145.067,153.6v10.103     c9.907,3.541,17.067,12.919,17.067,24.03v34.133c0,14.114-11.486,25.6-25.6,25.6s-25.6-11.486-25.6-25.6v-34.133     c0-11.11,7.159-20.489,17.067-24.03V230.4c0-94.106,72.73-170.667,162.133-170.667S418.133,136.294,418.133,230.4v10.103     c9.907,3.541,17.067,12.919,17.067,24.03V298.667z"/>
		</g>
	</g>
</g>
<g>
</g>
<g>
</g>
<g>
</g>
<g>
</g>
<g>
</g>
<g>
</g>
<g>
</g>
<g>
</g>
<g>
</g>
<g>
</g>
<g>
</g>
<g>
</g>
<g>
</g>
<g>
</g>
<g>
</g>
</svg>
