<?xml version="1.0" encoding="iso-8859-1"?>
<!-- Generator: Adobe Illustrator 19.0.0, SVG Export Plug-In . SVG Version: 6.00 Build 0)  -->
<svg xmlns="http://www.w3.org/2000/svg" xmlns:xlink="http://www.w3.org/1999/xlink" version="1.1" id="Capa_1" x="0px" y="0px" viewBox="0 0 512 512" style="enable-background:new 0 0 512 512;" xml:space="preserve">
<g>
	<g>
		<g>
			<path d="M255.998,51.201c-65.877,0-119.467,53.589-119.467,119.467s53.589,119.467,119.467,119.467     s119.467-53.589,119.467-119.467S321.876,51.201,255.998,51.201z M322.558,124.588l-76.8,102.4     c-1.485,1.98-3.746,3.217-6.221,3.388c-0.205,0.017-0.401,0.026-0.606,0.026c-2.253,0-4.42-0.896-6.033-2.5l-42.667-42.667     c-3.328-3.337-3.328-8.738,0-12.066c3.337-3.337,8.738-3.337,12.066,0l35.712,35.703l70.895-94.524     c2.825-3.772,8.175-4.531,11.947-1.707S325.391,120.816,322.558,124.588z"/>
			<rect x="162.133" y="477.867" width="187.733" height="34.133"/>
			<path d="M401.067,0H110.933c-14.114,0-25.6,11.486-25.6,25.6v460.8c0,14.114,11.486,25.6,25.6,25.6h34.133v-42.667     c0-4.71,3.814-8.533,8.533-8.533h204.8c4.719,0,8.533,3.823,8.533,8.533V512h34.133c14.114,0,25.6-11.486,25.6-25.6V25.6     C426.667,11.486,415.181,0,401.067,0z M213.333,426.667h-68.267c-4.719,0-8.533-3.823-8.533-8.533s3.814-8.533,8.533-8.533     h68.267c4.719,0,8.533,3.823,8.533,8.533S218.052,426.667,213.333,426.667z M196.267,375.467c4.719,0,8.533,3.823,8.533,8.533     s-3.814,8.533-8.533,8.533h-51.2c-4.719,0-8.533-3.823-8.533-8.533s3.814-8.533,8.533-8.533H196.267z M179.2,332.8     c0-4.71,3.814-8.533,8.533-8.533h136.533c4.719,0,8.533,3.823,8.533,8.533c0,4.71-3.814,8.533-8.533,8.533H187.733     C183.014,341.333,179.2,337.51,179.2,332.8z M349.867,426.667h-51.2c-4.719,0-8.533-3.823-8.533-8.533s3.814-8.533,8.533-8.533     h51.2c4.719,0,8.533,3.823,8.533,8.533S354.586,426.667,349.867,426.667z M366.933,392.533h-68.267     c-4.719,0-8.533-3.823-8.533-8.533s3.814-8.533,8.533-8.533h68.267c4.719,0,8.533,3.823,8.533,8.533     S371.652,392.533,366.933,392.533z M256,307.2c-75.281,0-136.533-61.252-136.533-136.533S180.719,34.133,256,34.133     s136.533,61.252,136.533,136.533S331.281,307.2,256,307.2z"/>
		</g>
	</g>
</g>
<g>
</g>
<g>
</g>
<g>
</g>
<g>
</g>
<g>
</g>
<g>
</g>
<g>
</g>
<g>
</g>
<g>
</g>
<g>
</g>
<g>
</g>
<g>
</g>
<g>
</g>
<g>
</g>
<g>
</g>
</svg>
