<?xml version="1.0" encoding="iso-8859-1"?>
<!-- Generator: Adobe Illustrator 19.0.0, SVG Export Plug-In . SVG Version: 6.00 Build 0)  -->
<svg xmlns="http://www.w3.org/2000/svg" xmlns:xlink="http://www.w3.org/1999/xlink" version="1.1" id="Capa_1" x="0px" y="0px" viewBox="0 0 512 512" style="enable-background:new 0 0 512 512;" xml:space="preserve">
<g>
	<g>
		<g>
			<rect x="162.133" y="477.867" width="187.733" height="34.133"/>
			<path d="M255.997,51.2c-65.869,0-119.467,53.589-119.467,119.467s53.598,119.467,119.467,119.467     c65.877,0,119.467-53.589,119.467-119.467S321.874,51.2,255.997,51.2z M255.997,264.533c-4.71,0-8.533-3.823-8.533-8.533     s3.823-8.533,8.533-8.533c4.719,0,8.533,3.823,8.533,8.533S260.716,264.533,255.997,264.533z M270.725,177.05     c-3.703,1.109-6.195,4.378-6.195,8.132v36.685c0,4.71-3.814,8.533-8.533,8.533c-4.71,0-8.533-3.823-8.533-8.533v-36.685     c0-11.349,7.381-21.188,18.364-24.482c14.31-4.292,24.303-17.741,24.303-32.7c0-18.5-15.633-34.133-34.133-34.133     c-18.825,0-34.133,15.309-34.133,34.133c0,4.71-3.814,8.533-8.533,8.533c-4.71,0-8.533-3.823-8.533-8.533     c0-28.237,22.972-51.2,51.2-51.2c27.75,0,51.2,23.45,51.2,51.2C307.197,150.443,292.203,170.607,270.725,177.05z"/>
			<path d="M401.067,0H110.933c-14.114,0-25.6,11.486-25.6,25.6v460.8c0,14.114,11.486,25.6,25.6,25.6h34.133v-42.667     c0-4.71,3.823-8.533,8.533-8.533h204.8c4.71,0,8.533,3.823,8.533,8.533V512h34.133c14.114,0,25.6-11.486,25.6-25.6V25.6     C426.667,11.486,415.181,0,401.067,0z M213.333,426.667h-68.267c-4.71,0-8.533-3.823-8.533-8.533s3.823-8.533,8.533-8.533h68.267     c4.71,0,8.533,3.823,8.533,8.533S218.044,426.667,213.333,426.667z M196.267,375.467c4.71,0,8.533,3.823,8.533,8.533     s-3.823,8.533-8.533,8.533h-51.2c-4.71,0-8.533-3.823-8.533-8.533s3.823-8.533,8.533-8.533H196.267z M179.2,332.8     c0-4.71,3.823-8.533,8.533-8.533h136.533c4.71,0,8.533,3.823,8.533,8.533c0,4.71-3.823,8.533-8.533,8.533H187.733     C183.023,341.333,179.2,337.51,179.2,332.8z M349.867,426.667h-51.2c-4.71,0-8.533-3.823-8.533-8.533s3.823-8.533,8.533-8.533     h51.2c4.71,0,8.533,3.823,8.533,8.533S354.577,426.667,349.867,426.667z M366.933,392.533h-68.267     c-4.71,0-8.533-3.823-8.533-8.533s3.823-8.533,8.533-8.533h68.267c4.71,0,8.533,3.823,8.533,8.533     S371.644,392.533,366.933,392.533z M256,307.2c-75.281,0-136.533-61.252-136.533-136.533S180.719,34.133,256,34.133     s136.533,61.252,136.533,136.533S331.281,307.2,256,307.2z"/>
		</g>
	</g>
</g>
<g>
</g>
<g>
</g>
<g>
</g>
<g>
</g>
<g>
</g>
<g>
</g>
<g>
</g>
<g>
</g>
<g>
</g>
<g>
</g>
<g>
</g>
<g>
</g>
<g>
</g>
<g>
</g>
<g>
</g>
</svg>
