<?xml version="1.0" encoding="iso-8859-1"?>
<!-- Generator: Adobe Illustrator 19.0.0, SVG Export Plug-In . SVG Version: 6.00 Build 0)  -->
<svg xmlns="http://www.w3.org/2000/svg" xmlns:xlink="http://www.w3.org/1999/xlink" version="1.1" id="Capa_1" x="0px" y="0px" viewBox="0 0 512 512" style="enable-background:new 0 0 512 512;" xml:space="preserve">
<g>
	<g>
		<g>
			<rect x="162.133" y="477.867" width="187.733" height="34.133"/>
			<path d="M255.999,51.2c-65.877,0-119.467,53.589-119.467,119.467c0,36.838,16.777,69.82,43.076,91.75     c1.553-10.172,7.731-19.174,16.939-24.201l29.585-14.575v-0.811c-12.885-7.091-22.4-18.603-27.221-32.913     c-6.921-4.011-11.179-11.614-11.179-20.523v-7.552c0-7.458,2.731-13.815,7.629-18.065c1.101-7.663,3.072-14.797,5.879-21.257     c2.662-6.144,3.524-12.322,2.492-17.877c-0.555-3.012-0.947-5.777-1.22-8.192c-0.512-4.386,1.886-8.533,5.973-10.291     s8.926-0.623,11.75,2.765c1.715,2.057,4.079,4.122,6.835,5.982c7.996,5.385,17.382,5.905,23.868,5.419     c1.527-0.12,3.106-0.179,4.71-0.179c35.046,0,55.262,14.618,60.151,43.477c5.308,4.386,8.465,11.025,8.465,18.219v7.552     c0,8.721-4.617,16.478-11.87,20.557c-4.83,14.618-13.918,25.882-26.53,32.87v1.169l27.887,14.302     c9.813,4.932,16.631,14.106,18.492,24.26c26.385-21.931,43.221-54.972,43.221-91.887C375.466,104.789,321.876,51.2,255.999,51.2z     "/>
			<path d="M306.063,253.537c-0.026-0.017-0.051-0.026-0.077-0.043l-27.913-14.319c-5.717-2.927-9.276-8.755-9.276-15.181v-3.797     c0-4.873,2.756-9.267,7.194-11.469c10.445-5.18,17.749-14.583,21.111-27.187c0.751-2.833,2.91-5.077,5.717-5.948     c2.662-0.819,4.378-3.26,4.378-6.204v-7.543c0-2.517-1.229-4.668-3.285-5.751c-2.492-1.314-4.173-3.763-4.497-6.562     c-2.62-22.349-16.119-32.324-43.759-32.324c-1.152,0-2.287,0.043-3.388,0.137c-11.554,0.887-22.204-1.195-31.087-6.067     c-0.265,5.965-1.707,12.066-4.284,18.031c-2.577,5.948-4.275,12.732-5.052,20.147c-0.299,2.825-1.971,5.308-4.48,6.647     c-2.125,1.126-2.569,3.746-2.569,5.743v7.543c0,1.519,0.358,5.171,3.686,6.204c2.799,0.87,4.958,3.115,5.717,5.948     c3.26,12.203,10.999,21.854,21.786,27.187c4.446,2.193,7.211,6.588,7.211,11.477v3.439c0,6.451-3.738,12.467-9.532,15.309     l-29.261,14.404c-4.898,2.688-8.141,8.149-8.141,14.089v5.99c35.977,21.879,83.49,21.879,119.467,0v-5.385     C315.731,262.258,311.848,256.43,306.063,253.537z"/>
			<path d="M401.067,0H110.933c-14.114,0-25.6,11.486-25.6,25.6v460.8c0,14.114,11.486,25.6,25.6,25.6h34.133v-42.667     c0-4.71,3.823-8.533,8.533-8.533h204.8c4.71,0,8.533,3.823,8.533,8.533V512h34.133c14.114,0,25.6-11.486,25.6-25.6V25.6     C426.667,11.486,415.181,0,401.067,0z M213.333,426.667h-68.267c-4.71,0-8.533-3.823-8.533-8.533s3.823-8.533,8.533-8.533h68.267     c4.71,0,8.533,3.823,8.533,8.533S218.044,426.667,213.333,426.667z M196.267,375.467c4.71,0,8.533,3.823,8.533,8.533     s-3.823,8.533-8.533,8.533h-51.2c-4.71,0-8.533-3.823-8.533-8.533s3.823-8.533,8.533-8.533H196.267z M179.2,332.8     c0-4.71,3.823-8.533,8.533-8.533h136.533c4.71,0,8.533,3.823,8.533,8.533c0,4.71-3.823,8.533-8.533,8.533H187.733     C183.023,341.333,179.2,337.51,179.2,332.8z M349.867,426.667h-51.2c-4.71,0-8.533-3.823-8.533-8.533s3.823-8.533,8.533-8.533     h51.2c4.71,0,8.533,3.823,8.533,8.533S354.577,426.667,349.867,426.667z M366.933,392.533h-68.267     c-4.71,0-8.533-3.823-8.533-8.533s3.823-8.533,8.533-8.533h68.267c4.71,0,8.533,3.823,8.533,8.533     S371.644,392.533,366.933,392.533z M279.253,305.067c-2.244,0.401-4.497,0.751-6.758,1.041c-1.476,0.179-2.944,0.35-4.429,0.478     c-3.994,0.367-8.013,0.614-12.066,0.614c-4.053,0-8.072-0.247-12.075-0.614c-1.476-0.128-2.944-0.299-4.42-0.478     c-2.261-0.29-4.514-0.64-6.758-1.041c-64.23-11.085-113.28-67.055-113.28-134.4c0-75.281,61.252-136.533,136.533-136.533     s136.533,61.252,136.533,136.533C392.533,238.012,343.475,293.982,279.253,305.067z"/>
		</g>
	</g>
</g>
<g>
</g>
<g>
</g>
<g>
</g>
<g>
</g>
<g>
</g>
<g>
</g>
<g>
</g>
<g>
</g>
<g>
</g>
<g>
</g>
<g>
</g>
<g>
</g>
<g>
</g>
<g>
</g>
<g>
</g>
</svg>
