<?xml version="1.0" encoding="iso-8859-1"?>
<!-- Generator: Adobe Illustrator 19.0.0, SVG Export Plug-In . SVG Version: 6.00 Build 0)  -->
<svg xmlns="http://www.w3.org/2000/svg" xmlns:xlink="http://www.w3.org/1999/xlink" version="1.1" id="Capa_1" x="0px" y="0px" viewBox="0 0 512.004 512.004" style="enable-background:new 0 0 512.004 512.004;" xml:space="preserve">
<g>
	<g>
		<g>
			<path d="M256.003,51.204c-65.877,0-119.467,53.589-119.467,119.467c0,34.884,15.121,66.227,39.049,88.09     c4.565-10.334,12.331-18.56,22.34-23.398l19.874-13.525l-30.353,0.034c-5.555-0.043-10.394-3.046-13.039-8.047     c-3.277-6.212-2.799-14.387,1.195-20.335c9.173-13.662,24.636-40.653,25.165-67.959c-0.026-0.563-0.666-24.934,15.522-41.822     c9.685-10.104,23.023-15.3,39.646-15.437c16.759,0.137,30.097,5.333,39.782,15.437c16.188,16.887,15.548,41.259,15.514,42.283     c0.529,26.837,16,53.837,25.173,67.499c3.994,5.956,4.471,14.123,1.186,20.335c-2.637,5-7.484,8.004-12.962,8.047l-30.438,0.008     l19.883,13.483c10.078,4.864,17.886,13.15,22.366,23.381c23.919-21.862,39.031-53.197,39.031-88.073     C375.47,104.794,321.88,51.204,256.003,51.204z"/>
			<rect x="162.136" y="477.871" width="187.733" height="34.133"/>
			<path d="M306.229,250.522c-0.418-0.188-0.811-0.41-1.195-0.674l-20.454-13.867c-1.86-1.067-8.055-4.966-10.513-10.786     c-2.065-4.881-0.614-11.273,1.886-15.053c2.236-3.379,5.641-5.325,9.318-5.325l37.402-0.009c0-0.631-0.128-1.348-0.435-1.801     c-10.214-15.223-27.46-45.483-28.066-77.141c0.009-0.606,0.35-18.825-10.863-30.438c-6.374-6.596-15.582-9.993-27.375-10.086     c-11.657,0.094-20.873,3.49-27.247,10.086c-11.213,11.614-10.863,29.833-10.854,30.012     c-0.614,32.094-17.843,62.353-28.066,77.568c-0.307,0.452-0.435,1.169-0.435,1.792l37.393-0.043c3.703,0,7.091,1.937,9.336,5.316     c2.509,3.789,3.977,10.18,1.903,15.07c-2.449,5.803-8.499,9.626-10.539,10.786l-20.446,13.909     c-0.375,0.265-0.785,0.495-1.203,0.683c-6.886,3.209-12.237,8.858-15.053,15.906l-1.22,3.337     c2.108,1.417,4.267,2.731,6.443,4.011c18.927,11.127,40.951,16.828,62.925,16.299c3.746-0.094,7.492-0.358,11.213-0.811     c18.679-2.261,36.813-8.969,52.42-19.499l-1.306-3.567C318.466,259.379,313.116,253.722,306.229,250.522z"/>
			<path d="M401.069,0H110.935c-14.114,0-25.6,11.486-25.6,25.6v460.8c0,14.123,11.486,25.6,25.6,25.6h34.133v-42.667     c0-4.71,3.823-8.533,8.533-8.533h204.8c4.71,0,8.533,3.823,8.533,8.533V512h34.133c14.114,0,25.6-11.477,25.6-25.6V25.6     C426.669,11.486,415.183,0,401.069,0z M213.335,426.667h-68.267c-4.71,0-8.533-3.814-8.533-8.533c0-4.71,3.823-8.533,8.533-8.533     h68.267c4.71,0,8.533,3.823,8.533,8.533C221.869,422.852,218.046,426.667,213.335,426.667z M196.269,375.467     c4.71,0,8.533,3.823,8.533,8.533c0,4.719-3.823,8.533-8.533,8.533h-51.2c-4.71,0-8.533-3.814-8.533-8.533     c0-4.71,3.823-8.533,8.533-8.533H196.269z M179.202,332.8c0-4.71,3.823-8.533,8.533-8.533h136.533     c4.71,0,8.533,3.823,8.533,8.533c0,4.719-3.823,8.533-8.533,8.533H187.735C183.025,341.333,179.202,337.519,179.202,332.8z      M349.869,426.667h-51.2c-4.71,0-8.533-3.814-8.533-8.533c0-4.71,3.823-8.533,8.533-8.533h51.2c4.71,0,8.533,3.823,8.533,8.533     C358.402,422.852,354.579,426.667,349.869,426.667z M366.935,392.533h-68.267c-4.71,0-8.533-3.814-8.533-8.533     c0-4.71,3.823-8.533,8.533-8.533h68.267c4.71,0,8.533,3.823,8.533,8.533C375.469,388.719,371.646,392.533,366.935,392.533z      M338.187,279.458c-2.577,1.954-5.231,3.814-7.962,5.589c-21.555,14.003-47.13,21.828-72.858,22.084     c-48.051,0.486-93.833-25.506-118.537-66.603c-12.638-21.026-19.362-45.329-19.362-69.862     c0-75.281,61.252-136.533,136.533-136.533s136.533,61.252,136.533,136.533C392.535,213.222,371.893,253.901,338.187,279.458z"/>
		</g>
	</g>
</g>
<g>
</g>
<g>
</g>
<g>
</g>
<g>
</g>
<g>
</g>
<g>
</g>
<g>
</g>
<g>
</g>
<g>
</g>
<g>
</g>
<g>
</g>
<g>
</g>
<g>
</g>
<g>
</g>
<g>
</g>
</svg>
