<?xml version="1.0" encoding="iso-8859-1"?>
<!-- Generator: Adobe Illustrator 19.0.0, SVG Export Plug-In . SVG Version: 6.00 Build 0)  -->
<svg xmlns="http://www.w3.org/2000/svg" xmlns:xlink="http://www.w3.org/1999/xlink" version="1.1" id="Capa_1" x="0px" y="0px" viewBox="0 0 512 512" style="enable-background:new 0 0 512 512;" xml:space="preserve">
<g>
	<g>
		<g>
			<path d="M255.999,51.2c-65.877,0-119.467,53.589-119.467,119.467c0,33.399,13.815,63.599,35.977,85.299     c3.157-3.627,6.869-6.733,11.136-9.062l36.42-19.866c0.444-0.239,1.801-0.981,1.801-5.564v-11.605     c-4.105-4.727-12.075-15.155-15.983-28.621c-3.959-2.927-9.617-8.209-9.617-15.522v-16.324c0-6.383,4.796-10.462,8.533-13.261     v-19.396c-0.017-0.546-0.495-20.122,13.278-34.355c9.071-9.37,21.828-14.123,37.922-14.123c17.033,0,30.259,4.958,39.305,14.746     c13.269,14.336,11.93,33.579,11.87,34.389l0.026,18.739c3.729,2.79,8.533,6.878,8.533,13.261v16.324     c0,7.313-5.658,12.595-9.617,15.522c-3.908,13.466-11.878,23.893-15.983,28.621v11.605c0,4.582,1.357,5.325,1.801,5.564     l36.42,19.866c4.267,2.33,7.979,5.436,11.136,9.062c22.161-21.7,35.977-51.9,35.977-85.299     C375.466,104.789,321.876,51.2,255.999,51.2z"/>
			<path d="M320.175,261.891l-36.412-19.866c-4.881-2.662-10.701-8.388-10.701-20.548v-14.925c0-2.287,0.922-4.48,2.552-6.084     c0.094-0.094,11.29-11.375,14.737-26.368c0.495-2.167,1.818-4.053,3.678-5.265c3.132-2.014,4.258-3.268,4.634-3.789v-13.892     c-0.751-0.666-1.903-1.51-2.611-2.031c-1.203-0.879-2.295-1.707-3.106-2.44c-1.792-1.621-2.816-3.917-2.816-6.332v-23.612     c0.034-0.734,0.759-13.483-7.45-22.255c-5.692-6.067-14.669-9.148-26.684-9.148c-11.29,0-19.925,3.004-25.651,8.917     c-8.67,8.951-8.491,22.084-8.482,22.212v23.885c0,2.415-1.016,4.71-2.807,6.332c-0.811,0.734-1.903,1.562-3.106,2.44     c-0.708,0.521-1.86,1.365-2.62,2.031v13.892c0.384,0.521,1.51,1.775,4.634,3.789c1.869,1.212,3.191,3.098,3.686,5.265     c3.422,14.916,14.618,26.257,14.737,26.368c1.63,1.604,2.543,3.797,2.543,6.084v14.925c0,12.16-5.811,17.886-10.692,20.548     l-36.42,19.866c-2.381,1.297-4.506,2.995-6.306,5.018c0.794,0.58,1.562,1.203,2.372,1.766     c20.011,13.918,44.254,21.504,68.634,21.402c24.038-0.111,47.88-7.689,67.601-21.402c0.811-0.563,1.57-1.186,2.372-1.766     C324.689,264.886,322.564,263.188,320.175,261.891z"/>
			<rect x="162.133" y="477.867" width="187.733" height="34.133"/>
			<path d="M401.067,0H110.933c-14.114,0-25.6,11.486-25.6,25.6v460.8c0,14.114,11.486,25.6,25.6,25.6h34.133v-42.667     c0-4.71,3.823-8.533,8.533-8.533h204.8c4.71,0,8.533,3.823,8.533,8.533V512h34.133c14.114,0,25.6-11.486,25.6-25.6V25.6     C426.667,11.486,415.181,0,401.067,0z M213.333,426.667h-68.267c-4.71,0-8.533-3.823-8.533-8.533s3.823-8.533,8.533-8.533h68.267     c4.71,0,8.533,3.823,8.533,8.533S218.044,426.667,213.333,426.667z M196.267,375.467c4.71,0,8.533,3.823,8.533,8.533     s-3.823,8.533-8.533,8.533h-51.2c-4.71,0-8.533-3.823-8.533-8.533s3.823-8.533,8.533-8.533H196.267z M179.2,332.8     c0-4.71,3.823-8.533,8.533-8.533h136.533c4.71,0,8.533,3.823,8.533,8.533c0,4.71-3.823,8.533-8.533,8.533H187.733     C183.023,341.333,179.2,337.51,179.2,332.8z M349.867,426.667h-51.2c-4.71,0-8.533-3.823-8.533-8.533s3.823-8.533,8.533-8.533     h51.2c4.71,0,8.533,3.823,8.533,8.533S354.577,426.667,349.867,426.667z M366.933,392.533h-68.267     c-4.71,0-8.533-3.823-8.533-8.533s3.823-8.533,8.533-8.533h68.267c4.71,0,8.533,3.823,8.533,8.533     S371.644,392.533,366.933,392.533z M353.98,265.574c-3.226,3.328-6.63,6.477-10.18,9.446     c-23.194,19.388-52.787,30.967-83.072,32.017c-36.258,1.254-72.593-12.604-98.842-37.623     c-24.977-23.808-40.311-56.704-42.214-91.179c-0.137-2.517-0.205-5.043-0.205-7.569c0-75.281,61.252-136.533,136.533-136.533     s136.533,61.252,136.533,136.533C392.533,205.901,378.539,240.307,353.98,265.574z"/>
		</g>
	</g>
</g>
<g>
</g>
<g>
</g>
<g>
</g>
<g>
</g>
<g>
</g>
<g>
</g>
<g>
</g>
<g>
</g>
<g>
</g>
<g>
</g>
<g>
</g>
<g>
</g>
<g>
</g>
<g>
</g>
<g>
</g>
</svg>
