<?xml version="1.0" encoding="iso-8859-1"?>
<!-- Generator: Adobe Illustrator 19.0.0, SVG Export Plug-In . SVG Version: 6.00 Build 0)  -->
<svg xmlns="http://www.w3.org/2000/svg" xmlns:xlink="http://www.w3.org/1999/xlink" version="1.1" id="Capa_1" x="0px" y="0px" viewBox="0 0 512 512" style="enable-background:new 0 0 512 512;" xml:space="preserve">
<g>
	<g>
		<g>
			<path d="M256.002,51.197c-65.877,0-119.467,53.589-119.467,119.467c0,34.338,14.643,65.246,37.914,87.057l35.499-32.341     c4.352-3.968,6.801-8.926,6.724-13.602c-0.017-1.485-0.23-2.927-0.631-4.292c-0.648-0.666-2.005-1.809-3.038-2.688     c-6.332-5.367-16.922-14.353-16.922-29.739c0-12.092,3.652-23.799,10.411-33.715c-8.491-11.401-12.578-32.205-10.069-40.781     c0.657-2.244,2.193-4.113,4.275-5.188c2.27-1.178,56.311-28.373,102.212,11.443c3.746,3.678,32.939,33.374,28.117,58.581     c-1.263,6.571-5.359,15.42-17.527,21.572c-1.869,2.901-5.129,6.562-10.522,12.416c-2.261,2.458-5.581,6.059-6.699,7.578     c-0.188,0.631-0.333,1.271-0.452,1.911c-0.998,5.7,1.596,12.134,6.758,16.836l35.072,31.915     c23.211-21.811,37.811-52.676,37.811-86.963C375.468,104.787,321.879,51.197,256.002,51.197z"/>
			<rect x="162.135" y="477.864" width="187.733" height="34.133"/>
			<path d="M279.023,205.949c0.29-1.707,0.725-3.413,1.289-5.103c0.998-2.961,3.285-5.606,10.103-13.013     c2.79-3.029,7.347-7.979,8.636-9.941c0.751-2.338,2.483-4.267,4.787-5.248c9.165-3.874,10.112-8.832,10.419-10.453     c2.654-13.867-16.145-36.147-22.938-42.863c-30.43-26.368-66.739-15.343-78.729-10.573c0.478,7.509,5.282,21.453,8.747,23.834     c2.697,0.947,4.523,3.089,5.214,5.862c0.7,2.773-0.256,5.606-2.185,7.723c-7.236,7.953-11.221,18.21-11.221,28.885     c0,6.938,4.719,11.486,10.897,16.725c3.533,2.987,6.579,5.572,7.902,9.395c1.135,3.285,1.741,6.758,1.792,10.325     c0.154,9.566-4.318,19.217-12.297,26.487l-33.621,30.635c0.341,0.239,0.657,0.512,0.998,0.751     c1.229,0.836,2.526,1.562,3.78,2.355c18.765,11.776,40.653,18.227,62.822,18.33c24.055,0.12,48.12-7.236,67.959-20.838     c0.316-0.213,0.606-0.461,0.922-0.683l-33.195-30.208C281.506,229.612,276.992,217.504,279.023,205.949z"/>
			<path d="M401.067,0H110.933c-14.114,0-25.6,11.477-25.6,25.6v460.8c0,14.114,11.486,25.6,25.6,25.6h34.133v-42.667     c0-4.719,3.823-8.533,8.533-8.533h204.8c4.71,0,8.533,3.814,8.533,8.533V512h34.133c14.123,0,25.6-11.486,25.6-25.6V25.6     C426.667,11.477,415.189,0,401.067,0z M213.333,426.667h-68.267c-4.71,0-8.533-3.823-8.533-8.533     c0-4.719,3.823-8.533,8.533-8.533h68.267c4.71,0,8.533,3.814,8.533,8.533C221.867,422.844,218.044,426.667,213.333,426.667z      M196.267,375.467c4.71,0,8.533,3.814,8.533,8.533c0,4.71-3.823,8.533-8.533,8.533h-51.2c-4.71,0-8.533-3.823-8.533-8.533     c0-4.719,3.823-8.533,8.533-8.533H196.267z M179.2,332.8c0-4.719,3.823-8.533,8.533-8.533h136.533     c4.71,0,8.533,3.814,8.533,8.533c0,4.71-3.823,8.533-8.533,8.533H187.733C183.023,341.333,179.2,337.51,179.2,332.8z      M349.867,426.667h-51.2c-4.71,0-8.533-3.823-8.533-8.533c0-4.719,3.823-8.533,8.533-8.533h51.2c4.71,0,8.533,3.814,8.533,8.533     C358.4,422.844,354.577,426.667,349.867,426.667z M366.933,392.533h-68.267c-4.71,0-8.533-3.823-8.533-8.533     c0-4.719,3.823-8.533,8.533-8.533h68.267c4.71,0,8.533,3.814,8.533,8.533C375.467,388.71,371.644,392.533,366.933,392.533z      M375.236,237.09c-8.175,14.601-19.038,27.665-31.872,38.366c-4.821,4.028-9.933,7.714-15.283,11.025     c-21.094,13.073-45.773,20.386-70.605,20.659c-0.375,0.008-0.751,0.008-1.118,0.008c-24.721,0.068-49.365-6.844-70.571-19.499     c-19.763-11.802-36.369-28.749-47.932-48.64c-11.657-20.053-18.005-42.982-18.372-66.176c-0.008-0.725-0.017-1.442-0.017-2.167     c0-75.29,61.252-136.533,136.533-136.533s136.533,61.244,136.533,136.533C392.533,193.852,386.56,216.866,375.236,237.09z"/>
		</g>
	</g>
</g>
<g>
</g>
<g>
</g>
<g>
</g>
<g>
</g>
<g>
</g>
<g>
</g>
<g>
</g>
<g>
</g>
<g>
</g>
<g>
</g>
<g>
</g>
<g>
</g>
<g>
</g>
<g>
</g>
<g>
</g>
</svg>
