<?xml version="1.0" encoding="iso-8859-1"?>
<!-- Generator: Adobe Illustrator 19.0.0, SVG Export Plug-In . SVG Version: 6.00 Build 0)  -->
<svg xmlns="http://www.w3.org/2000/svg" xmlns:xlink="http://www.w3.org/1999/xlink" version="1.1" id="Capa_1" x="0px" y="0px" viewBox="0 0 512.004 512.004" style="enable-background:new 0 0 512.004 512.004;" xml:space="preserve">
<g>
	<g>
		<g>
			<path d="M396.803,315.738c-14.114,0-25.6,11.486-25.6,25.6s11.486,25.6,25.6,25.6c14.114,0,25.6-11.486,25.6-25.6     S410.917,315.738,396.803,315.738z"/>
			<path d="M396.803,247.471c-51.755,0-93.867,40.192-93.867,89.591c0,24.047,7.979,39.211,18.074,58.402     c1.579,3.004,3.234,6.153,4.949,9.498c25.276,49.323,63.522,102.938,63.906,103.475c1.596,2.236,4.19,3.567,6.938,3.567     c2.748,0,5.342-1.331,6.938-3.567c0.384-0.538,38.63-54.153,63.906-103.475c1.715-3.345,3.371-6.494,4.949-9.498     c10.095-19.191,18.074-34.355,18.074-58.402C490.669,287.663,448.557,247.471,396.803,247.471z M396.803,384.004     c-23.526,0-42.667-19.14-42.667-42.667c0-23.526,19.14-42.667,42.667-42.667c23.526,0,42.667,19.14,42.667,42.667     C439.469,364.864,420.329,384.004,396.803,384.004z"/>
			<path d="M305.895,403.379c-8.491-16.128-16.623-24.311-19.209-42.982c-1.169-8.388-4.412-16.358-8.849-23.561     c-1.732-1.126-3.558-4.924-5.171-8.286l-1.297-2.679c-1.109-2.219-2.176-6.81-2.551-10.197h19.294     c8.055-37.905,37.111-68.514,74.897-80.171c-17.749-32.981-34.807-75.733-35.652-119.33C327.296,115.038,320.171,2.082,208.913,0     C97.971,2.082,90.846,115.038,90.778,116.446c-1.434,74.351-51.277,147.379-66.509,167.996     c-4.284,5.777-3.183,13.884,2.492,18.449c20.002,16.085,57.139,13.141,60.535,12.783h62.02c-0.375,3.388-1.442,7.97-2.534,10.189     l-1.314,2.688c-1.604,3.362-3.43,7.159-5.163,8.286L88.073,356.48c-25.523,9.677-45.141,30.063-53.837,55.936l-12.459,37.077     c-0.87,2.603-0.444,5.461,1.169,7.697c1.596,2.227,4.173,3.55,6.921,3.55h308.181c-9.293-15.13-18.944-31.744-27.281-47.991     L305.895,403.379z"/>
		</g>
	</g>
</g>
<g>
</g>
<g>
</g>
<g>
</g>
<g>
</g>
<g>
</g>
<g>
</g>
<g>
</g>
<g>
</g>
<g>
</g>
<g>
</g>
<g>
</g>
<g>
</g>
<g>
</g>
<g>
</g>
<g>
</g>
</svg>
