<?xml version="1.0" encoding="iso-8859-1"?>
<!-- Generator: Adobe Illustrator 19.0.0, SVG Export Plug-In . SVG Version: 6.00 Build 0)  -->
<svg xmlns="http://www.w3.org/2000/svg" xmlns:xlink="http://www.w3.org/1999/xlink" version="1.1" id="Capa_1" x="0px" y="0px" viewBox="0 0 512.004 512.004" style="enable-background:new 0 0 512.004 512.004;" xml:space="preserve">
<g>
	<g>
		<g>
			<path d="M396.803,315.738c-14.114,0-25.6,11.486-25.6,25.6s11.486,25.6,25.6,25.6c14.114,0,25.6-11.486,25.6-25.6     S410.918,315.738,396.803,315.738z"/>
			<path d="M396.803,247.471c-51.755,0-93.867,40.192-93.867,89.591c0,24.047,7.979,39.211,18.074,58.402     c1.579,3.004,3.234,6.153,4.949,9.498c25.276,49.323,63.522,102.938,63.906,103.475c1.596,2.236,4.19,3.567,6.938,3.567     c2.748,0,5.342-1.331,6.938-3.567c0.384-0.538,38.63-54.153,63.906-103.475c1.715-3.345,3.371-6.494,4.949-9.498     c10.095-19.191,18.074-34.355,18.074-58.402C490.67,287.663,448.558,247.471,396.803,247.471z M396.803,384.004     c-23.526,0-42.667-19.14-42.667-42.667c0-23.526,19.14-42.667,42.667-42.667c23.526,0,42.667,19.14,42.667,42.667     C439.47,364.864,420.33,384.004,396.803,384.004z"/>
			<path d="M305.895,403.379c-10.291-19.55-20.028-38.042-20.028-66.313v-32.802v-28.228c5.709-7.484,22.076-30.822,29.892-61.773     c8.064-6.468,12.774-16.145,12.774-26.53V153.6c0-8.218-3.063-16.179-8.533-22.4V85.811c0.486-4.685,2.364-32.631-17.843-55.68     C284.63,10.138,256.18,0,217.601,0c-38.571,0-67.021,10.138-84.548,30.131c-20.207,23.049-18.33,50.995-17.852,55.68V131.2     c-5.461,6.221-8.533,14.182-8.533,22.4v34.133c0,10.385,4.719,20.062,12.774,26.53c7.817,30.95,24.183,54.289,29.892,61.773     v28.228c0,8.26-4.497,15.846-11.75,19.797l-76.134,41.523c-24.747,13.508-40.115,39.398-40.115,67.584v19.098     c0,4.719,3.823,8.533,8.533,8.533h308.216c-9.301-15.138-18.97-31.778-27.315-48.051L305.895,403.379z"/>
		</g>
	</g>
</g>
<g>
</g>
<g>
</g>
<g>
</g>
<g>
</g>
<g>
</g>
<g>
</g>
<g>
</g>
<g>
</g>
<g>
</g>
<g>
</g>
<g>
</g>
<g>
</g>
<g>
</g>
<g>
</g>
<g>
</g>
</svg>
