<?xml version="1.0" encoding="iso-8859-1"?>
<!-- Generator: Adobe Illustrator 19.0.0, SVG Export Plug-In . SVG Version: 6.00 Build 0)  -->
<svg xmlns="http://www.w3.org/2000/svg" xmlns:xlink="http://www.w3.org/1999/xlink" version="1.1" id="Capa_1" x="0px" y="0px" viewBox="0 0 511.991 511.991" style="enable-background:new 0 0 511.991 511.991;" xml:space="preserve">
<g>
	<g>
		<g>
			<path d="M334.812,309.196l-41.626-22.707c-5.291-2.884-11.588-9.114-11.588-22.417v-17.05c0-1.783,0.555-3.524,1.596-4.975     c0.094-0.119,9.591-13.602,13.773-31.846c0.503-2.167,1.818-4.053,3.695-5.265c3.618-2.33,5.811-4.07,6.537-5.18v-17.033     c-0.768-0.913-2.492-2.33-3.499-3.14c-0.811-0.674-1.579-1.306-2.219-1.886c-1.792-1.621-2.816-3.925-2.816-6.332v-26.982     c0-0.358,0.026-0.725,0.06-1.084c0.009-0.051,1.203-11.614-6.75-20.523c-6.98-7.825-19.098-11.81-35.994-11.853     c-16.862,0.043-28.962,4.019-35.908,11.836c-7.927,8.9-6.699,20.463-6.69,20.574c0.034,0.333,0.06,0.725,0.06,1.05v26.982     c0,2.406-1.016,4.702-2.807,6.323c-0.674,0.614-1.493,1.28-2.372,1.997c-0.981,0.802-2.697,2.185-3.465,3.089v16.981     c0.725,1.109,2.91,2.85,6.528,5.18c1.877,1.212,3.191,3.098,3.695,5.265c4.181,18.244,13.679,31.727,13.781,31.855     c1.024,1.451,1.596,3.191,1.596,4.966v17.05c0,13.304-6.306,19.533-11.588,22.417l-41.634,22.707     c-9.284,5.06-15.044,14.78-15.044,25.361v6.767h187.733v-6.767C349.865,323.976,344.096,314.256,334.812,309.196z"/>
			<path d="M443.729,68.258c-124.51,0-180.369-64.239-181.18-65.212c-1.621-1.929-4.019-3.038-6.536-3.046h-0.026     c-2.517,0-4.907,1.118-6.536,3.046c-0.546,0.649-56.363,65.212-181.188,65.212c-4.719,0-8.533,3.823-8.533,8.533V239.65     c0,89.028,40.021,173.636,107.059,226.312c27.025,21.248,56.226,36.608,86.784,45.67c0.794,0.239,1.604,0.358,2.423,0.358     c0.819,0,1.63-0.119,2.423-0.358c30.558-9.062,59.759-24.422,86.784-45.67c67.038-52.676,107.059-137.284,107.059-226.312V76.791     C452.262,72.081,448.448,68.258,443.729,68.258z M366.929,349.858c0,4.71-3.814,8.533-8.533,8.533h-204.8     c-4.719,0-8.533-3.823-8.533-8.533v-15.3c0-16.828,9.173-32.29,23.953-40.346l41.626-22.707c0.734-0.401,2.688-1.468,2.688-7.433     v-14.464c-3.115-4.881-10.018-16.785-14.106-32.222c-5.06-3.49-11.494-9.011-11.494-17.024V181.7     c0-6.647,4.838-11.196,8.653-14.345v-22.545c-0.316-3.558-1.007-19.746,10.709-33.135c10.308-11.776,26.752-17.766,48.887-17.818     c22.17,0.051,38.63,6.042,48.964,17.818c11.75,13.389,11.093,29.585,10.786,33.118v22.579c3.772,3.166,8.533,7.714,8.533,14.327     v18.662c0,8.013-6.434,13.534-11.494,17.024c-4.087,15.437-10.991,27.341-14.106,32.222v14.464c0,5.965,1.954,7.031,2.697,7.433     l41.617,22.707c14.78,8.055,23.953,23.518,23.953,40.346V349.858z"/>
		</g>
	</g>
</g>
<g>
</g>
<g>
</g>
<g>
</g>
<g>
</g>
<g>
</g>
<g>
</g>
<g>
</g>
<g>
</g>
<g>
</g>
<g>
</g>
<g>
</g>
<g>
</g>
<g>
</g>
<g>
</g>
<g>
</g>
</svg>
