<?xml version="1.0" encoding="iso-8859-1"?>
<!-- Generator: Adobe Illustrator 19.0.0, SVG Export Plug-In . SVG Version: 6.00 Build 0)  -->
<svg xmlns="http://www.w3.org/2000/svg" xmlns:xlink="http://www.w3.org/1999/xlink" version="1.1" id="Capa_1" x="0px" y="0px" viewBox="0 0 512.001 512.001" style="enable-background:new 0 0 512.001 512.001;" xml:space="preserve">
<g>
	<g>
		<g>
			<path d="M383.326,318.08l-57.66-36.13c-6.033-3.294-9.933-9.6-9.933-16.077V242.5c6.852-7.057,24.422-27.11,31.488-53.666     c7.057-5.811,11.179-14.396,11.179-23.595v-29.483c0-6.904-3.004-13.858-8.533-19.883l-0.017-39.543     C349.808,75.571,344.653,0,256.001,0s-93.807,75.571-93.867,76.8v39.074c-5.53,6.033-8.533,12.979-8.533,19.883v29.483     c0,9.199,4.13,17.784,11.187,23.595c7.057,26.556,24.627,46.609,31.479,53.666v23.373c0,6.477-3.9,12.783-10.385,16.341     l-56.755,35.601c-21.751,11.861-35.26,34.62-35.26,59.383v15.334c0,4.71,3.814,8.533,8.533,8.533h307.2     c4.719,0,8.533-3.823,8.533-8.533v-15.334C418.134,352.435,404.626,329.677,383.326,318.08z"/>
			<path d="M299.96,446.751l-25.327-3.866l-11.145-20.318c-3.004-5.47-11.972-5.47-14.967,0l-11.153,20.318l-25.327,3.866     c-3.157,0.486-5.777,2.697-6.801,5.726c-1.015,3.038-0.247,6.383,1.988,8.67l18.33,18.79l-3.593,22.17     c-0.538,3.345,0.956,6.699,3.814,8.533c2.859,1.843,6.511,1.809,9.344-0.068l20.881-13.918l20.855,13.918     c1.434,0.947,3.081,1.425,4.736,1.425c1.596,0,3.209-0.444,4.617-1.348c2.85-1.835,4.343-5.188,3.806-8.542l-3.575-22.17     l18.33-18.79c2.236-2.287,3.004-5.632,1.988-8.67C305.746,449.447,303.117,447.237,299.96,446.751z"/>
		</g>
	</g>
</g>
<g>
</g>
<g>
</g>
<g>
</g>
<g>
</g>
<g>
</g>
<g>
</g>
<g>
</g>
<g>
</g>
<g>
</g>
<g>
</g>
<g>
</g>
<g>
</g>
<g>
</g>
<g>
</g>
<g>
</g>
</svg>
