<?xml version="1.0" encoding="iso-8859-1"?>
<!-- Generator: Adobe Illustrator 19.0.0, SVG Export Plug-In . SVG Version: 6.00 Build 0)  -->
<svg xmlns="http://www.w3.org/2000/svg" xmlns:xlink="http://www.w3.org/1999/xlink" version="1.1" id="Capa_1" x="0px" y="0px" viewBox="0 0 512.008 512.008" style="enable-background:new 0 0 512.008 512.008;" xml:space="preserve">
<g>
	<g>
		<g>
			<path d="M383.33,318.08l-57.66-36.13c-6.033-3.294-9.933-9.6-9.933-16.077V242.5c6.844-7.057,24.414-27.11,31.479-53.666     c7.057-5.811,11.187-14.396,11.187-23.595v-29.483c0-6.912-3.004-13.858-8.533-19.883l-0.017-39.543     C349.811,75.571,344.657,0,256.004,0c-88.661,0-93.815,75.571-93.867,76.8v39.074c-5.53,6.025-8.533,12.971-8.533,19.883v29.483     c0,9.199,4.122,17.784,11.179,23.595c7.066,26.556,24.636,46.609,31.488,53.666v23.373c0,6.477-3.9,12.783-10.385,16.341     l-56.772,35.601c-21.734,11.861-35.243,34.62-35.243,59.383v15.334c0,4.71,3.814,8.533,8.533,8.533h307.2     c4.71,0,8.533-3.823,8.533-8.533v-15.334C418.137,352.435,404.629,329.677,383.33,318.08z"/>
			<path d="M240.23,446.751l-25.318-3.866l-11.153-20.318c-1.502-2.739-4.369-4.437-7.484-4.437c-3.115,0-5.982,1.698-7.475,4.429     l-11.162,20.326l-25.318,3.866c-3.157,0.486-5.786,2.697-6.801,5.726c-1.015,3.038-0.247,6.383,1.98,8.67l18.33,18.79     l-3.584,22.17c-0.546,3.345,0.956,6.699,3.806,8.533c2.859,1.852,6.528,1.818,9.353-0.068l20.873-13.918l20.855,13.918     c1.434,0.947,3.089,1.425,4.736,1.425c1.604,0,3.209-0.444,4.617-1.348c2.85-1.835,4.343-5.188,3.806-8.542l-3.567-22.17     l18.33-18.79c2.236-2.287,3.004-5.632,1.98-8.67C246.016,449.447,243.396,447.237,240.23,446.751z"/>
			<path d="M359.697,446.751l-25.318-3.866l-11.153-20.318c-1.502-2.739-4.369-4.437-7.484-4.437c-3.115,0-5.982,1.698-7.475,4.429     l-11.162,20.326l-25.318,3.866c-3.157,0.486-5.786,2.697-6.801,5.726c-1.015,3.038-0.247,6.383,1.98,8.67l18.33,18.79     l-3.584,22.17c-0.546,3.345,0.956,6.699,3.806,8.533c2.859,1.852,6.528,1.818,9.353-0.068l20.873-13.918l20.855,13.918     c1.434,0.947,3.089,1.425,4.736,1.425c1.604,0,3.209-0.444,4.617-1.348c2.85-1.835,4.343-5.188,3.806-8.542l-3.567-22.17     l18.33-18.79c2.236-2.287,3.004-5.632,1.98-8.67C365.482,449.447,362.862,447.237,359.697,446.751z"/>
		</g>
	</g>
</g>
<g>
</g>
<g>
</g>
<g>
</g>
<g>
</g>
<g>
</g>
<g>
</g>
<g>
</g>
<g>
</g>
<g>
</g>
<g>
</g>
<g>
</g>
<g>
</g>
<g>
</g>
<g>
</g>
<g>
</g>
</svg>
