<?xml version="1.0" encoding="iso-8859-1"?>
<!-- Generator: Adobe Illustrator 19.0.0, SVG Export Plug-In . SVG Version: 6.00 Build 0)  -->
<svg xmlns="http://www.w3.org/2000/svg" xmlns:xlink="http://www.w3.org/1999/xlink" version="1.1" id="Capa_1" x="0px" y="0px" viewBox="0 0 512.007 512.007" style="enable-background:new 0 0 512.007 512.007;" xml:space="preserve">
<g>
	<g>
		<g>
			<path d="M102.399,401.067h307.2c4.71,0,8.533-3.823,8.533-8.533v-15.334c0-24.764-13.508-47.522-34.807-59.119l-57.66-36.13     c-6.033-3.294-9.933-9.6-9.933-16.077V242.5c6.852-7.057,24.422-27.11,31.479-53.675c7.066-5.803,11.187-14.387,11.187-23.586     v-29.483c0-6.912-3.004-13.858-8.533-19.883l-0.009-39.543C349.814,75.571,344.651,0,255.999,0s-93.815,75.571-93.867,76.8     v39.074c-5.53,6.025-8.533,12.971-8.533,19.883v29.483c0,9.199,4.122,17.783,11.187,23.586     c7.057,26.564,24.627,46.618,31.479,53.675v23.373c0,6.477-3.9,12.783-10.377,16.341l-56.772,35.601     c-21.743,11.861-35.251,34.62-35.251,59.383v15.334C93.865,397.244,97.688,401.067,102.399,401.067z"/>
			<path d="M180.495,446.75l-25.318-3.866l-11.153-20.318c-1.502-2.739-4.369-4.437-7.484-4.437s-5.982,1.698-7.475,4.429     l-11.162,20.326l-25.318,3.866c-3.157,0.486-5.786,2.697-6.801,5.726c-1.015,3.038-0.247,6.383,1.98,8.67l18.33,18.79     l-3.584,22.17c-0.546,3.345,0.956,6.699,3.806,8.533c2.867,1.852,6.528,1.818,9.353-0.068l20.873-13.918l20.855,13.918     c1.434,0.947,3.089,1.425,4.736,1.425c1.604,0,3.208-0.444,4.617-1.348c2.85-1.835,4.343-5.188,3.806-8.542l-3.567-22.17     l18.33-18.79c2.236-2.287,3.004-5.632,1.98-8.67C186.28,449.446,183.661,447.236,180.495,446.75z"/>
			<path d="M299.953,446.75l-25.318-3.866l-11.153-20.318c-2.995-5.47-11.972-5.47-14.959,0l-11.162,20.318l-25.318,3.866     c-3.157,0.486-5.786,2.697-6.801,5.726c-1.015,3.038-0.247,6.383,1.98,8.67l18.33,18.79l-3.584,22.17     c-0.546,3.345,0.956,6.699,3.806,8.533c2.867,1.852,6.528,1.818,9.353-0.068l20.873-13.918l20.855,13.918     c1.434,0.947,3.089,1.425,4.736,1.425c1.604,0,3.208-0.444,4.617-1.348c2.85-1.835,4.343-5.188,3.806-8.542l-3.567-22.17     l18.33-18.79c2.236-2.287,3.004-5.632,1.98-8.67C305.739,449.446,303.119,447.236,299.953,446.75z"/>
			<path d="M426.223,452.479c-1.016-3.029-3.644-5.248-6.801-5.726l-25.318-3.874l-11.162-20.318     c-2.987-5.461-11.964-5.461-14.959,0l-11.153,20.318l-25.318,3.874c-3.166,0.478-5.786,2.697-6.801,5.726     c-1.024,3.029-0.256,6.383,1.98,8.67l18.33,18.782l-3.593,22.17c-0.538,3.354,0.956,6.707,3.814,8.542     c2.859,1.843,6.519,1.809,9.344-0.077l20.881-13.909l20.855,13.909c1.434,0.956,3.081,1.434,4.736,1.434     c1.604,0,3.209-0.452,4.608-1.357c2.859-1.826,4.352-5.188,3.814-8.533l-3.575-22.178l18.338-18.782     C426.471,458.862,427.239,455.509,426.223,452.479z"/>
		</g>
	</g>
</g>
<g>
</g>
<g>
</g>
<g>
</g>
<g>
</g>
<g>
</g>
<g>
</g>
<g>
</g>
<g>
</g>
<g>
</g>
<g>
</g>
<g>
</g>
<g>
</g>
<g>
</g>
<g>
</g>
<g>
</g>
</svg>
