<?xml version="1.0" encoding="iso-8859-1"?>
<!-- Generator: Adobe Illustrator 19.0.0, SVG Export Plug-In . SVG Version: 6.00 Build 0)  -->
<svg xmlns="http://www.w3.org/2000/svg" xmlns:xlink="http://www.w3.org/1999/xlink" version="1.1" id="Capa_1" x="0px" y="0px" viewBox="0 0 504.053 504.053" style="enable-background:new 0 0 504.053 504.053;" xml:space="preserve">
<g>
	<g>
		<g>
			<path d="M461.985,80.413C458.149,37.951,422.67,4.419,380.09,4.419c-25.331,0-49.899,11.935-65.805,31.576     c-13.597-5.892-29.956-4.583-42.462,3.357c-12.741,8.1-20.858,22.629-21.084,37.712c0,0.109-0.034,0.21-0.034,0.319     c-19.347,11.566-32.474,34.144-32.474,56.748c0,34.925,28.731,63.337,64.05,63.337h162.354c32.76,0,59.417-26.708,59.417-59.543     C504.053,111.704,486.376,88.085,461.985,80.413z"/>
			<path d="M366.858,233.508c-0.772-0.772-1.704-1.393-2.728-1.813c-2.056-0.848-4.365-0.848-6.421,0     c-1.024,0.42-1.956,1.041-2.728,1.813l-25.18,25.18c-3.273,3.273-3.273,8.586,0,11.868c3.282,3.273,8.595,3.273,11.877,0     l10.844-10.853v21.705c0,50.906-41.413,92.328-92.328,92.328h-25.18c-4.633,0-8.393,3.752-8.393,8.393     c0,4.633,3.76,8.393,8.393,8.393h25.18c60.173,0,109.115-48.951,109.115-109.115v-21.705l10.853,10.853     c1.645,1.637,3.794,2.459,5.934,2.459c2.149,0,4.297-0.823,5.943-2.459c3.273-3.282,3.273-8.595,0-11.868L366.858,233.508z"/>
			<path d="M194.678,436.507l-40.943-22.335c-0.722-0.395-2.652-1.444-2.652-7.311v-14.227c3.072-4.801,9.854-16.51,13.874-31.694     c4.977-3.433,11.306-8.864,11.306-16.745V325.84c0-6.505-4.675-10.979-8.393-14.093v-22.209     c0.302-3.466,0.948-19.406-10.609-32.575c-10.156-11.583-26.355-17.475-48.162-17.526c-21.773,0.05-37.955,5.943-48.094,17.526     c-11.516,13.169-10.836,29.092-10.525,32.592v22.175c-3.743,3.097-8.511,7.571-8.511,14.109v18.356     c0,7.881,6.337,13.312,11.306,16.745c4.021,15.184,10.802,26.893,13.874,31.694v14.227c0,5.867-1.922,6.916-2.652,7.311     L23.56,436.507C9.023,444.431,0,459.631,0,476.191v15.049c0,4.633,3.76,8.393,8.393,8.393h201.443     c4.633,0,8.393-3.76,8.393-8.393v-15.049C218.23,459.631,209.207,444.431,194.678,436.507z"/>
		</g>
	</g>
</g>
<g>
</g>
<g>
</g>
<g>
</g>
<g>
</g>
<g>
</g>
<g>
</g>
<g>
</g>
<g>
</g>
<g>
</g>
<g>
</g>
<g>
</g>
<g>
</g>
<g>
</g>
<g>
</g>
<g>
</g>
</svg>
