<?xml version="1.0" encoding="iso-8859-1"?>
<!-- Generator: Adobe Illustrator 19.0.0, SVG Export Plug-In . SVG Version: 6.00 Build 0)  -->
<svg xmlns="http://www.w3.org/2000/svg" xmlns:xlink="http://www.w3.org/1999/xlink" version="1.1" id="Capa_1" x="0px" y="0px" viewBox="0 0 504.053 504.053" style="enable-background:new 0 0 504.053 504.053;" xml:space="preserve">
<g>
	<g>
		<g>
			<path d="M213.252,476.158c-0.025-0.076-0.059-0.151-0.084-0.227c-5.313-13.27-15.377-23.905-28.345-29.923l-37.208-17.282     c-2.04-1.1-4.079-2.904-4.893-3.937c0.017-0.21,0.05-0.453,0.092-0.697h56.849c6.127-0.042,11.499-3.307,14.361-8.721     c3.441-6.522,2.82-15.268-1.544-21.773c-11.533-17.173-30.98-51.141-31.66-85.89c-1.175-23.25-17.416-67.198-71.009-68.23     c-0.302-0.025-0.63,0.025-0.965-0.042c-53.785,0.445-70.245,44.855-71.445,68.532c-0.672,34.489-20.119,68.457-31.652,85.638     c-4.365,6.497-4.977,15.242-1.536,21.764c2.862,5.414,8.226,8.679,14.42,8.721h56.782c0.042,0.243,0.076,0.478,0.101,0.688     c-0.823,1.058-2.795,2.82-4.457,3.727l-37.653,17.5c-12.968,6.018-23.023,16.653-28.42,30.149l-4.474,12.196     c-0.94,2.577-0.571,5.447,0.999,7.697c1.57,2.241,4.146,3.584,6.883,3.584h201.443c2.745,0,5.313-1.343,6.883-3.584     c1.57-2.249,1.947-5.12,0.999-7.697L213.252,476.158z"/>
			<path d="M461.985,80.413C458.15,37.95,422.67,4.418,380.09,4.418c-16.921,0-33.691,5.38-47.65,14.898     c-3.525,2.401-6.866,5.061-9.997,7.965c-2.082,1.93-6.245,8.209-8.771,8.477c-1.511,0.159-4.574-1.637-6.152-2.031     c-2.275-0.571-4.591-0.965-6.925-1.175c-4.49-0.411-9.048-0.176-13.471,0.705c-4.767,0.948-9.401,2.652-13.623,5.078     c-13.656,7.873-22.528,22.99-22.763,38.727c0,0.109-0.034,0.21-0.034,0.319c-19.347,11.566-32.474,34.144-32.474,56.748     c0,34.925,28.731,63.337,64.05,63.337h162.354c32.76,0,59.417-26.708,59.417-59.543     C504.053,111.703,486.377,88.084,461.985,80.413z"/>
			<path d="M366.858,233.507c-0.772-0.772-1.704-1.393-2.728-1.813c-2.056-0.848-4.365-0.848-6.421,0     c-1.024,0.42-1.956,1.041-2.728,1.813l-25.18,25.18c-3.273,3.273-3.273,8.586,0,11.868c3.282,3.273,8.595,3.273,11.877,0     l10.844-10.853v21.705c0,50.906-41.413,92.328-92.328,92.328h-25.18c-4.633,0-8.393,3.752-8.393,8.393     c0,4.633,3.76,8.393,8.393,8.393h25.18c60.173,0,109.115-48.951,109.115-109.115v-21.705l10.853,10.853     c1.645,1.637,3.794,2.459,5.934,2.459c2.149,0,4.297-0.823,5.943-2.459c3.273-3.282,3.273-8.595,0-11.868L366.858,233.507z"/>
		</g>
	</g>
</g>
<g>
</g>
<g>
</g>
<g>
</g>
<g>
</g>
<g>
</g>
<g>
</g>
<g>
</g>
<g>
</g>
<g>
</g>
<g>
</g>
<g>
</g>
<g>
</g>
<g>
</g>
<g>
</g>
<g>
</g>
</svg>
