<?xml version="1.0" encoding="iso-8859-1"?>
<!-- Generator: Adobe Illustrator 19.0.0, SVG Export Plug-In . SVG Version: 6.00 Build 0)  -->
<svg xmlns="http://www.w3.org/2000/svg" xmlns:xlink="http://www.w3.org/1999/xlink" version="1.1" id="Capa_1" x="0px" y="0px" viewBox="0 0 512.001 512.001" style="enable-background:new 0 0 512.001 512.001;" xml:space="preserve">
<g>
	<g>
		<g>
			<path d="M381.506,296.906c-0.785-0.785-1.732-1.417-2.773-1.843c-2.091-0.862-4.437-0.862-6.528,0     c-1.041,0.427-1.988,1.058-2.773,1.843l-25.6,25.6c-3.328,3.328-3.328,8.73,0,12.066c3.337,3.328,8.738,3.328,12.075,0     l8.781-8.789c-10.701,54.98-59.162,96.623-117.222,96.623c-4.71,0-8.533,3.814-8.533,8.533c0,4.71,3.823,8.533,8.533,8.533     c68.787,0,125.696-51.191,135.04-117.436l12.527,12.536c1.673,1.664,3.857,2.5,6.033,2.5c2.185,0,4.369-0.836,6.042-2.5     c3.328-3.337,3.328-8.738,0-12.066L381.506,296.906z"/>
			<path d="M113.431,215.097c0.785,0.785,1.732,1.417,2.773,1.843c1.05,0.435,2.15,0.657,3.268,0.657c1.109,0,2.21-0.222,3.26-0.657     c1.041-0.427,1.988-1.058,2.773-1.843l25.6-25.6c3.328-3.328,3.328-8.73,0-12.066c-3.337-3.328-8.738-3.328-12.075,0     l-8.781,8.789c10.701-54.98,59.162-96.623,117.222-96.623c4.71,0,8.533-3.814,8.533-8.533c0-4.71-3.823-8.533-8.533-8.533     c-68.787,0-125.696,51.191-135.04,117.436L99.906,177.43c-3.337-3.328-8.738-3.328-12.075,0c-3.328,3.337-3.328,8.738,0,12.066     L113.431,215.097z"/>
			<path d="M511.481,257.331l-4.54-12.399c-0.034-0.068-0.06-0.154-0.085-0.222c-5.402-13.5-15.633-24.311-28.817-30.43     l-37.837-17.57c-2.074-1.109-4.139-2.944-4.975-3.994c0.026-0.222,0.06-0.461,0.102-0.717h57.796     c6.229-0.043,11.691-3.362,14.601-8.866c3.499-6.63,2.867-15.522-1.57-22.135c-11.725-17.459-31.497-51.994-32.188-87.313     c-1.203-23.646-17.715-68.318-72.192-69.367c-0.316-0.034-0.649,0-0.99-0.051c-54.673,0.452-71.407,45.602-72.627,69.683     c-0.683,35.055-20.454,69.589-32.179,87.057c-4.437,6.605-5.069,15.497-1.562,22.127c2.901,5.504,8.363,8.823,14.652,8.866     h57.737c0.043,0.256,0.077,0.486,0.102,0.708c-0.836,1.067-2.842,2.859-4.54,3.789l-38.272,17.783     c-13.184,6.118-23.415,16.93-28.902,30.652l-4.54,12.399c-0.956,2.62-0.58,5.538,1.016,7.825     c1.596,2.287,4.207,3.644,6.997,3.644h204.8c2.79,0,5.402-1.357,6.997-3.644C512.062,262.869,512.437,259.95,511.481,257.331z"/>
			<path d="M216.806,483.868c-0.026-0.077-0.06-0.154-0.085-0.23c-5.402-13.491-15.633-24.303-28.817-30.421l-37.828-17.57     c-2.074-1.118-4.147-2.953-4.975-4.002c0.017-0.213,0.051-0.461,0.094-0.708h57.796c6.229-0.043,11.691-3.362,14.601-8.866     c3.499-6.63,2.867-15.522-1.57-22.135c-11.725-17.459-31.497-51.994-32.188-87.322c-1.195-23.637-17.707-68.318-72.192-69.367     c-0.316-0.026-0.691,0.026-0.981-0.043c-54.682,0.452-71.415,45.602-72.636,69.675c-0.683,35.064-20.454,69.598-32.179,87.066     c-4.437,6.605-5.06,15.497-1.562,22.127c2.91,5.504,8.363,8.823,14.66,8.866h57.728c0.043,0.247,0.077,0.486,0.102,0.7     c-0.836,1.075-2.842,2.867-4.531,3.789l-38.281,17.792c-13.184,6.118-23.407,16.93-28.894,30.652L0.52,496.266     c-0.956,2.62-0.58,5.538,1.016,7.825c1.596,2.278,4.215,3.644,6.997,3.644h204.8c2.79,0,5.402-1.365,6.997-3.644     c1.596-2.287,1.98-5.205,1.015-7.825L216.806,483.868z"/>
		</g>
	</g>
</g>
<g>
</g>
<g>
</g>
<g>
</g>
<g>
</g>
<g>
</g>
<g>
</g>
<g>
</g>
<g>
</g>
<g>
</g>
<g>
</g>
<g>
</g>
<g>
</g>
<g>
</g>
<g>
</g>
<g>
</g>
</svg>
