<?xml version="1.0" encoding="iso-8859-1"?>
<!-- Generator: Adobe Illustrator 19.0.0, SVG Export Plug-In . SVG Version: 6.00 Build 0)  -->
<svg xmlns="http://www.w3.org/2000/svg" xmlns:xlink="http://www.w3.org/1999/xlink" version="1.1" id="Capa_1" x="0px" y="0px" viewBox="0 0 511.995 511.995" style="enable-background:new 0 0 511.995 511.995;" xml:space="preserve">
<g>
	<g>
		<g>
			<path d="M197.914,443.553l-41.617-22.707c-0.742-0.401-2.697-1.468-2.697-7.433v-14.464c3.115-4.881,10.01-16.785,14.106-32.222     c5.06-3.49,11.494-9.011,11.494-17.024v-18.662c0-6.613-4.762-11.162-8.533-14.327v-22.579     c0.307-3.524,0.964-19.721-10.786-33.109c-10.334-11.776-26.795-17.766-48.964-17.818c-22.144,0.051-38.596,6.05-48.905,17.826     c-11.708,13.38-11.017,29.551-10.701,33.109v22.554c-3.806,3.149-8.644,7.697-8.644,14.345v18.662     c0,8.013,6.434,13.534,11.486,17.024c4.096,15.437,10.991,27.341,14.114,32.222v14.464c0,5.965-1.963,7.031-2.697,7.433     l-41.626,22.707C9.173,451.608,0,467.071,0,483.898v15.3c0,4.71,3.814,8.533,8.533,8.533h204.8c4.71,0,8.533-3.823,8.533-8.533     v-15.3C221.867,467.071,212.685,451.608,197.914,443.553z"/>
			<path d="M381.505,296.907c-0.794-0.794-1.732-1.417-2.782-1.852c-2.082-0.862-4.437-0.862-6.519,0     c-1.05,0.435-1.988,1.058-2.782,1.852l-25.591,25.591c-3.337,3.337-3.337,8.73,0,12.066c3.336,3.337,8.73,3.337,12.066,0     l8.781-8.781c-10.701,54.972-59.153,96.614-117.214,96.614c-4.719,0-8.533,3.823-8.533,8.533c0,4.71,3.814,8.533,8.533,8.533     c68.787,0,125.696-51.183,135.031-117.427l12.535,12.527c1.664,1.664,3.849,2.5,6.033,2.5c2.185,0,4.369-0.836,6.033-2.5     c3.337-3.337,3.337-8.73,0-12.066L381.505,296.907z"/>
			<path d="M113.422,215.091c0.794,0.794,1.732,1.417,2.782,1.852c1.041,0.435,2.15,0.657,3.26,0.657s2.219-0.222,3.26-0.657     c1.05-0.435,1.988-1.058,2.782-1.852l25.591-25.591c3.337-3.336,3.337-8.73,0-12.066s-8.73-3.337-12.066,0l-8.781,8.781     c10.701-54.972,59.153-96.614,117.214-96.614c4.719,0,8.533-3.823,8.533-8.533s-3.814-8.533-8.533-8.533     c-68.787,0-125.696,51.183-135.031,117.427l-12.535-12.527c-3.336-3.337-8.73-3.337-12.066,0s-3.337,8.73,0,12.066     L113.422,215.091z"/>
			<path d="M511.472,257.328l-4.54-12.399c-0.026-0.068-0.051-0.154-0.085-0.222c-5.402-13.5-15.633-24.311-28.809-30.43     l-37.845-17.57c-2.074-1.109-4.139-2.944-4.975-4.002c0.026-0.213,0.06-0.452,0.102-0.708h57.813     c6.221-0.043,11.682-3.362,14.592-8.866c3.499-6.63,2.859-15.522-1.579-22.127c-11.725-17.468-31.488-52.011-32.188-87.322     c-1.195-23.646-17.707-68.318-72.192-69.367c-0.316-0.034-0.572-0.051-0.981-0.051c-54.682,0.452-71.415,45.602-72.627,69.683     c-0.683,35.046-20.454,69.589-32.179,87.049c-4.437,6.613-5.077,15.505-1.57,22.135c2.901,5.504,8.363,8.823,14.652,8.866h57.745     c0.043,0.247,0.077,0.486,0.102,0.7c-0.836,1.075-2.842,2.867-4.548,3.797l-38.263,17.783     c-13.184,6.118-23.415,16.93-28.902,30.652l-4.54,12.399c-0.964,2.62-0.58,5.538,1.016,7.825     c1.596,2.287,4.207,3.644,6.997,3.644h204.8c2.782,0,5.393-1.357,6.989-3.644C512.052,262.866,512.436,259.948,511.472,257.328z"/>
		</g>
	</g>
</g>
<g>
</g>
<g>
</g>
<g>
</g>
<g>
</g>
<g>
</g>
<g>
</g>
<g>
</g>
<g>
</g>
<g>
</g>
<g>
</g>
<g>
</g>
<g>
</g>
<g>
</g>
<g>
</g>
<g>
</g>
</svg>
