<?xml version="1.0" encoding="iso-8859-1"?>
<!-- Generator: Adobe Illustrator 19.0.0, SVG Export Plug-In . SVG Version: 6.00 Build 0)  -->
<svg xmlns="http://www.w3.org/2000/svg" xmlns:xlink="http://www.w3.org/1999/xlink" version="1.1" id="Capa_1" x="0px" y="0px" viewBox="0 0 512 512" style="enable-background:new 0 0 512 512;" xml:space="preserve">
<g>
	<g>
		<g>
			<path d="M197.914,443.55l-41.617-22.707c-0.742-0.401-2.697-1.468-2.697-7.433v-14.464c3.115-4.881,10.01-16.785,14.106-32.222     c5.06-3.49,11.494-9.011,11.494-17.024v-18.662c0-6.613-4.762-11.162-8.533-14.327v-22.579     c0.307-3.524,0.964-19.721-10.786-33.109c-10.334-11.776-26.795-17.766-48.964-17.818c-22.144,0.051-38.596,6.05-48.905,17.826     c-11.708,13.38-11.017,29.551-10.701,33.109v22.554c-3.806,3.149-8.644,7.697-8.644,14.345V349.7     c0,8.013,6.434,13.534,11.486,17.024c4.096,15.437,10.991,27.341,14.114,32.222v14.464c0,5.965-1.963,7.031-2.697,7.433     L23.945,443.55C9.173,451.605,0,467.068,0,483.895v15.3c0,4.71,3.814,8.533,8.533,8.533h204.8c4.71,0,8.533-3.823,8.533-8.533     v-15.3C221.867,467.068,212.685,451.605,197.914,443.55z"/>
			<path d="M488.047,204.617l-41.617-22.699c-1.664-0.913-2.697-2.654-2.697-4.548v-17.365c2.978-4.659,9.421-15.744,13.551-30.182     c0.265-0.93,0.794-2.185,1.835-2.953c2.526-1.869,10.214-7.526,10.214-16.102V92.105c0-6.536-4.966-11.119-6.596-12.629     c-1.229-1.135-1.937-2.739-1.937-4.395V55.198c0.307-3.524,0.964-19.721-10.786-33.109C439.68,10.313,423.219,4.322,401.05,4.271     c-22.144,0.051-38.596,6.05-48.905,17.826c-11.708,13.38-11.017,29.551-10.701,33.109v19.831c0,1.673-0.725,3.285-1.971,4.429     c-1.647,1.502-6.673,6.076-6.673,12.638v18.662c0,8.576,7.68,14.234,10.206,16.102c1.041,0.768,1.579,2.022,1.835,2.944     c4.13,14.438,10.573,25.532,13.56,30.191v17.365c0,1.894-1.033,3.635-2.697,4.54l-41.626,22.707     c-14.771,8.055-23.945,23.518-23.945,40.346v15.3c0,4.71,3.814,8.533,8.533,8.533h204.8c4.71,0,8.533-3.823,8.533-8.533v-15.3     C512,228.134,502.818,212.672,488.047,204.617z"/>
			<path d="M381.505,296.904c-0.794-0.794-1.732-1.417-2.782-1.852c-2.082-0.862-4.437-0.862-6.519,0     c-1.05,0.435-1.988,1.058-2.782,1.852l-25.591,25.591c-3.337,3.337-3.337,8.73,0,12.066c3.336,3.337,8.73,3.337,12.066,0     l8.781-8.781c-10.701,54.972-59.153,96.614-117.214,96.614c-4.719,0-8.533,3.823-8.533,8.533c0,4.71,3.814,8.533,8.533,8.533     c68.787,0,125.696-51.183,135.031-117.427l12.535,12.527c1.664,1.664,3.849,2.5,6.033,2.5c2.185,0,4.369-0.836,6.033-2.5     c3.337-3.337,3.337-8.73,0-12.066L381.505,296.904z"/>
			<path d="M113.422,215.088c0.794,0.794,1.732,1.417,2.782,1.852c1.041,0.435,2.15,0.657,3.26,0.657s2.219-0.222,3.26-0.657     c1.05-0.435,1.988-1.058,2.782-1.852l25.591-25.591c3.337-3.336,3.337-8.73,0-12.066s-8.73-3.337-12.066,0l-8.781,8.781     c10.701-54.972,59.153-96.614,117.214-96.614c4.719,0,8.533-3.823,8.533-8.533s-3.814-8.533-8.533-8.533     c-68.787,0-125.696,51.183-135.031,117.427L99.896,177.43c-3.336-3.337-8.73-3.337-12.066,0s-3.337,8.73,0,12.066     L113.422,215.088z"/>
		</g>
	</g>
</g>
<g>
</g>
<g>
</g>
<g>
</g>
<g>
</g>
<g>
</g>
<g>
</g>
<g>
</g>
<g>
</g>
<g>
</g>
<g>
</g>
<g>
</g>
<g>
</g>
<g>
</g>
<g>
</g>
<g>
</g>
</svg>
