<?xml version="1.0" encoding="iso-8859-1"?>
<!-- Generator: Adobe Illustrator 19.0.0, SVG Export Plug-In . SVG Version: 6.00 Build 0)  -->
<svg xmlns="http://www.w3.org/2000/svg" xmlns:xlink="http://www.w3.org/1999/xlink" version="1.1" id="Capa_1" x="0px" y="0px" viewBox="0 0 512 512" style="enable-background:new 0 0 512 512;" xml:space="preserve">
<g>
	<g>
		<g>
			<path d="M376.816,434.927c-7.108-30.532-28.843-55.39-58.146-66.5l-55.535-21.06c-2.065-1.289-4.088-5.598-5.88-9.429     l-0.93-1.988c-0.393-0.811-0.375-2.185-0.179-3.149l68.651-0.009c1.758-0.085,43.315-2.381,63.462-19.806     c4.907-4.258,5.683-11.75,1.741-17.084c-15.94-21.453-68.079-97.51-69.589-175.505C320.343,119.202,312.936,0.964,196.2,0     C79.6,0.964,72.193,119.202,72.116,120.67c-1.51,77.67-53.615,153.728-69.547,175.189c-3.977,5.359-3.191,12.911,1.775,17.186     C24.5,330.419,65.981,332.706,68.165,332.8h68.25c0.205,0.947,0.205,2.304-0.205,3.14l-0.99,2.099     c-1.783,3.789-3.78,8.055-5.82,9.335l-55.535,21.052c-29.312,11.11-51.038,35.968-58.146,66.5L0.223,501.538     c-0.589,2.534,0.009,5.197,1.63,7.236C3.466,510.814,5.932,512,8.534,512h375.467c2.594,0,5.069-1.186,6.682-3.226     c1.613-2.039,2.219-4.702,1.621-7.236L376.816,434.927z"/>
			<path d="M511.391,355.235l-7.006-17.527c-7.305-18.236-21.129-32.845-38.946-41.122l-53.675-24.934     c-2.253-1.212-5.914-4.403-8.414-7.117h55.398c0.273,0,1.058-0.026,1.331-0.051c0.145-0.017,15.522-1.647,30.754-6.665     c7.902-2.594,13.85-8.226,16.333-15.454c2.492-7.245,1.246-15.386-3.422-22.34c-16.785-25.011-45.116-74.505-46.097-125.235     c-0.051-0.947-5.854-94.02-99.32-94.788c-25.463,0.213-46.933,7.74-63.59,21.734c29.653,29.986,41.199,70.776,42.709,97.707     c1.442,73.532,51.081,145.852,66.253,166.281c9.216,12.459,7.339,30.08-4.25,40.158c-24.183,20.915-68.796,23.706-73.805,23.953     l-7.851,0.009l6.921,2.62c9.549,3.627,18.33,8.585,26.351,14.473h152.397c2.833,0,5.478-1.399,7.066-3.746     C512.116,360.841,512.441,357.863,511.391,355.235z"/>
		</g>
	</g>
</g>
<g>
</g>
<g>
</g>
<g>
</g>
<g>
</g>
<g>
</g>
<g>
</g>
<g>
</g>
<g>
</g>
<g>
</g>
<g>
</g>
<g>
</g>
<g>
</g>
<g>
</g>
<g>
</g>
<g>
</g>
</svg>
