<?xml version="1.0" encoding="iso-8859-1"?>
<!-- Generator: Adobe Illustrator 19.0.0, SVG Export Plug-In . SVG Version: 6.00 Build 0)  -->
<svg xmlns="http://www.w3.org/2000/svg" xmlns:xlink="http://www.w3.org/1999/xlink" version="1.1" id="Capa_1" x="0px" y="0px" viewBox="0 0 512.003 512.003" style="enable-background:new 0 0 512.003 512.003;" xml:space="preserve">
<g>
	<g>
		<g>
			<polygon points="426.669,392.535 375.469,392.535 366.936,392.535 366.936,443.735 435.211,443.735 435.203,392.535    "/>
			<path d="M401.069,290.135c-61.167,0-110.933,49.766-110.933,110.933s49.766,110.933,110.933,110.933     s110.933-49.766,110.933-110.933S462.236,290.135,401.069,290.135z M452.269,443.735c0,9.412-7.654,17.067-17.067,17.067h-68.267     c-9.412,0-17.067-7.654-17.067-17.067v-51.2c0-9.412,7.654-17.067,17.067-17.067v-8.533c0-18.825,15.309-34.133,34.133-34.133     c11.733,0,18.679,6.076,23.424,11.375c3.14,3.507,2.842,8.9-0.666,12.049c-3.499,3.14-8.892,2.85-12.049-0.666     c-3.806-4.258-6.519-5.692-10.709-5.692c-9.412,0-17.067,7.654-17.067,17.067v8.533h42.667h8.533     c9.412,0,17.067,7.654,17.067,17.067V443.735z"/>
			<path d="M281.961,354.51l-18.833-7.142c-2.338-1.434-4.514-6.298-6.716-11.23c-0.401-0.896-0.393-2.33-0.196-3.336l36.77-0.009     c18.415-29.047,48.12-50.261,82.978-57.216c-21.444-33.041-54.357-93.525-55.552-155.179     c-0.068-1.195-7.475-119.432-124.211-120.397C79.602,0.965,72.195,119.203,72.118,120.671     c-1.493,77.286-53.299,153.207-69.129,174.643c-4.335,5.854-3.226,14.063,2.526,18.705     c20.497,16.486,60.527,18.688,62.652,18.782h68.241c0.213,0.964,0.213,2.321-0.137,3.038l-1.331,2.722     c-1.707,3.576-3.627,7.603-5.547,8.815l-60.297,22.861c-26.411,10.01-46.72,31.104-55.714,57.873L0.446,466.621     c-0.879,2.594-0.444,5.461,1.161,7.697c1.604,2.227,4.181,3.55,6.929,3.55h290.372c-16.137-21.427-25.839-47.966-25.839-76.8     C273.069,384.632,276.295,368.957,281.961,354.51z"/>
		</g>
	</g>
</g>
<g>
</g>
<g>
</g>
<g>
</g>
<g>
</g>
<g>
</g>
<g>
</g>
<g>
</g>
<g>
</g>
<g>
</g>
<g>
</g>
<g>
</g>
<g>
</g>
<g>
</g>
<g>
</g>
<g>
</g>
</svg>
