<?xml version="1.0" encoding="iso-8859-1"?>
<!-- Generator: Adobe Illustrator 19.0.0, SVG Export Plug-In . SVG Version: 6.00 Build 0)  -->
<svg xmlns="http://www.w3.org/2000/svg" xmlns:xlink="http://www.w3.org/1999/xlink" version="1.1" id="Capa_1" x="0px" y="0px" viewBox="0 0 512.494 512.494" style="enable-background:new 0 0 512.494 512.494;" xml:space="preserve">
<g transform="translate(-1)">
	<g>
		<g>
			<polygon points="428.161,392.781 376.961,392.781 368.427,392.781 368.427,443.981 436.702,443.981 436.694,392.781    "/>
			<path d="M419.627,367.181c0-9.412-7.654-17.067-17.067-17.067c-9.412,0-17.067,7.654-17.067,17.067v8.533h34.133V367.181z"/>
			<path d="M402.561,290.381c-61.167,0-110.933,49.766-110.933,110.933s49.766,110.933,110.933,110.933     s110.933-49.766,110.933-110.933S463.728,290.381,402.561,290.381z M453.761,443.981c0,9.412-7.654,17.067-17.067,17.067h-68.267     c-9.412,0-17.067-7.654-17.067-17.067v-51.2c0-9.412,7.654-17.067,17.067-17.067v-8.533c0-18.825,15.309-34.133,34.133-34.133     c18.825,0,34.133,15.309,34.133,34.133v8.533c9.412,0,17.067,7.654,17.067,17.067V443.981z"/>
			<path d="M282.969,354.755l-18.842-7.142c-2.338-1.434-4.514-6.298-6.716-11.23c-0.401-0.896-0.393-2.33-0.196-3.336l36.779-0.009     c18.415-29.047,48.111-50.261,82.97-57.216c-21.436-33.041-54.349-93.525-55.552-155.179     c-0.068-1.195-7.475-119.432-124.211-120.397C80.601,1.211,73.194,119.449,73.118,120.916     C71.624,198.203,19.818,274.124,3.989,295.56c-4.335,5.854-3.226,14.063,2.526,18.705c20.497,16.486,60.527,18.688,62.652,18.782     h68.241c0.213,0.964,0.213,2.321-0.137,3.038l-1.323,2.722c-1.715,3.576-3.635,7.603-5.555,8.815l-60.297,22.861     c-26.411,10.01-46.72,31.104-55.714,57.873L1.446,466.866c-0.879,2.594-0.444,5.461,1.169,7.697     c1.596,2.227,4.173,3.55,6.921,3.55h290.381c-16.145-21.427-25.847-47.966-25.847-76.8     C274.069,384.878,277.295,369.202,282.969,354.755z"/>
		</g>
	</g>
</g>
<g>
</g>
<g>
</g>
<g>
</g>
<g>
</g>
<g>
</g>
<g>
</g>
<g>
</g>
<g>
</g>
<g>
</g>
<g>
</g>
<g>
</g>
<g>
</g>
<g>
</g>
<g>
</g>
<g>
</g>
</svg>
