<?xml version="1.0" encoding="iso-8859-1"?>
<!-- Generator: Adobe Illustrator 19.0.0, SVG Export Plug-In . SVG Version: 6.00 Build 0)  -->
<svg xmlns="http://www.w3.org/2000/svg" xmlns:xlink="http://www.w3.org/1999/xlink" version="1.1" id="Capa_1" x="0px" y="0px" viewBox="0 0 512.001 512.001" style="enable-background:new 0 0 512.001 512.001;" xml:space="preserve">
<g>
	<g>
		<g>
			<path d="M401.066,290.134c-61.167,0-110.933,49.766-110.933,110.933s49.766,110.933,110.933,110.933S512,462.234,512,401.068     S462.233,290.134,401.066,290.134z M452.266,409.601h-102.4c-4.71,0-8.533-3.823-8.533-8.533s3.823-8.533,8.533-8.533h102.4     c4.719,0,8.533,3.823,8.533,8.533S456.985,409.601,452.266,409.601z"/>
			<path d="M281.962,354.509l-18.833-7.142c-2.338-1.434-4.514-6.298-6.716-11.23c-0.401-0.896-0.393-2.33-0.196-3.336l36.77-0.009     c18.415-29.047,48.111-50.261,82.97-57.216c-21.436-33.041-54.349-93.525-55.543-155.179     C320.345,119.202,312.938,0.964,196.202,0C79.603,0.964,72.196,119.202,72.119,120.67     C70.626,197.956,18.82,273.877,2.991,295.313c-4.335,5.854-3.226,14.063,2.526,18.705c20.497,16.486,60.527,18.688,62.652,18.782     h68.241c0.213,0.964,0.213,2.321-0.137,3.038l-1.331,2.722c-1.707,3.576-3.627,7.603-5.547,8.815l-60.297,22.861     c-26.411,10.01-46.72,31.104-55.714,57.873L0.448,466.62c-0.879,2.594-0.444,5.461,1.161,7.697     c1.604,2.227,4.181,3.55,6.929,3.55H298.91c-16.145-21.427-25.839-47.966-25.839-76.8     C273.071,384.631,276.296,368.956,281.962,354.509z"/>
		</g>
	</g>
</g>
<g>
</g>
<g>
</g>
<g>
</g>
<g>
</g>
<g>
</g>
<g>
</g>
<g>
</g>
<g>
</g>
<g>
</g>
<g>
</g>
<g>
</g>
<g>
</g>
<g>
</g>
<g>
</g>
<g>
</g>
</svg>
