<?xml version="1.0" encoding="iso-8859-1"?>
<!-- Generator: Adobe Illustrator 19.0.0, SVG Export Plug-In . SVG Version: 6.00 Build 0)  -->
<svg xmlns="http://www.w3.org/2000/svg" xmlns:xlink="http://www.w3.org/1999/xlink" version="1.1" id="Capa_1" x="0px" y="0px" viewBox="0 0 512.488 512.488" style="enable-background:new 0 0 512.488 512.488;" xml:space="preserve">
<g transform="translate(-1)">
	<g>
		<g>
			<path d="M282.964,354.752l-18.842-7.142c-2.338-1.434-4.514-6.298-6.716-11.23c-0.401-0.896-0.393-2.33-0.188-3.336l36.77-0.009     c18.415-29.047,48.111-50.261,82.97-57.216c-21.436-33.041-54.357-93.525-55.552-155.179     c-0.06-1.195-7.475-119.432-124.203-120.397C80.604,1.208,73.189,119.446,73.12,120.914     C71.627,198.2,19.821,274.121,3.983,295.557c-4.335,5.854-3.226,14.063,2.526,18.705c20.497,16.486,60.535,18.688,62.66,18.782     h68.241c0.205,0.964,0.205,2.321-0.145,3.038l-1.323,2.722c-1.707,3.576-3.635,7.603-5.547,8.815l-60.305,22.861     c-26.411,10.01-46.711,31.104-55.706,57.873L1.44,466.863c-0.87,2.594-0.435,5.461,1.169,7.697     c1.596,2.227,4.173,3.55,6.929,3.55h290.372c-16.145-21.427-25.839-47.966-25.839-76.8     C274.072,384.875,277.289,369.199,282.964,354.752z"/>
			<path d="M402.555,290.378c-61.167,0-110.933,49.766-110.933,110.933s49.766,110.933,110.933,110.933     s110.933-49.766,110.933-110.933S463.722,290.378,402.555,290.378z M453.755,409.845h-42.667v42.667     c0,4.71-3.823,8.533-8.533,8.533s-8.533-3.823-8.533-8.533v-42.667h-42.667c-4.71,0-8.533-3.823-8.533-8.533     s3.823-8.533,8.533-8.533h42.667v-42.667c0-4.71,3.823-8.533,8.533-8.533s8.533,3.823,8.533,8.533v42.667h42.667     c4.71,0,8.533,3.823,8.533,8.533S458.465,409.845,453.755,409.845z"/>
		</g>
	</g>
</g>
<g>
</g>
<g>
</g>
<g>
</g>
<g>
</g>
<g>
</g>
<g>
</g>
<g>
</g>
<g>
</g>
<g>
</g>
<g>
</g>
<g>
</g>
<g>
</g>
<g>
</g>
<g>
</g>
<g>
</g>
</svg>
