<?xml version="1.0" encoding="iso-8859-1"?>
<!-- Generator: Adobe Illustrator 19.0.0, SVG Export Plug-In . SVG Version: 6.00 Build 0)  -->
<svg xmlns="http://www.w3.org/2000/svg" xmlns:xlink="http://www.w3.org/1999/xlink" version="1.1" id="Capa_1" x="0px" y="0px" viewBox="0 0 512.003 512.003" style="enable-background:new 0 0 512.003 512.003;" xml:space="preserve">
<g>
	<g>
		<g>
			<path d="M474.693,256.072c-42.044-5.436-73.463-23.893-98.654-41.233c-2.91-2.005-6.767-2.005-9.677,0     c-25.19,17.34-56.61,35.797-98.654,41.233c-4.258,0.546-7.441,4.173-7.441,8.465v81.647c0,55.714,24.516,108.493,65.579,141.184     c15.019,11.972,31.241,19.678,42.206,24.03c1.015,0.401,2.082,0.606,3.149,0.606s2.133-0.205,3.149-0.606     c11.622-4.617,28.527-12.553,43.042-24.098c40.542-32.282,64.742-85.035,64.742-141.116v-81.647     C482.135,260.245,478.952,256.618,474.693,256.072z M448.001,346.184c0,45.781-19.388,88.55-51.874,114.415     c-5.7,4.531-12.954,9.054-21.001,13.09c-1.203,0.606-2.517,0.905-3.823,0.905c-1.348,0-2.688-0.316-3.908-0.947     c-7.509-3.874-14.328-8.235-20.275-12.971c-33.007-26.283-52.719-69.077-52.719-114.492V292.5c0-3.866,2.594-7.245,6.323-8.243     c22.187-5.939,43.793-15.411,66.039-28.962c2.722-1.655,6.153-1.655,8.875,0c22.246,13.551,43.853,23.023,66.039,28.962     c3.729,0.998,6.323,4.378,6.323,8.243V346.184z"/>
			<path d="M311.468,298.954v47.232c0,40.252,17.297,78.072,46.285,101.137c4.053,3.234,8.619,6.272,13.611,9.079     c5.427-2.944,10.257-6.067,14.14-9.156c28.442-22.656,45.432-60.433,45.432-101.06v-47.232     c-20.079-5.965-39.723-14.66-59.733-26.428C351.191,284.294,331.547,292.989,311.468,298.954z"/>
			<path d="M243.201,264.533c0-12.826,9.6-23.748,22.323-25.387c38.434-4.966,67.652-22.187,91.162-38.366     c0.427-0.299,0.887-0.512,1.331-0.777c-12.041-29.602-18.466-57.66-18.978-83.763C338.979,115.081,331.828,0.93,219.112,0     C106.54,0.93,99.38,115.081,99.312,116.506c-1.442,74.342-51.277,147.371-66.517,167.987c-4.267,5.786-3.174,13.884,2.5,18.458     c20.002,16.085,57.148,13.133,60.527,12.783h62.029c-0.367,3.379-1.442,7.97-2.543,10.189l-1.297,2.671     c-1.621,3.371-3.439,7.177-5.18,8.294L96.599,356.54c-25.515,9.677-45.141,30.063-53.828,55.927l-12.459,37.086     c-0.87,2.603-0.444,5.461,1.161,7.689c1.604,2.236,4.181,3.558,6.929,3.558h239.846c-22.426-32.742-35.046-72.951-35.046-114.62     V264.533z"/>
		</g>
	</g>
</g>
<g>
</g>
<g>
</g>
<g>
</g>
<g>
</g>
<g>
</g>
<g>
</g>
<g>
</g>
<g>
</g>
<g>
</g>
<g>
</g>
<g>
</g>
<g>
</g>
<g>
</g>
<g>
</g>
<g>
</g>
</svg>
