<?xml version="1.0" encoding="iso-8859-1"?>
<!-- Generator: Adobe Illustrator 19.0.0, SVG Export Plug-In . SVG Version: 6.00 Build 0)  -->
<svg xmlns="http://www.w3.org/2000/svg" xmlns:xlink="http://www.w3.org/1999/xlink" version="1.1" id="Capa_1" x="0px" y="0px" viewBox="0 0 511.999 511.999" style="enable-background:new 0 0 511.999 511.999;" xml:space="preserve">
<g>
	<g>
		<g>
			<path d="M505.078,354.75l-15.403-2.961c-7.842-1.51-14.268-6.852-17.186-14.285c-2.918-7.433-1.843-15.718,2.884-22.161     l9.668-13.184c2.492-3.396,2.133-8.107-0.845-11.085l-20.89-20.881c-2.893-2.893-7.424-3.328-10.82-1.041l-12.988,8.806     c-6.613,4.48-14.933,5.24-22.255,2.048c-7.313-3.191-12.416-9.813-13.628-17.707l-2.492-16.162     c-0.64-4.164-4.215-7.236-8.431-7.236H363.16c-4.096,0-7.612,2.901-8.38,6.921l-3.831,19.891     c-1.493,7.791-6.554,13.995-13.884,17.024c-7.313,3.046-15.292,2.219-21.854-2.227l-16.768-11.358     c-3.388-2.287-7.927-1.852-10.82,1.041l-20.89,20.881c-2.978,2.978-3.336,7.689-0.845,11.085l9.668,13.184     c4.727,6.443,5.803,14.729,2.884,22.161s-9.344,12.774-17.186,14.285l-15.403,2.961c-4.019,0.768-6.921,4.284-6.921,8.38v29.534     c0,4.215,3.072,7.791,7.236,8.431l16.162,2.492c7.893,1.212,14.515,6.306,17.707,13.628c3.191,7.322,2.432,15.642-2.057,22.255     l-8.798,12.988c-2.287,3.388-1.852,7.927,1.041,10.82l20.881,20.881c2.987,2.978,7.68,3.345,11.085,0.853l13.184-9.668     c6.426-4.719,14.72-5.811,22.161-2.884c7.433,2.918,12.774,9.344,14.285,17.186l2.961,15.403c0.768,4.019,4.284,6.921,8.38,6.921     h29.534c4.215,0,7.791-3.072,8.431-7.236l1.749-11.366c1.246-8.064,6.494-14.754,14.029-17.877     c7.552-3.123,15.983-2.108,22.562,2.722l9.276,6.801c3.413,2.492,8.107,2.125,11.085-0.853l20.881-20.881     c2.893-2.893,3.328-7.433,1.041-10.82l-8.806-12.988c-4.48-6.613-5.239-14.933-2.048-22.255     c3.191-7.322,9.813-12.416,17.707-13.628l16.162-2.492c4.164-0.64,7.236-4.215,7.236-8.431v-29.534     C511.999,359.033,509.098,355.518,505.078,354.75z M375.465,426.635c-28.237,0-51.2-22.963-51.2-51.2     c0-28.237,22.963-51.2,51.2-51.2c28.237,0,51.2,22.963,51.2,51.2C426.665,403.671,403.702,426.635,375.465,426.635z"/>
			<path d="M375.465,341.301c-18.825,0-34.133,15.309-34.133,34.133c0,18.825,15.309,34.133,34.133,34.133     c18.825,0,34.133-15.309,34.133-34.133C409.599,356.61,394.29,341.301,375.465,341.301z"/>
			<path d="M259.732,420.451l-16.162-2.492c-12.578-1.937-21.7-12.578-21.7-25.293v-29.542c0-12.254,8.73-22.827,20.77-25.139     l12.553-2.415c-1.929-2.227-3.695-6.263-4.949-9.216c-1.126-2.654-2.193-7.262-2.603-10.65c0,0-1.971-27.699,7.031-36.693     l20.881-20.89c4.847-4.838,11.273-7.492,18.108-7.492c5.128,0,10.086,1.51,14.336,4.386l16.785,11.366     c1.084,0.734,2.21,1.101,3.354,1.101c0.777,0,1.579-0.171,2.381-0.503c2.039-0.836,3.268-2.347,3.678-4.497l3.823-19.883     c0.563-2.935,1.63-5.658,3.081-8.115c-17.289-32.401-34.244-74.94-35.089-118.281c-0.051-1.143-7.177-114.099-118.434-116.173     C76.632,2.105,69.507,115.06,69.439,116.477C68.005,190.811,18.171,263.848,2.93,284.464c-4.275,5.777-3.183,13.884,2.492,18.458     c20.002,16.085,57.156,13.124,60.535,12.783h62.029c-0.375,3.379-1.442,7.97-2.551,10.18l-1.297,2.679     c-1.613,3.371-3.43,7.168-5.171,8.294l-52.233,19.652c-25.523,9.677-45.141,30.054-53.828,55.927L0.447,449.516     c-0.879,2.603-0.444,5.47,1.152,7.697c1.604,2.236,4.19,3.558,6.938,3.558h242.449c-0.853-6.101,0.41-12.476,4.062-17.877     l8.806-12.996c1.195-1.766,1.391-3.9,0.538-5.854C263.538,422.081,261.84,420.776,259.732,420.451z"/>
		</g>
	</g>
</g>
<g>
</g>
<g>
</g>
<g>
</g>
<g>
</g>
<g>
</g>
<g>
</g>
<g>
</g>
<g>
</g>
<g>
</g>
<g>
</g>
<g>
</g>
<g>
</g>
<g>
</g>
<g>
</g>
<g>
</g>
</svg>
