<?xml version="1.0" encoding="iso-8859-1"?>
<!-- Generator: Adobe Illustrator 19.0.0, SVG Export Plug-In . SVG Version: 6.00 Build 0)  -->
<svg xmlns="http://www.w3.org/2000/svg" xmlns:xlink="http://www.w3.org/1999/xlink" version="1.1" id="Capa_1" x="0px" y="0px" viewBox="0 0 511.938 511.938" style="enable-background:new 0 0 511.938 511.938;" xml:space="preserve">
<g>
	<g>
		<g>
			<path d="M492.111,497.09l-43.802-39.825c7.825-11.102,12.459-24.61,12.459-39.194c0-37.641-30.626-68.267-68.267-68.267     c-37.641,0-68.267,30.626-68.267,68.267c0,37.641,30.626,68.267,68.267,68.267c16.922,0,32.384-6.221,44.322-16.452     l43.802,39.825c1.638,1.493,3.695,2.227,5.743,2.227c2.321,0,4.634-0.947,6.315-2.79     C495.848,505.657,495.601,500.264,492.111,497.09z"/>
			<path d="M331.219,358.827c-1.801-0.828-3.61-1.655-5.47-2.355l-52.215-19.644c-1.732-1.126-3.558-4.924-5.171-8.294l-1.297-2.679     c-1.101-2.219-2.176-6.801-2.543-10.189l61.227-0.034c4.181,0.384,41.327,3.345,61.329-12.749     c5.675-4.565,6.767-12.672,2.492-18.458c-15.241-20.608-65.075-93.645-66.526-168.26C322.993,115.029,315.867,2.074,204.61,0     C93.668,2.074,86.551,115.029,86.474,116.446c-1.434,74.334-51.268,147.371-66.509,167.987     c-4.275,5.777-3.183,13.884,2.492,18.449c20.002,16.094,57.156,13.133,60.536,12.783h62.029     c-0.375,3.388-1.442,7.97-2.551,10.189l-1.297,2.679c-1.613,3.371-3.43,7.168-5.171,8.294L83.769,356.48     c-25.523,9.668-45.141,30.054-53.828,55.927l-12.459,37.077c-0.879,2.603-0.444,5.47,1.161,7.697     c1.604,2.236,4.181,3.55,6.929,3.55h293.146c-7.296-12.561-11.546-27.11-11.546-42.667     C307.172,395.059,316.362,374.187,331.219,358.827z"/>
		</g>
	</g>
</g>
<g>
</g>
<g>
</g>
<g>
</g>
<g>
</g>
<g>
</g>
<g>
</g>
<g>
</g>
<g>
</g>
<g>
</g>
<g>
</g>
<g>
</g>
<g>
</g>
<g>
</g>
<g>
</g>
<g>
</g>
</svg>
